<svg xmlns="http://www.w3.org/2000/svg" width="32.856" height="32.024" viewBox="0 0 32.856 32.024">
  <g id="_000000ff" data-name="#000000ff" transform="translate(-4.994 -7.393)">
    <path id="Path_10290" data-name="Path 10290" d="M12.264,7.676a1.123,1.123,0,0,1,1.8.453,6.713,6.713,0,0,1,.064,1.408q3.8,0,7.6,0c.036-.595-.149-1.3.287-1.791a1.124,1.124,0,0,1,1.824.277,4.884,4.884,0,0,1,.1,1.515,23.408,23.408,0,0,1,3.719.13,4.251,4.251,0,0,1,3.187,3.9c.024,2.5,0,5.006.01,7.508A10.38,10.38,0,0,0,19.475,32.43c-3.444-.005-6.891.009-10.335-.007A4.243,4.243,0,0,1,5,28.256q-.01-7.268,0-14.539A4.231,4.231,0,0,1,7.562,9.886c1.373-.581,2.9-.27,4.345-.348.036-.621-.164-1.389.356-1.862M7.381,12.969a10.888,10.888,0,0,0-.173,2.965q10.72,0,21.441,0c-.014-.782.028-1.565-.017-2.346a1.988,1.988,0,0,0-1.852-1.824c-.944-.038-1.888,0-2.832-.012a5.632,5.632,0,0,1-.086,1.468,1.122,1.122,0,0,1-1.791.373c-.5-.474-.3-1.231-.339-1.842q-3.8,0-7.6,0a5.027,5.027,0,0,1-.1,1.5,1.121,1.121,0,0,1-1.795.32c-.477-.479-.278-1.219-.32-1.823-.922.01-1.843-.022-2.763.009A2.021,2.021,0,0,0,7.381,12.969Z" transform="translate(0)" fill="#54bbf8"/>
    <path id="Path_10291" data-name="Path 10291" d="M108.79,99.016a8.089,8.089,0,1,1-6.965,5.462,8.1,8.1,0,0,1,6.965-5.462m-.016,3.438c-.429.323-.4.9-.4,1.382.021,1.1-.017,2.2.014,3.292a1.1,1.1,0,0,0,1.235,1.055c1.088-.029,2.187.073,3.268-.057a1.12,1.12,0,0,0,.062-2.075,14.136,14.136,0,0,0-2.36-.08c-.029-.979.054-1.963-.038-2.936A1.114,1.114,0,0,0,108.774,102.453Z" transform="translate(-79.734 -75.754)" fill="#54bbf8"/>
  </g>
</svg>
