<svg xmlns="http://www.w3.org/2000/svg" width="36.593" height="36.591" viewBox="0 0 36.593 36.591">
  <g id="Attention-sign-icon" transform="translate(-88.185 -88.194)">
    <g id="_ea1f27ff" data-name="#ea1f27ff" transform="translate(88.185 88.194)">
      <path id="Path_10301" data-name="Path 10301" d="M105.057,88.246a18.305,18.305,0,1,1-12.268,6.106,18.367,18.367,0,0,1,12.268-6.106m-.348,1.457a16.877,16.877,0,1,0,9.346,1.7A16.887,16.887,0,0,0,104.709,89.7Z" transform="translate(-88.185 -88.194)" fill="#ea1f27"/>
      <path id="Path_10302" data-name="Path 10302" d="M133.105,119.044a15.652,15.652,0,1,1-9.244,4.212,15.665,15.665,0,0,1,9.244-4.212m1.006,4.265a2.162,2.162,0,0,0-1.493,1.2,5.623,5.623,0,0,0-.241,2.585c.161,2.972.386,5.94.577,8.91a6.572,6.572,0,0,0,.5,2.261,1.272,1.272,0,0,0,1.578.509,1.241,1.241,0,0,0,.692-.723,7.78,7.78,0,0,0,.446-2.412q.245-2.8.489-5.595a22.7,22.7,0,0,0,.146-4.575,3.585,3.585,0,0,0-.529-1.6,2.193,2.193,0,0,0-2.168-.561m-.154,18.254a2.211,2.211,0,0,0-1.052.667,2.275,2.275,0,0,0,.249,3.25,2.41,2.41,0,0,0,3.06-.119,2.269,2.269,0,0,0-.423-3.558A2.368,2.368,0,0,0,133.958,141.563Z" transform="translate(-116.317 -116.313)" fill="#ea1f27"/>
    </g>
  </g>
</svg>
