<svg xmlns="http://www.w3.org/2000/svg" width="55" height="55" viewBox="0 0 55 55">
  <g id="Group_5706" data-name="Group 5706" transform="translate(-264 -38)">
    <circle id="Ellipse_3" data-name="Ellipse 3" cx="27.5" cy="27.5" r="27.5" transform="translate(264 38)" fill="#030303"/>
    <g id="_000000ff" data-name="#000000ff" transform="translate(240.959 22.501)">
      <path id="Path_54" data-name="Path 54" d="M80.332,28.3a6.441,6.441,0,0,1,3.69,12.269,6.348,6.348,0,0,1-4.72.1,6.491,6.491,0,0,1-4.114-4.919,6.408,6.408,0,0,1,.511-3.84A6.477,6.477,0,0,1,80.332,28.3m-.174,1.68a4.852,4.852,0,1,0,5.856,6.506,4.773,4.773,0,0,0-.449-4.542A4.856,4.856,0,0,0,80.158,29.979Z" transform="translate(-31.026)" fill="#e6aa55"/>
      <path id="Path_55" data-name="Path 55" d="M48.784,112.716a12.988,12.988,0,0,1,6.89.942.775.775,0,0,1,.241,1.246.918.918,0,0,1-1.107.1,11.521,11.521,0,0,0-8.718.1,11.326,11.326,0,0,0-6.849,9.622c-.033.466.091,1.053-.315,1.4-.231.231-.571.153-.864.167-.188-.2-.46-.38-.441-.69a12.779,12.779,0,0,1,2.792-8.105A12.971,12.971,0,0,1,48.784,112.716Z" transform="translate(0 -69.892)" fill="#e6aa55"/>
      <path id="Path_56" data-name="Path 56" d="M124.778,129.676a1.493,1.493,0,0,1,2.406-.139c.466.707.74,1.523,1.188,2.243a19.244,19.244,0,0,1,2.685.57,1.553,1.553,0,0,1,.415,2.284c-.53.587-1.117,1.122-1.67,1.687a17.049,17.049,0,0,1,.415,2.47,1.536,1.536,0,0,1-1.971,1.365c-.788-.372-1.582-.733-2.37-1.105a14,14,0,0,1-2.281,1.174,1.569,1.569,0,0,1-1.831-1.749c.108-.747.258-1.489.411-2.229-.553-.54-1.148-1.041-1.67-1.615a1.539,1.539,0,0,1,.63-2.4c.831-.2,1.69-.269,2.534-.4.4-.7.707-1.453,1.108-2.153m.21,2.8a1.5,1.5,0,0,1-1.069.886c-.778.145-1.563.262-2.35.348a19.994,19.994,0,0,1,1.959,1.9c.4,1.022-.167,2.115-.275,3.15.757-.365,1.442-.881,2.227-1.188,1.164-.2,2.06.788,3.076,1.186-.11-.995-.644-2.017-.306-3.012a25.925,25.925,0,0,1,1.917-2.024,15.775,15.775,0,0,1-2.573-.465c-.976-.553-1.153-1.8-1.723-2.68C125.561,131.2,125.289,131.848,124.988,132.48Z" transform="translate(-68.34 -83.455)" fill="#e6aa55"/>
    </g>
  </g>
</svg>
