<svg xmlns="http://www.w3.org/2000/svg" width="55" height="55" viewBox="0 0 55 55">
  <g id="Group_5705" data-name="Group 5705" transform="translate(-32 -38)">
    <circle id="Ellipse_2" data-name="Ellipse 2" cx="27.5" cy="27.5" r="27.5" transform="translate(32 38)" fill="#030303"/>
    <g id="_020202ff" data-name="#020202ff" transform="translate(-120.686 -60.838)">
      <path id="Path_48" data-name="Path 48" d="M176.511,113.063a6.99,6.99,0,0,1,4.919-.916,6.44,6.44,0,0,1,4.054,2.673,3.764,3.764,0,0,1,3.037,6.779,4.085,4.085,0,0,1-1.264.544c-.038.077-.131.175-.121.018-.115.024-.364-.011-.32.186,0,1,.013,2-.007,3,.289.11.605.126.889.246a.49.49,0,0,1,.113.7c-.083.05-.163.1-.246.149a2.533,2.533,0,0,1-.3-.033,29.381,29.381,0,0,0-7.3-.795,34.3,34.3,0,0,0-4.428.267,13.849,13.849,0,0,0-2.417.509c-.213.086-.447.219-.677.106a.476.476,0,0,1-.061-.781,5.43,5.43,0,0,1,1.074-.37q.01-1.575,0-3.151a3.76,3.76,0,0,1-1.452-6.966,3.836,3.836,0,0,1,2.587-.477,6.521,6.521,0,0,1,1.918-1.685m-.106,1.154a5.419,5.419,0,0,0-2.172,3.557.486.486,0,0,1-.709.258.56.56,0,0,1-.18-.4A5.944,5.944,0,0,1,174,115.6a2.886,2.886,0,0,0-2.752,1.876,2.863,2.863,0,0,0,2.138,3.784,2.883,2.883,0,0,0,2.352-.6.468.468,0,0,1,.448-.134.449.449,0,0,1,.209.766,3.676,3.676,0,0,1-2.011.9c-.008.982,0,1.964,0,2.947a29.433,29.433,0,0,1,3.816-.4,33.424,33.424,0,0,1,7.713.453c.024-1.629-.018-3.26.021-4.888.049-.063.1-.126.142-.19a.511.511,0,0,1,.731.17,5.421,5.421,0,0,1,.011.991,2.835,2.835,0,0,0,2.462-2.462,2.85,2.85,0,0,0-4.055-2.926,2.832,2.832,0,0,0-1.536,1.886c-.039.193-.113.417-.33.47a.46.46,0,0,1-.592-.545,3.808,3.808,0,0,1,1.789-2.494c.111-.117-.138-.238-.19-.344a5.508,5.508,0,0,0-3.955-1.921A6.263,6.263,0,0,0,176.4,114.217Z" transform="translate(0)" fill="#e6aa55"/>
      <path id="Path_49" data-name="Path 49" d="M214.892,313.262a.458.458,0,0,1,.657.443,6.774,6.774,0,0,0,.828,3.233,5.956,5.956,0,0,0,3.517,2.938,5.087,5.087,0,0,0,3.411-.235,6.582,6.582,0,0,0,3.9-5.958.456.456,0,0,1,.75-.359c.211.159.165.443.157.674a7.542,7.542,0,0,1-4.747,6.6,6,6,0,0,1-4.134.027A6.781,6.781,0,0,1,215.967,318a7.793,7.793,0,0,1-1.331-4.29A.449.449,0,0,1,214.892,313.262Z" transform="translate(-41.191 -186.339)" fill="#e6aa55"/>
      <path id="Path_50" data-name="Path 50" d="M207.716,408.96c.232-.175.506-.01.736.078a17.919,17.919,0,0,0,5.388,1.124,19.146,19.146,0,0,0,5.558-.587,14.616,14.616,0,0,0,2.124-.7.455.455,0,0,1,.59.536c-.049.264-.327.344-.541.433a19.444,19.444,0,0,1-4.342,1.066,4.038,4.038,0,0,1,2.129,1.652,3.971,3.971,0,0,1,.535,2.13.916.916,0,0,1-.415.79,1.054,1.054,0,0,1-1.089-.2,8.765,8.765,0,0,1-1.3-1.276c-.717-.839-1.37-1.73-2.007-2.631a29.527,29.527,0,0,1-2.882,3.228,9.424,9.424,0,0,1-.868.672,1.229,1.229,0,0,1-1.188.205.958.958,0,0,1-.461-.871,3.5,3.5,0,0,1,.756-2.284,4.381,4.381,0,0,1,2.07-1.356,19.027,19.027,0,0,1-4.883-1.3.51.51,0,0,1,.086-.717m3.934,3.466a2.611,2.611,0,0,0-1.054,2.2,3.9,3.9,0,0,0,1.144-.847,24.048,24.048,0,0,0,1.812-1.957.968.968,0,0,1,.2-.2,4.464,4.464,0,0,0-2.1.807m4.758-.807a9.883,9.883,0,0,0,.863,1.177,10.494,10.494,0,0,0,1.707,1.8,2.814,2.814,0,0,0-.68-1.937A3.6,3.6,0,0,0,216.408,411.618Z" transform="translate(-34.606 -274.921)" fill="#e6aa55"/>
    </g>
  </g>
</svg>
