<svg xmlns="http://www.w3.org/2000/svg" width="26.342" height="25.326" viewBox="0 0 26.342 25.326">
  <g id="Group_14" data-name="Group 14" transform="translate(-1110.579 -365.174)">
    <g id="_393939ff" data-name="#393939ff" transform="translate(1110.579 365.174)">
      <path id="Path_74" data-name="Path 74" d="M47.005,0h.273c.388.093.832.337.837.79.019,1.242.016,2.487,0,3.73-.056.819-1.24,1.045-1.765.515-.309-.273-.255-.718-.262-1.087.019-1.051-.019-2.1.016-3.152C46.124.325,46.59.067,47.005,0Z" transform="translate(-40.889)" fill="#e6aa55"/>
      <path id="Path_75" data-name="Path 75" d="M127.888,0h.344a1.218,1.218,0,0,1,.734.448,1.921,1.921,0,0,1,.115.906c-.024,1.092.028,2.187-.023,3.277a1.077,1.077,0,0,1-1.62.51.9.9,0,0,1-.394-.852c.01-1.165-.016-2.33.011-3.495C127.069.346,127.506.1,127.888,0Z" transform="translate(-112.706)" fill="#e6aa55"/>
      <path id="Path_76" data-name="Path 76" d="M0,20.342a1.7,1.7,0,0,1,1.448-1.4c.722-.036,1.447-.019,2.17-.011a.571.571,0,0,1,.563.671.578.578,0,0,1-.554.443c-.736.032-1.473,0-2.21,0-.121.17-.309.327-.282.56-.015,1.389,0,2.779-.006,4.169q9.684,0,19.369,0c0-1.352,0-2.7,0-4.056a.6.6,0,0,0-.317-.633c-.734-.1-1.482.036-2.215-.065a.563.563,0,0,1-.076-1.046,5.343,5.343,0,0,1,1.179-.055,3.242,3.242,0,0,1,1.772.255,1.626,1.626,0,0,1,.772,1.428c.008,2.207,0,4.416,0,6.624-.374-.109-.75-.212-1.128-.3,0-.346,0-.692,0-1.037q-9.681,0-19.363,0V36.533c.014.187-.024.405.107.561.159.21.447.192.682.2,2.969-.007,5.938,0,8.907,0,.125.383.257.762.4,1.137-3.179-.015-6.357,0-9.536-.008A1.689,1.689,0,0,1,0,36.926Z" transform="translate(0 -16.78)" fill="#e6aa55"/>
      <path id="Path_77" data-name="Path 77" d="M73.965,19.014a1.309,1.309,0,0,1,.526-.064c1.167.011,2.335,0,3.5.007a.559.559,0,1,1,0,1.117c-1.132.028-2.266,0-3.4.014-.276-.006-.612.023-.809-.211A.562.562,0,0,1,73.965,19.014Z" transform="translate(-65.346 -16.812)" fill="#e6aa55"/>
      <path id="Path_78" data-name="Path 78" d="M23.706,94.806c.964-.009,1.927,0,2.89-.006a3.577,3.577,0,0,1,.014,1.1c-.925.019-1.851.019-2.775.007-.2,0-.124-.292-.16-.42A6.031,6.031,0,0,1,23.706,94.806Z" transform="translate(-21.001 -84.102)" fill="#e6aa55"/>
      <path id="Path_79" data-name="Path 79" d="M62.836,94.8c.964-.065,1.933-.016,2.9-.023a7.447,7.447,0,0,1,.012,1.088c-.956.027-1.914.036-2.869,0A1.99,1.99,0,0,1,62.836,94.8Z" transform="translate(-55.699 -84.072)" fill="#e6aa55"/>
      <path id="Path_80" data-name="Path 80" d="M102.1,95.913a3.139,3.139,0,0,1,0-1.106c.96,0,1.92,0,2.88,0,.016.179.034.359.053.538-.271.181-.535.371-.793.569C103.53,95.922,102.816,95.928,102.1,95.913Z" transform="translate(-90.538 -84.108)" fill="#e6aa55"/>
      <path id="Path_81" data-name="Path 81" d="M23.786,123.467c.1-.115.3-.038.438-.067.818.008,1.636,0,2.453.009a3.285,3.285,0,0,1-.01,1.107c-.964-.006-1.927.009-2.89-.009A4.222,4.222,0,0,1,23.786,123.467Z" transform="translate(-21.068 -109.475)" fill="#e6aa55"/>
      <path id="Path_82" data-name="Path 82" d="M62.96,123.4c.95,0,1.9-.03,2.851.01a2.5,2.5,0,0,1,.058,1.087c-.964.018-1.929,0-2.892.009A3.463,3.463,0,0,1,62.96,123.4Z" transform="translate(-55.823 -109.466)" fill="#e6aa55"/>
      <path id="Path_83" data-name="Path 83" d="M23.866,151.976q1.451-.025,2.9,0a3.323,3.323,0,0,1-.011,1.093c-.96.061-1.926.025-2.888.015A5.186,5.186,0,0,1,23.866,151.976Z" transform="translate(-21.147 -134.814)" fill="#e6aa55"/>
      <path id="Path_84" data-name="Path 84" d="M63.036,153.105a2.849,2.849,0,0,1-.011-1.135c.96.006,1.921,0,2.881.006a4.291,4.291,0,0,1,0,1.122C64.95,153.112,63.993,153.1,63.036,153.105Z" transform="translate(-55.867 -134.821)" fill="#e6aa55"/>
    </g>
    <g id="_ff7900ff" data-name="#ff7900ff" transform="translate(1123.291 376.87)">
      <path id="Path_85" data-name="Path 85" d="M115.049,105.13a6.567,6.567,0,0,1,9.1.756,6.679,6.679,0,0,1,1.635,4.163v.557a6.664,6.664,0,0,1-6.072,6.17h-.973a6.755,6.755,0,0,1-4.146-1.912,6.57,6.57,0,0,1,.46-9.735m4,1.783a.806.806,0,0,0-.536.836c0,1.014-.006,2.03,0,3.046a.77.77,0,0,0,.352.7c.566.355,1.18.629,1.759.964.327.17.693.431,1.075.264a.771.771,0,0,0,.193-1.32c-.582-.375-1.222-.648-1.822-.992-.008-.924.02-1.851-.009-2.775A.776.776,0,0,0,119.053,106.913Z" transform="translate(-112.65 -103.647)" fill="none" stroke="#e6aa55" stroke-width="1"/>
    </g>
  </g>
</svg>
