<svg xmlns="http://www.w3.org/2000/svg" width="55" height="55" viewBox="0 0 55 55">
  <g id="Group_5707" data-name="Group 5707" transform="translate(-508 -38)">
    <circle id="Ellipse_4" data-name="Ellipse 4" cx="27.5" cy="27.5" r="27.5" transform="translate(508 38)" fill="#030303"/>
    <g id="_000000ff" data-name="#000000ff" transform="translate(522.578 52.079)">
      <path id="Path_57" data-name="Path 57" d="M3.816,0H4.77A1.3,1.3,0,0,1,6.023,1.215c.021.745-.006,1.49.013,2.235q6.8-.014,13.6,0c.055-.016.2.037.177-.067.008-.722-.011-1.445.009-2.166A1.307,1.307,0,0,1,21.032,0h.988a1.309,1.309,0,0,1,1.235,1.264c.01.727,0,1.455,0,2.181a3.328,3.328,0,0,1,1.1.113,2.151,2.151,0,0,1,1.37,1.365,2.656,2.656,0,0,1,.116.651V23.738a2.2,2.2,0,0,1-.766,1.588,2.227,2.227,0,0,1-1.335.515H2.1a2.2,2.2,0,0,1-1.587-.765A2.222,2.222,0,0,1,0,23.741V5.576a2.675,2.675,0,0,1,.116-.653,2.153,2.153,0,0,1,1.37-1.364,3.333,3.333,0,0,1,1.1-.114c0-.678,0-1.356,0-2.035a1.416,1.416,0,0,1,.2-.8A1.316,1.316,0,0,1,3.816,0M3.756.884a.436.436,0,0,0-.307.429c-.006,1.363,0,2.727,0,4.09a.626.626,0,0,0,.137.5c.145.148.368.122.556.125a5.316,5.316,0,0,0,.707-.021.443.443,0,0,0,.323-.461c0-1.362,0-2.724,0-4.085A.624.624,0,0,0,5.051,1,.622.622,0,0,0,4.542.86a5.836,5.836,0,0,0-.786.024M21.059.87a.433.433,0,0,0-.383.443c-.007,1.4,0,2.794,0,4.191a.506.506,0,0,0,.157.421.761.761,0,0,0,.519.106,6.349,6.349,0,0,0,.707-.017.439.439,0,0,0,.339-.459q0-2.121,0-4.242a.437.437,0,0,0-.433-.447c-.3-.005-.6-.013-.9,0M1.87,4.343A1.3,1.3,0,0,0,.864,5.6c-.006,1.579,0,3.158,0,4.737H24.98q0-2.19,0-4.381a2.4,2.4,0,0,0-.067-.754,1.294,1.294,0,0,0-.938-.86,3.853,3.853,0,0,0-.712-.038c-.018.457.007.915-.013,1.372a1.3,1.3,0,0,1-.846,1.133,2.9,2.9,0,0,1-.954.082,1.858,1.858,0,0,1-.942-.149,1.294,1.294,0,0,1-.693-1.092c-.012-.447,0-.895-.005-1.343H6.03c0,.446.007.893-.005,1.339A1.3,1.3,0,0,1,5.3,6.76a2.182,2.182,0,0,1-1.006.131,2.13,2.13,0,0,1-.96-.125,1.3,1.3,0,0,1-.742-1.124c-.012-.445,0-.89-.007-1.335a3.607,3.607,0,0,0-.712.035M.862,11.2q0,6.059,0,12.118a2.265,2.265,0,0,0,.084.816,1.286,1.286,0,0,0,.763.764,2.263,2.263,0,0,0,.817.084h21.1a1.3,1.3,0,0,0,1.358-1.359q0-6.211,0-12.422Z" fill="#e6aa55"/>
      <path id="Path_58" data-name="Path 58" d="M153.862,110.956a.869.869,0,0,1,.234-.029h9.288a.5.5,0,0,1,.412.149.64.64,0,0,1,.114.461c-.006.806.007,1.611-.006,2.416a.439.439,0,0,1-.471.418q-4.667.005-9.335,0a.5.5,0,0,1-.417-.152.582.582,0,0,1-.111-.412c0-.807,0-1.614,0-2.42a.443.443,0,0,1,.289-.433m.571.833q0,.861,0,1.722,4.307,0,8.614,0,0-.861,0-1.721Z" transform="translate(-145.819 -105.328)" fill="#e6aa55"/>
      <path id="Path_59" data-name="Path 59" d="M51.535,247.444c.865-.024,1.732-.005,2.6-.01a.442.442,0,0,1,.475.434c.007.705,0,1.411,0,2.116a.437.437,0,0,1-.423.459c-.809.012-1.619,0-2.428.006a.609.609,0,0,1-.451-.118.552.552,0,0,1-.143-.447c0-.658,0-1.315,0-1.972a.441.441,0,0,1,.369-.467m.489.856c.009.429,0,.857,0,1.286H53.75q0-.645,0-1.291C53.175,248.3,52.6,248.287,52.024,248.3Z" transform="translate(-48.582 -234.942)" fill="#e6aa55"/>
      <path id="Path_60" data-name="Path 60" d="M162.486,247.44c.816-.025,1.633,0,2.45-.011a.623.623,0,0,1,.5.135.585.585,0,0,1,.127.447c0,.657,0,1.314,0,1.97a.438.438,0,0,1-.421.459c-.809.012-1.618,0-2.427.006a.654.654,0,0,1-.419-.091.484.484,0,0,1-.177-.422c0-.675,0-1.35,0-2.024a.443.443,0,0,1,.37-.468m.49.851v1.291q.862,0,1.723,0,0-.645,0-1.291Z" transform="translate(-153.932 -234.94)" fill="#e6aa55"/>
      <path id="Path_61" data-name="Path 61" d="M281.968,247.452c.8-.017,1.6,0,2.4-.008a.726.726,0,0,1,.483.1.51.51,0,0,1,.168.437c0,.656,0,1.312,0,1.969a.486.486,0,0,1-.175.419.587.587,0,0,1-.378.092c-.807,0-1.614,0-2.421,0a.452.452,0,0,1-.386-.179.7.7,0,0,1-.088-.439c.006-.654-.005-1.309.005-1.962a.429.429,0,0,1,.393-.426m.464.855q0,.645,0,1.291.862,0,1.723,0c0-.428,0-.858,0-1.286C283.584,248.3,283.008,248.31,282.433,248.307Z" transform="translate(-267.358 -234.955)" fill="#e6aa55"/>
      <path id="Path_62" data-name="Path 62" d="M392.851,247.45c.8-.017,1.6,0,2.4-.008a.715.715,0,0,1,.484.1.509.509,0,0,1,.163.43c0,.657,0,1.314,0,1.971a.487.487,0,0,1-.172.419.572.572,0,0,1-.373.094q-1.161,0-2.321,0a.584.584,0,0,1-.444-.124.494.494,0,0,1-.136-.391c0-.656,0-1.312,0-1.968a.456.456,0,0,1,.4-.526m.463.855q0,.645,0,1.291.861,0,1.722,0c0-.432.009-.864-.007-1.3C394.457,248.311,393.885,248.3,393.313,248.3Z" transform="translate(-372.64 -234.953)" fill="#e6aa55"/>
      <path id="Path_63" data-name="Path 63" d="M51.437,332.829a1.13,1.13,0,0,1,.384-.039c.79.006,1.58-.006,2.369.005a.437.437,0,0,1,.428.46c.005.656,0,1.313,0,1.969a.585.585,0,0,1-.126.448.516.516,0,0,1-.4.134q-1.187,0-2.374,0a.565.565,0,0,1-.385-.1.51.51,0,0,1-.162-.427c0-.676,0-1.352,0-2.028a.446.446,0,0,1,.261-.42m.6.824c0,.432-.008.864.006,1.3.572-.01,1.144,0,1.716,0q0-.646,0-1.291Z" transform="translate(-48.59 -315.993)" fill="#e6aa55"/>
      <path id="Path_64" data-name="Path 64" d="M162.366,332.828a1.153,1.153,0,0,1,.386-.038c.791.006,1.582-.006,2.373.006a.437.437,0,0,1,.421.46c0,.688,0,1.377,0,2.065a.469.469,0,0,1-.18.4.73.73,0,0,1-.447.087c-.792,0-1.585,0-2.377,0a.436.436,0,0,1-.438-.428c-.009-.69,0-1.381,0-2.071a.468.468,0,0,1,.265-.474m.6.825q0,.645,0,1.291h1.724q0-.646,0-1.291Z" transform="translate(-153.919 -315.993)" fill="#e6aa55"/>
      <path id="Path_65" data-name="Path 65" d="M281.9,332.808a1.267,1.267,0,0,1,.243-.018c.79,0,1.581,0,2.372,0a.475.475,0,0,1,.4.16.679.679,0,0,1,.1.455c-.006.656.005,1.312-.005,1.968a.437.437,0,0,1-.44.428c-.81.007-1.62,0-2.43,0a.56.56,0,0,1-.447-.135.588.588,0,0,1-.127-.447c0-.656,0-1.312,0-1.968a.437.437,0,0,1,.332-.448m.528.844q0,.646,0,1.291c.575,0,1.151,0,1.726,0-.006-.429,0-.859,0-1.288Z" transform="translate(-267.357 -315.993)" fill="#e6aa55"/>
      <path id="Path_66" data-name="Path 66" d="M392.757,332.845a.73.73,0,0,1,.28-.045q1.185,0,2.37,0a.572.572,0,0,1,.375.093.486.486,0,0,1,.173.419q0,.987,0,1.974a.509.509,0,0,1-.163.428.567.567,0,0,1-.385.1q-1.188,0-2.375,0a.513.513,0,0,1-.4-.132.578.578,0,0,1-.128-.449c0-.656,0-1.311,0-1.967a.445.445,0,0,1,.248-.422m.612.818q0,.645,0,1.291c.573,0,1.147,0,1.721,0,0-.43,0-.861,0-1.291C394.518,333.66,393.944,333.663,393.369,333.663Z" transform="translate(-372.696 -316.003)" fill="#e6aa55"/>
      <path id="Path_67" data-name="Path 67" d="M277.139,414.919c.631-.73,1.238-1.481,1.859-2.219.222.18.436.368.662.543-.669.824-1.358,1.63-2.033,2.449a.671.671,0,0,1-.366.282.458.458,0,0,1-.428-.15q-.627-.625-1.252-1.252c.2-.2.4-.412.613-.609C276.5,414.285,276.83,414.593,277.139,414.919Z" transform="translate(-261.671 -391.87)" fill="#e6aa55"/>
      <path id="Path_68" data-name="Path 68" d="M381.4,412.81c.237.164.447.364.673.545q-1.061,1.272-2.122,2.545a.458.458,0,0,1-.441.181.762.762,0,0,1-.378-.262c-.38-.381-.758-.761-1.14-1.139.2-.209.4-.409.608-.613.32.318.638.639.959.958C380.17,414.286,380.791,413.553,381.4,412.81Z" transform="translate(-358.912 -391.974)" fill="#e6aa55"/>
      <path id="Path_69" data-name="Path 69" d="M51.568,418.106c.855-.013,1.711,0,2.566,0a.445.445,0,0,1,.473.451q.006,1.058,0,2.116a.437.437,0,0,1-.426.444c-.807.011-1.615,0-2.422.005a.64.64,0,0,1-.441-.108.531.531,0,0,1-.156-.442c0-.673,0-1.347,0-2.02a.436.436,0,0,1,.4-.442m.458.855v1.293h1.722q0-.647,0-1.294Z" transform="translate(-48.579 -396.996)" fill="#e6aa55"/>
      <path id="Path_70" data-name="Path 70" d="M162.509,418.1c.855-.012,1.711,0,2.566,0a.444.444,0,0,1,.468.451c.007.654,0,1.308,0,1.962a.657.657,0,0,1-.1.434.5.5,0,0,1-.426.167h-2.427a.486.486,0,0,1-.391-.156.646.646,0,0,1-.106-.443c0-.658,0-1.315,0-1.972a.435.435,0,0,1,.407-.439m.451.856q0,.647,0,1.293h1.723c0-.432,0-.863,0-1.294C164.108,418.961,163.534,418.96,162.96,418.96Z" transform="translate(-153.916 -396.995)" fill="#e6aa55"/>
    </g>
  </g>
</svg>
