<svg xmlns="http://www.w3.org/2000/svg" width="22" height="22" viewBox="0 0 22 22">
  <g id="Group_5685" data-name="Group 5685" transform="translate(-53 -461)">
    <rect id="Rectangle_4624" data-name="Rectangle 4624" width="22" height="22" transform="translate(53 461)" fill="#fff" opacity="0"/>
    <path id="Path_10593" data-name="Path 10593" d="M9.857,15.143a.786.786,0,1,0-.786-.786A.786.786,0,0,0,9.857,15.143Zm3.929,0A.786.786,0,1,0,13,14.357.786.786,0,0,0,13.786,15.143Zm0-3.143A.786.786,0,1,0,13,11.214.786.786,0,0,0,13.786,12ZM9.857,12a.786.786,0,1,0-.786-.786A.786.786,0,0,0,9.857,12Zm5.5-9.429h-.786V1.786a.786.786,0,0,0-1.571,0v.786H6.714V1.786a.786.786,0,1,0-1.571,0v.786H4.357A2.357,2.357,0,0,0,2,4.929v11a2.357,2.357,0,0,0,2.357,2.357h11a2.357,2.357,0,0,0,2.357-2.357v-11A2.357,2.357,0,0,0,15.357,2.571Zm.786,13.357a.786.786,0,0,1-.786.786h-11a.786.786,0,0,1-.786-.786V8.857H16.143Zm0-8.643H3.571V4.929a.786.786,0,0,1,.786-.786h.786v.786a.786.786,0,1,0,1.571,0V4.143H13v.786a.786.786,0,1,0,1.571,0V4.143h.786a.786.786,0,0,1,.786.786ZM5.929,12a.786.786,0,1,0-.786-.786A.786.786,0,0,0,5.929,12Zm0,3.143a.786.786,0,1,0-.786-.786A.786.786,0,0,0,5.929,15.143Z" transform="translate(54.143 462.357)" fill="#fff"/>
  </g>
</svg>
