<svg xmlns="http://www.w3.org/2000/svg" width="22" height="22" viewBox="0 0 22 22">
  <g id="Group_5684" data-name="Group 5684" transform="translate(-53 -405)">
    <rect id="Rectangle_4621" data-name="Rectangle 4621" width="22" height="22" transform="translate(53 405)" fill="#fff" opacity="0"/>
    <g id="Icon_ionic-ios-chatboxes" data-name="Icon ionic-ios-chatboxes" transform="translate(52.416 404.415)">
      <path id="Path_4" data-name="Path 4" d="M21.938,11.981H13.19a1.506,1.506,0,0,0-1.5,1.5v6.091a1.5,1.5,0,0,0,1.5,1.5H18.2a.431.431,0,0,1,.3.126L20.982,23.5c.138.134.367.079.367-.114v-2c0-.237.15-.312.387-.312h.039a1.643,1.643,0,0,0,1.662-1.5V13.485A1.5,1.5,0,0,0,21.938,11.981Z" transform="translate(-3.645 -3.774)" fill="#fff"/>
      <path id="Path_5" data-name="Path 5" d="M8.365,7.24h7V4.662a1.287,1.287,0,0,0-1.287-1.287H4.662A1.287,1.287,0,0,0,3.375,4.662v6.521A1.287,1.287,0,0,0,4.662,12.47H7.074V8.527A1.293,1.293,0,0,1,8.365,7.24Z" fill="#fff"/>
    </g>
  </g>
</svg>
