<svg xmlns="http://www.w3.org/2000/svg" width="22" height="22" viewBox="0 0 22 22">
  <g id="Group_5683" data-name="Group 5683" transform="translate(-53 -353)">
    <rect id="Rectangle_4623" data-name="Rectangle 4623" width="22" height="22" transform="translate(53 353)" fill="#fff" opacity="0"/>
    <g id="_000000ff" data-name="#000000ff" transform="translate(55.832 354.085)">
      <path id="Path_33" data-name="Path 33" d="M37.583,2.812a.872.872,0,0,1,1.011-.894c3.813.008,7.627,0,11.441.006a.84.84,0,0,1,.812.747V17.2a.91.91,0,0,1-.38.589,1.312,1.312,0,0,1-.764.138c-1.532-.007-3.063,0-4.594,0,.018-.5.021-.995,0-1.492H49.6q0-6.508,0-13.015H38.828c0,1.167,0,2.335,0,3.5a3.839,3.839,0,0,0-1.247.458C37.586,5.852,37.581,4.332,37.583,2.812Z" transform="translate(-34.51 0)" fill="#fff"/>
      <path id="Path_34" data-name="Path 34" d="M76.18,44.686h6.965q0,.539,0,1.077-3.481,0-6.964,0Z" transform="translate(-69.957 -39.284)" fill="#fff"/>
      <path id="Path_35" data-name="Path 35" d="M3.551,74.549a2.175,2.175,0,0,1,1.993-.326,1.817,1.817,0,0,1,1.2,1.2,3.738,3.738,0,0,1-.026,1.2.788.788,0,0,1-.176,1.352,2.367,2.367,0,0,1-.477,1.134c0,.306,0,.61.007.915.69.341,1.4.627,2.122.9a4.034,4.034,0,0,1,1.184.622.961.961,0,0,1,.26.636A13.068,13.068,0,0,1,9.7,84.061c-3.232,0-6.464,0-9.7,0V82.841a5.263,5.263,0,0,1,.136-1.006c.133-.367.527-.532.852-.693.879-.377,1.79-.682,2.642-1.122,0-.3.008-.608,0-.912a2.284,2.284,0,0,1-.471-1.128.8.8,0,0,1-.183-1.361,8.388,8.388,0,0,1-.068-.881A1.608,1.608,0,0,1,3.551,74.549Z" transform="translate(0 -66.309)" fill="#fff"/>
      <path id="Path_36" data-name="Path 36" d="M88.14,77.13c1.332,0,2.665,0,4,0q0,.539,0,1.078-1.763,0-3.526,0A2.847,2.847,0,0,0,88.14,77.13Z" transform="translate(-80.94 -69.078)" fill="#fff"/>
      <path id="Path_37" data-name="Path 37" d="M147.213,77.151h1.161q0,.539,0,1.079c-.387,0-.774,0-1.161,0Q147.212,77.689,147.213,77.151Z" transform="translate(-135.187 -69.096)" fill="#fff"/>
      <path id="Path_38" data-name="Path 38" d="M95.372,109.623h3.285q0,.539,0,1.078c-1.139,0-2.277,0-3.417,0A2.146,2.146,0,0,0,95.372,109.623Z" transform="translate(-87.46 -98.916)" fill="#fff"/>
      <path id="Path_39" data-name="Path 39" d="M147.21,109.623h1.162q0,.539,0,1.078h-1.161C147.21,110.342,147.211,109.983,147.21,109.623Z" transform="translate(-135.185 -98.916)" fill="#fff"/>
      <path id="Path_40" data-name="Path 40" d="M91.25,142.1c1.247-.007,2.5,0,3.743,0q0,.538,0,1.077c-.466,0-.932,0-1.4,0A12.2,12.2,0,0,0,91.25,142.1Z" transform="translate(-83.796 -128.739)" fill="#fff"/>
      <path id="Path_41" data-name="Path 41" d="M147.213,142.1h1.161q0,.538,0,1.077h-1.161Q147.212,142.642,147.213,142.1Z" transform="translate(-135.187 -128.743)" fill="#fff"/>
    </g>
  </g>
</svg>
