<svg xmlns="http://www.w3.org/2000/svg" width="110" height="88.284" viewBox="0 0 110 88.284">
  <g id="Group_5711" data-name="Group 5711" transform="translate(-84 -21.716)">
    <path id="Path_4629" data-name="Path 4629" d="M130.844,64.8a18.49,18.49,0,0,0-31.95-7.306,17.866,17.866,0,0,1-14.338,6.1h-.2A12.362,12.362,0,0,0,71.9,75.188,12.19,12.19,0,0,0,84.09,88.052a11.7,11.7,0,0,0,4.355-.8,27.011,27.011,0,0,1,18.358-.268,18.916,18.916,0,0,0,6.164,1.073A17.591,17.591,0,0,0,120,86.646a12.657,12.657,0,0,0,6.164,1.408,12.37,12.37,0,0,0,11.726-12.4,12.137,12.137,0,0,0-7.05-10.852Z" transform="translate(37.848 -21.675)" fill="#e6aa55"/>
    <g id="Group_178" data-name="Group 178" transform="translate(112.621 32.276)">
      <path id="Path_4630" data-name="Path 4630" d="M82.1,74.191A8.18,8.18,0,0,0,78.743,76a8.5,8.5,0,0,0-2.144,3.15,6.336,6.336,0,0,0-.2,3.685,18.9,18.9,0,0,1,1.541-3.083,10.381,10.381,0,0,1,2.077-2.412,11.4,11.4,0,0,1,2.613-1.809,14,14,0,0,1,3.217-1.274A7.133,7.133,0,0,0,82.1,74.191Z" transform="translate(-76.217 -61.532)" fill="#fff"/>
      <path id="Path_4631" data-name="Path 4631" d="M117.536,55.932a13.358,13.358,0,0,0-5.227,3.083c-.335.335-.736.736-1.073,1.14l-.937,1.073c-.6.669-1.274,1.341-1.943,2.01a40.768,40.768,0,0,1-4.556,3.485,14.423,14.423,0,0,0,5.428-2.278,16,16,0,0,0,2.345-1.876,14.336,14.336,0,0,0,1-1.073,6.209,6.209,0,0,1,.937-.937A19.067,19.067,0,0,1,118,57.475a23.907,23.907,0,0,1,5.361-1.742A10.21,10.21,0,0,0,117.536,55.932Z" transform="translate(-85.318 -55.402)" fill="#fff"/>
    </g>
    <path id="Path_4632" data-name="Path 4632" d="M130.784,105.033a11.954,11.954,0,0,1-6.164-1.408,18.276,18.276,0,0,1-13.19.335,26.609,26.609,0,0,0-18.358.268,11.7,11.7,0,0,1-4.355.8A13.451,13.451,0,0,1,85.9,104.7l1.341,8.509H131.8l1.341-8.509A14.121,14.121,0,0,1,130.784,105.033Z" transform="translate(33.213 -38.658)" fill="#e6aa55"/>
    <path id="Path_4633" data-name="Path 4633" d="M84.016,94.549a11.7,11.7,0,0,0,4.355-.8,27.011,27.011,0,0,1,18.358-.268,18.916,18.916,0,0,0,6.164,1.073,17.591,17.591,0,0,0,7.036-1.408,12.657,12.657,0,0,0,6.164,1.408,12.37,12.37,0,0,0,11.726-12.4,12.206,12.206,0,0,0-7.036-10.854c-.067-.134-.067-.268-.134-.394a30.367,30.367,0,0,0-3.485-.2A12.45,12.45,0,0,0,121,72.313l-2.144,1.207s11.324-.2,12.06,7.572c.87,9.381-5.294,8.777-5.294,8.777l2.479-4.69s-7.438,5.629-13.736,5.495-9.716-3.544-16.281-2.679l1.809-5.227S94.6,90.338,88.3,90.338c0,0-7.706,2.613-12.864-2.546a10.472,10.472,0,0,1-3.347-7.839,6.75,6.75,0,0,0-.2,1.675A12.155,12.155,0,0,0,84.016,94.549Z" transform="translate(37.84 -28.174)" fill="#e6aa55" opacity="0.7"/>
    <path id="Path_4634" data-name="Path 4634" d="M130.784,105.033a11.954,11.954,0,0,1-6.164-1.408,18.276,18.276,0,0,1-13.19.335,26.609,26.609,0,0,0-18.358.268,11.7,11.7,0,0,1-4.355.8A13.451,13.451,0,0,1,85.9,104.7l.536,3.544a12.531,12.531,0,0,0,2.278.2,12.815,12.815,0,0,0,4.556-.87,25.682,25.682,0,0,1,18.158-.2,19.43,19.43,0,0,0,4.355.937v.669H104.994a.938.938,0,0,0,0,1.876h8.643A2.166,2.166,0,0,1,115.78,113h16.014l.335-2.144.268-1.876.134-.8h0l.535-3.544a8.55,8.55,0,0,1-2.282.4Z" transform="translate(33.213 -38.658)" fill="#e6aa55" opacity="0.7"/>
    <path id="Path_4635" data-name="Path 4635" d="M152.31,64.49A18.668,18.668,0,0,0,137.3,51.3l.134.2s9.381,3.886,9.381,12.529a24.62,24.62,0,0,1,5.495.465Z" transform="translate(16.25 -21.775)" fill="#e6aa55" opacity="0.7"/>
    <path id="Path_4636" data-name="Path 4636" d="M138.33,75.1a13.171,13.171,0,0,0-7.17-11.525,19.455,19.455,0,0,0-33.5-7.237,16.758,16.758,0,0,1-13.6,5.768h-.2A13.429,13.429,0,0,0,70.394,74.631a12.944,12.944,0,0,0,3.619,9.783,13.584,13.584,0,0,0,5.9,3.619l1.341,8.643h46.159l1.341-8.71A13.326,13.326,0,0,0,138.33,75.1ZM126.806,88.363l-.335,2.077h-26.6a.938.938,0,0,0,0,1.876H126.2l-.394,2.412H82.852l-1-6.365h.067c.134,0,.335.067.469.067a12.928,12.928,0,0,0,2.278,0h.067a12.8,12.8,0,0,0,2.211-.394c.067,0,.134-.067.2-.067a3.873,3.873,0,0,0,.937-.335,21.011,21.011,0,0,0,2.679-.87,25.174,25.174,0,0,1,15.077.6,19.451,19.451,0,0,0,6.5,1.073,21.065,21.065,0,0,0,7.036-1.274,13.642,13.642,0,0,0,1.475.6,13.223,13.223,0,0,0,3.953.669h.8a3.449,3.449,0,0,0,1.213-.075Zm1.14-2.077-.2.067c-.335.067-.669.134-1.073.2a5.417,5.417,0,0,1-1.073.067h0a11.371,11.371,0,0,1-3.685-.469,15.141,15.141,0,0,0,6.3-6.967.933.933,0,1,0-1.742-.669,12.425,12.425,0,0,1-6.9,6.633h0l-.394.134a17.585,17.585,0,0,1-6.694,1.341,17.2,17.2,0,0,1-5.829-1.006c-.394-.134-.736-.268-1.14-.394a.6.6,0,0,0-.335-.067l-.8-.2c-.134-.067-.268-.067-.394-.134-.268-.067-.469-.134-.736-.2-.134,0-.335-.067-.469-.067-.2-.067-.469-.067-.669-.134-.134,0-.335-.067-.469-.067-.2,0-.469-.067-.669-.067s-.335-.067-.536-.067-.469-.067-.669-.067h-.535a2.28,2.28,0,0,1-.669-.067H96.052a1.474,1.474,0,0,0-.535.067,12.309,12.309,0,0,0,4.623-7.5.948.948,0,0,0-1.876-.268c0,.067-.8,5.7-8.04,8.576-.134,0-.2.067-.335.067a3.777,3.777,0,0,0-.8.268c-.134.067-.268.067-.394.134l-1.207.394a4.329,4.329,0,0,1-.87.268c-.067,0-.134.067-.2.067-.268.067-.469.134-.736.2a.246.246,0,0,0-.2.067c-.268.067-.535.067-.8.134h-.134c-.335,0-.669.067-1,.067h0a5.074,5.074,0,0,1-1.006-.067c-.2,0-.394-.067-.6-.067a.394.394,0,0,1-.268-.067c-.268-.067-.469-.067-.736-.134H80.8A11.519,11.519,0,0,1,75.3,83.069a11.269,11.269,0,0,1,8.375-19.03h.2A18.856,18.856,0,0,0,98.95,57.607,17.61,17.61,0,0,1,128.833,62.9a13.565,13.565,0,0,0-11.324,2.756A.951.951,0,0,0,117.442,67a1.067,1.067,0,0,0,.669.335.728.728,0,0,0,.6-.268,10.48,10.48,0,0,1,17.555,8.04,11.127,11.127,0,0,1-8.326,11.18Z" transform="translate(38.336 -21.185)"/>
    <path id="Path_4637" data-name="Path 4637" d="M89.962,53.8a10.377,10.377,0,0,1-8.91,4.422c-.8,0-1.608.134-2.345.2a12.482,12.482,0,0,0-2.278.469,17.417,17.417,0,0,0-4.355,1.742,20.853,20.853,0,0,0-7.036,6.231,22.556,22.556,0,0,0-3.752,8.91,16.907,16.907,0,0,1,2.42-9.777,18.808,18.808,0,0,1,3.217-4.087,21.326,21.326,0,0,1,4.221-3.083,19.542,19.542,0,0,1,10.05-2.211A11.247,11.247,0,0,0,89.962,53.8Z" transform="translate(41.342 -22.603)" fill="#fff"/>
    <path id="Path_4638" data-name="Path 4638" d="M161.764,71.783a20.672,20.672,0,0,0-2.813-8.442,19.158,19.158,0,0,0-5.963-6.3l-.2-.134-.134-.268a27.86,27.86,0,0,0-4.89-7.5,26.67,26.67,0,0,0-15.813-8.174,28.6,28.6,0,0,0-9.253.2,21.778,21.778,0,0,1,4.556-1.207c.8-.134,1.608-.2,2.345-.268.8,0,1.608-.067,2.412,0a23.605,23.605,0,0,1,9.314,2.345,27.365,27.365,0,0,1,7.839,5.7,25.683,25.683,0,0,1,5.093,8.241l-.335-.394a18.963,18.963,0,0,1,5.963,7.237,16.734,16.734,0,0,1,1.876,8.975Z" transform="translate(21.066 -17.937)" fill="#fff"/>
    <path id="Path_4639" data-name="Path 4639" d="M99.308,143.618c2.01,0,3.544-1.14,3.544-2.546V140.2H91v.87c0,1.408,1.608,2.546,3.544,2.546Z" transform="translate(31.525 -51.112)" fill="#fff"/>
    <path id="Path_4640" data-name="Path 4640" d="M142.175,143.618c2.01,0,3.544-1.14,3.544-2.546V140.2H133.8v.87c0,1.408,1.608,2.546,3.544,2.546Z" transform="translate(17.404 -51.112)" fill="#fff"/>
    <path id="Path_4641" data-name="Path 4641" d="M120.948,127.4H101.655c-5.495,0-10.05,2.88-10.653,6.566h40.6C131,130.28,126.435,127.4,120.948,127.4Z" transform="translate(31.527 -46.888)" fill="#fff"/>
    <text id="Chef_On_Dial...." data-name="Chef On Dial...." transform="translate(84 107)" fill="#fff" font-size="16" font-family="Arial"><tspan x="0" y="0">Chef On Dial....</tspan></text>
  </g>
</svg>
