<svg xmlns="http://www.w3.org/2000/svg" xmlns:xlink="http://www.w3.org/1999/xlink" width="120.391" height="45.067" viewBox="0 0 120.391 45.067"><defs><style>.a{fill:#1e2648;}.b{fill:none;}.c{fill:#fff;}.d{clip-path:url(#a);}.e{fill:#fdfdfd;}.f{fill:#fcfcfc;}.g{fill:#f9f9fa;}.h{fill:#ececef;}.i{clip-path:url(#b);}</style><clipPath id="a"><path class="a" d="M37.76,10.909h-7.49a.5.5,0,0,0-.216.361,2.61,2.61,0,0,0,.07,1.114q.888,3.533,1.783,7.065,1.474,5.835,2.949,11.671l2.98,11.791q1.334,5.284,2.672,10.572c.137.538.294,1.073.466,1.6a1.631,1.631,0,0,0,.477.743.563.563,0,0,0,.318.137h7.215a.282.282,0,0,0,.294-.2c.032-.08.054-.159.081-.244v-.549c-.033-.159-.06-.331-.1-.495l-1.592-6.295L44.825,36.941,41.85,25.163q-1.409-5.571-2.816-11.141c-.159-.659-.318-1.321-.525-1.97A1.969,1.969,0,0,0,37.76,10.909Z" transform="translate(-30.023 -10.909)"/></clipPath><clipPath id="b"><path class="b" d="M91.065,56h-7.49a.5.5,0,0,1-.218-.363,2.634,2.634,0,0,1,.072-1.114q.888-3.533,1.783-7.065l2.948-11.671,2.98-11.792,2.674-10.568q.205-.81.466-1.6a1.627,1.627,0,0,1,.477-.742.541.541,0,0,1,.326-.137H102.3a.282.282,0,0,1,.294.194c.032.08.054.159.081.244v.549c-.033.159-.06.331-.1.493l-1.592,6.295L98.138,29.963q-1.49,5.889-2.976,11.778L92.348,52.882c-.167.659-.328,1.321-.527,1.97A2,2,0,0,1,91.065,56Z" transform="translate(-83.327 -10.94)"/></clipPath></defs><g transform="translate(-1611.901 145.071)"><g transform="translate(1645.81 -128.588)"><path class="c" d="M132.513,22H119.165a.536.536,0,0,0-.565.49V49.637a.536.536,0,0,0,.565.49h13.348a.536.536,0,0,0,.565-.49v-3.9a.536.536,0,0,0-.565-.49H124.2V38.257h7.188a.536.536,0,0,0,.565-.49V34.115a.536.536,0,0,0-.565-.49H124.2V26.632h8.317a.536.536,0,0,0,.565-.49V22.49a.554.554,0,0,0-.565-.49Z" transform="translate(-118.6 -21.772)"/><path class="c" d="M198.9,37.533a6.5,6.5,0,0,0,2.849-2.717,9.471,9.471,0,0,0,.9-4.276c0-5.612-2.849-8.44-8.471-8.44h-7.213a.536.536,0,0,0-.565.49V49.737a.536.536,0,0,0,.565.49h4.492a.536.536,0,0,0,.565-.49V38.6h1.72L197.8,49.848a.554.554,0,0,0,.539.334h4.749a.58.58,0,0,0,.462-.2.467.467,0,0,0,.077-.445Zm-6.88-10.823h1.771a3.372,3.372,0,0,1,2.7.846,2.811,2.811,0,0,1,.436,1.158,11.819,11.819,0,0,1,0,3.474,3.07,3.07,0,0,1-.411,1.136,1.812,1.812,0,0,1-.873.624,4.507,4.507,0,0,1-1.643.245h-2V26.71Z" transform="translate(-168.996 -21.849)"/><path class="c" d="M272.336,22H259.475a.536.536,0,0,0-.565.49h0v3.652a.536.536,0,0,0,.565.49h7.213l-8.163,19.4a.332.332,0,0,0-.026.156v3.43a.536.536,0,0,0,.565.49h13.323a.536.536,0,0,0,.565-.49V45.963a.536.536,0,0,0-.565-.49h-7.855l8.343-19.753a.381.381,0,0,0,.026-.178V22.49a.52.52,0,0,0-.565-.49Z" transform="translate(-222.588 -21.772)"/><path class="c" d="M339.613,22H326.265a.536.536,0,0,0-.565.49h0V49.637a.536.536,0,0,0,.565.49h13.348a.536.536,0,0,0,.565-.49v-3.9a.536.536,0,0,0-.565-.49H331.3V38.257h7.188a.536.536,0,0,0,.565-.49V34.115a.536.536,0,0,0-.565-.49H331.3V26.632h8.317a.536.536,0,0,0,.565-.49h0V22.49a.536.536,0,0,0-.565-.49Z" transform="translate(-272.538 -21.772)"/><path class="c" d="M408.022,24.989a6.977,6.977,0,0,0-1.874-2.272,9.142,9.142,0,0,0-2.593-1.292,9.472,9.472,0,0,0-5.776,0,7.956,7.956,0,0,0-2.567,1.314,6.677,6.677,0,0,0-1.9,2.249,6.567,6.567,0,0,0-.719,3.1V42.427a6.444,6.444,0,0,0,.719,3.14,6.679,6.679,0,0,0,1.874,2.182,7.918,7.918,0,0,0,2.593,1.358,9.472,9.472,0,0,0,5.776,0,8.6,8.6,0,0,0,2.618-1.358,6.6,6.6,0,0,0,1.848-2.182,6.745,6.745,0,0,0,.719-3.14V28.085A6.568,6.568,0,0,0,408.022,24.989Zm-9.139,1.381a3.122,3.122,0,0,1,3.543,0,1.956,1.956,0,0,1,.719,1.715V42.427a1.956,1.956,0,0,1-.719,1.715,3.122,3.122,0,0,1-3.543,0,1.956,1.956,0,0,1-.719-1.715V28.085a2.1,2.1,0,0,1,.719-1.715Z" transform="translate(-322.259 -20.975)"/></g><g transform="translate(1611.901 -145.071)"><g transform="translate(0 0)"><path class="a" d="M37.76,10.909h-7.49a.5.5,0,0,0-.216.361,2.61,2.61,0,0,0,.07,1.114q.888,3.533,1.783,7.065,1.474,5.835,2.949,11.671l2.98,11.791q1.334,5.284,2.672,10.572c.137.538.294,1.073.466,1.6a1.631,1.631,0,0,0,.477.743.563.563,0,0,0,.318.137h7.215a.282.282,0,0,0,.294-.2c.032-.08.054-.159.081-.244v-.549c-.033-.159-.06-.331-.1-.495l-1.592-6.295L44.825,36.941,41.85,25.163q-1.409-5.571-2.816-11.141c-.159-.659-.318-1.321-.525-1.97A1.969,1.969,0,0,0,37.76,10.909Z" transform="translate(-30.023 -10.905)"/><path class="c" d="M37.76,10.909h-7.49a.5.5,0,0,0-.216.361,2.61,2.61,0,0,0,.07,1.114q.888,3.533,1.783,7.065,1.474,5.835,2.949,11.671l2.98,11.791q1.334,5.284,2.672,10.572c.137.538.294,1.073.466,1.6a1.631,1.631,0,0,0,.477.743.563.563,0,0,0,.318.137h7.215a.282.282,0,0,0,.294-.2c.032-.08.054-.159.081-.244v-.549c-.033-.159-.06-.331-.1-.495l-1.592-6.295L44.825,36.941,41.85,25.163q-1.409-5.571-2.816-11.141c-.159-.659-.318-1.321-.525-1.97A1.969,1.969,0,0,0,37.76,10.909Z" transform="translate(-30.023 -10.905)"/><g class="d" transform="translate(0 0.004)"><path class="e" d="M60.226,53.925a.966.966,0,0,1,.021-.15,18.313,18.313,0,0,1,.458-1.91l.506-1.986L62.225,45.9l1.012-3.979c.129-.5.259-1.007.385-1.51l2.965-11.619q1.552-6.086,3.105-12.171c.5-1.961.993-3.925,1.507-5.889a6.539,6.539,0,0,1,.415-.985,1.466,1.466,0,0,1,.25-.334.517.517,0,0,1,.43-.188h7.288a.368.368,0,0,1,.318.15.636.636,0,0,1,.083.232,2.962,2.962,0,0,1-.123,1.3c-.111.419-.215.839-.318,1.261q-.333,1.315-.668,2.629-1.495,5.864-2.992,11.725-1.561,6.14-3.128,12.279L69.572,51.293c-.194.762-.387,1.526-.594,2.286a4.209,4.209,0,0,1-.253.637,1.592,1.592,0,0,1-.586.708H60.818c-.11,0-.3.037-.392-.033a.365.365,0,0,1-.092-.116A1.391,1.391,0,0,1,60.226,53.925Z" transform="translate(-53.716 -9.586)"/><path class="c" d="M62.555,53.922a.966.966,0,0,1,.021-.15,18.314,18.314,0,0,1,.458-1.91l.506-1.986L64.554,45.9l1.014-3.979c.127-.5.258-1.007.385-1.51q1.48-5.809,2.964-11.619,1.552-6.066,3.1-12.152c.5-1.961.993-3.925,1.507-5.889a6.43,6.43,0,0,1,.417-1.011,1.459,1.459,0,0,1,.248-.334.519.519,0,0,1,.439-.181h7.29a.363.363,0,0,1,.318.15.608.608,0,0,1,.083.232,2.962,2.962,0,0,1-.116,1.3c-.111.419-.215.839-.318,1.261q-.331,1.315-.668,2.629-1.495,5.864-2.992,11.725-1.566,6.14-3.131,12.279L71.906,51.287c-.194.762-.387,1.526-.594,2.286a4.208,4.208,0,0,1-.253.637,1.592,1.592,0,0,1-.586.708H63.152c-.11,0-.3.037-.392-.033a.365.365,0,0,1-.092-.116A1.38,1.38,0,0,1,62.555,53.922Z" transform="translate(-55.546 -9.582)"/><path class="f" d="M64.87,53.929a.966.966,0,0,1,.021-.15,18.312,18.312,0,0,1,.458-1.91l.506-1.986L66.869,45.9l1.014-3.979c.127-.5.258-1.007.385-1.51q1.48-5.809,2.964-11.619,1.552-6.086,3.105-12.171c.5-1.961.993-3.925,1.507-5.889a6.428,6.428,0,0,1,.417-1.011,1.459,1.459,0,0,1,.248-.334.52.52,0,0,1,.433-.159h7.29a.363.363,0,0,1,.318.15.608.608,0,0,1,.083.232,2.962,2.962,0,0,1-.123,1.3c-.111.419-.213.839-.318,1.261q-.334,1.324-.675,2.631-1.495,5.864-2.992,11.725-1.566,6.14-3.131,12.279L74.211,51.3c-.194.762-.387,1.526-.594,2.286a3.79,3.79,0,0,1-.253.637,1.592,1.592,0,0,1-.584.708H65.459c-.11,0-.3.037-.392-.033a.364.364,0,0,1-.092-.116,1.385,1.385,0,0,1-.105-.853Z" transform="translate(-57.361 -9.59)"/><path class="c" d="M67.2,53.931a.967.967,0,0,1,.021-.15,18.314,18.314,0,0,1,.458-1.91l.5-1.978,1.014-3.979L70.2,41.935c.127-.5.258-1.007.385-1.51q1.48-5.808,2.964-11.619,1.555-6.085,3.108-12.168c.5-1.961.993-3.925,1.507-5.889a6.428,6.428,0,0,1,.417-1.011A1.459,1.459,0,0,1,78.83,9.4a.52.52,0,0,1,.438-.17h7.29a.363.363,0,0,1,.318.15.637.637,0,0,1,.084.232,2.963,2.963,0,0,1-.124,1.3c-.111.419-.213.839-.318,1.261Q86.18,13.5,85.843,14.8q-1.495,5.864-2.992,11.725-1.566,6.14-3.131,12.279L76.537,51.3c-.194.762-.387,1.526-.594,2.286a3.789,3.789,0,0,1-.253.637,1.592,1.592,0,0,1-.584.708H67.784c-.11,0-.3.037-.392-.033a.364.364,0,0,1-.092-.116,1.385,1.385,0,0,1-.105-.853Z" transform="translate(-59.186 -9.592)"/><path class="g" d="M69.532,53.911a.966.966,0,0,1,.021-.15,18.051,18.051,0,0,1,.457-1.9l.509-1.983L71.532,45.9l1.014-3.979c.129-.5.258-1.009.385-1.51L75.9,28.8Q77.447,22.707,79,16.618c.5-1.961.993-3.925,1.507-5.889a6.429,6.429,0,0,1,.417-1.011,1.507,1.507,0,0,1,.248-.334.52.52,0,0,1,.433-.177h7.288a.363.363,0,0,1,.318.15.637.637,0,0,1,.084.232,2.963,2.963,0,0,1-.124,1.3c-.111.419-.213.839-.318,1.261q-.333,1.315-.668,2.629Q86.691,20.641,85.193,26.5q-1.566,6.14-3.131,12.279L78.879,51.277c-.194.762-.387,1.526-.594,2.286a3.789,3.789,0,0,1-.253.637,1.592,1.592,0,0,1-.584.708H70.127c-.11,0-.3.037-.392-.033a.364.364,0,0,1-.092-.116A1.391,1.391,0,0,1,69.532,53.911Z" transform="translate(-61.023 -9.571)"/><path class="c" d="M71.856,53.928a1.205,1.205,0,0,1,.021-.15,18.727,18.727,0,0,1,.458-1.91l.506-1.986q.508-1.986,1.014-3.979t1.014-3.979c.129-.5.258-1.009.385-1.51q1.483-5.809,2.964-11.619,1.552-6.086,3.105-12.171c.5-1.961.993-3.925,1.507-5.889a6.431,6.431,0,0,1,.417-1.011A1.546,1.546,0,0,1,83.5,9.39a.524.524,0,0,1,.438-.159h7.288a.363.363,0,0,1,.318.15.637.637,0,0,1,.084.232,2.964,2.964,0,0,1-.124,1.3c-.111.419-.213.839-.318,1.261q-.333,1.315-.668,2.629-1.495,5.864-2.992,11.725Q85.955,32.665,84.39,38.8L81.207,51.3c-.2.762-.388,1.526-.6,2.286a3.789,3.789,0,0,1-.253.637,1.592,1.592,0,0,1-.584.708H72.453c-.11,0-.3.037-.392-.033a.339.339,0,0,1-.091-.116A1.378,1.378,0,0,1,71.856,53.928Z" transform="translate(-62.847 -9.589)"/><path class="h" d="M74.176,53.923a1.205,1.205,0,0,1,.021-.15,18.724,18.724,0,0,1,.458-1.91q.253-.993.508-1.986L76.176,45.9l1.014-3.979c.129-.5.258-1.009.385-1.51L80.538,28.79q1.552-6.066,3.105-12.152c.5-1.961.993-3.925,1.509-5.889a6.276,6.276,0,0,1,.415-1.011,1.546,1.546,0,0,1,.248-.334.522.522,0,0,1,.435-.181h7.288a.363.363,0,0,1,.318.15.636.636,0,0,1,.084.232,2.964,2.964,0,0,1-.124,1.3c-.111.419-.213.839-.318,1.261q-.333,1.315-.667,2.629L89.838,26.517,86.706,38.8,83.522,51.291c-.2.762-.388,1.526-.6,2.286a3.789,3.789,0,0,1-.253.637,1.592,1.592,0,0,1-.584.708H74.769c-.11,0-.3.037-.392-.033a.339.339,0,0,1-.091-.116A1.367,1.367,0,0,1,74.176,53.923Z" transform="translate(-64.668 -9.584)"/><path class="c" d="M76.478,53.926a1.205,1.205,0,0,1,.021-.15,18.736,18.736,0,0,1,.46-1.91l.506-1.986L78.477,45.9q.508-1.986,1.014-3.979c.129-.5.258-1.009.385-1.51L82.84,28.792q1.555-6.086,3.105-12.171c.5-1.961.995-3.925,1.509-5.889a6.111,6.111,0,0,1,.417-.985,1.545,1.545,0,0,1,.248-.334.522.522,0,0,1,.43-.188h7.288a.368.368,0,0,1,.318.15.665.665,0,0,1,.083.232,2.964,2.964,0,0,1-.124,1.3c-.111.419-.213.839-.318,1.261q-.333,1.315-.668,2.629-1.495,5.864-2.992,11.725L89,38.8,85.819,51.293c-.2.762-.388,1.526-.6,2.286a3.79,3.79,0,0,1-.253.637,1.591,1.591,0,0,1-.584.708H77.048c-.11,0-.3.037-.39-.033a.364.364,0,0,1-.092-.116A1.375,1.375,0,0,1,76.478,53.926Z" transform="translate(-66.47 -9.586)"/><path class="c" d="M78.84,53.922a1.207,1.207,0,0,1,.021-.15,18.735,18.735,0,0,1,.46-1.91l.506-1.986L80.839,45.9q.508-1.986,1.014-3.979c.129-.5.258-1.009.385-1.51Q83.722,34.6,85.2,28.789q1.553-6.066,3.1-12.152c.5-1.961.993-3.925,1.507-5.889a6.424,6.424,0,0,1,.415-1.011,1.466,1.466,0,0,1,.25-.334.517.517,0,0,1,.438-.181H98.2a.368.368,0,0,1,.318.15A.665.665,0,0,1,98.6,9.6a2.962,2.962,0,0,1-.113,1.3c-.113.419-.215.839-.318,1.261q-.333,1.315-.668,2.629-1.495,5.864-2.992,11.725-1.566,6.14-3.131,12.279L88.194,51.288c-.2.762-.388,1.526-.6,2.286a3.789,3.789,0,0,1-.253.637,1.592,1.592,0,0,1-.584.708H79.44c-.11,0-.3.037-.392-.033a.365.365,0,0,1-.092-.116,1.4,1.4,0,0,1-.116-.847Z" transform="translate(-68.332 -9.582)"/><path class="c" d="M81.156,53.928l.019-.15a18.737,18.737,0,0,1,.46-1.91l.506-1.986L83.155,45.9l1.012-3.979c.129-.5.259-1.007.385-1.51l2.964-11.619q1.555-6.086,3.107-12.171c.5-1.961.993-3.925,1.507-5.889a6.424,6.424,0,0,1,.415-1.011,1.466,1.466,0,0,1,.25-.334.516.516,0,0,1,.433-.159h7.288a.368.368,0,0,1,.318.15.637.637,0,0,1,.083.232,2.962,2.962,0,0,1-.123,1.292c-.113.419-.215.839-.318,1.261q-.331,1.324-.673,2.631-1.495,5.864-2.992,11.725Q95.245,32.663,93.68,38.8L90.5,51.3c-.194.762-.387,1.526-.6,2.286a3.979,3.979,0,0,1-.251.637,1.592,1.592,0,0,1-.586.708H81.743c-.11,0-.3.037-.392-.033a.364.364,0,0,1-.092-.116A1.383,1.383,0,0,1,81.156,53.928Z" transform="translate(-70.147 -9.589)"/></g><path class="c" d="M91.065,56h-7.49a.5.5,0,0,1-.218-.363,2.634,2.634,0,0,1,.072-1.114q.888-3.533,1.783-7.065l2.948-11.671,2.98-11.792,2.674-10.568q.205-.81.466-1.6a1.627,1.627,0,0,1,.477-.742.541.541,0,0,1,.326-.137H102.3a.282.282,0,0,1,.294.194c.032.08.054.159.081.244v.549c-.033.159-.06.331-.1.493l-1.592,6.295L98.138,29.963q-1.49,5.889-2.976,11.778L92.348,52.882c-.167.659-.328,1.321-.527,1.97A2,2,0,0,1,91.065,56Z" transform="translate(-71.872 -10.93)"/><g class="i" transform="translate(11.456 0.01)"><path class="c" d="M102.141,25.277a1.507,1.507,0,0,0,.016-.6.4.4,0,0,0-.449-.341H83.18a.45.45,0,0,0-.477.422.319.319,0,0,0,0,.056,1.46,1.46,0,0,0,.046.439q.907,3.371,1.822,6.739a.746.746,0,0,0,.783.606h14.88l.076-.3C100.9,29.957,101.535,27.617,102.141,25.277Z" transform="translate(-82.836 -21.459)"/><path class="c" d="M102.142,24.07a1.507,1.507,0,0,0,.016-.6.4.4,0,0,0-.449-.341H83.181a.45.45,0,0,0-.477.422.319.319,0,0,0,0,.056,1.46,1.46,0,0,0,.051.439q.907,3.369,1.822,6.737a.742.742,0,0,0,.783.606h14.88l.076-.3C100.9,28.749,101.536,26.413,102.142,24.07Z" transform="translate(-82.837 -20.512)"/><path class="c" d="M102.141,22.824a1.5,1.5,0,0,0,.016-.6.4.4,0,0,0-.447-.342H83.18a.45.45,0,0,0-.477.425.289.289,0,0,0,0,.053,1.448,1.448,0,0,0,.046.438q.907,3.371,1.822,6.739a.746.746,0,0,0,.783.606h14.88l.076-.3C100.9,27.509,101.535,25.171,102.141,22.824Z" transform="translate(-82.836 -19.531)"/><path class="c" d="M102.141,21.648a1.507,1.507,0,0,0,.016-.6.4.4,0,0,0-.449-.341H83.18a.45.45,0,0,0-.477.422.319.319,0,0,0,0,.056,1.46,1.46,0,0,0,.046.439q.907,3.369,1.822,6.737a.742.742,0,0,0,.783.606h14.88l.076-.3C100.9,26.328,101.535,23.991,102.141,21.648Z" transform="translate(-82.836 -18.61)"/><path class="c" d="M102.141,20.424a1.5,1.5,0,0,0,.016-.6.4.4,0,0,0-.447-.342H83.18a.45.45,0,0,0-.477.425.289.289,0,0,0,0,.053,1.448,1.448,0,0,0,.046.438q.907,3.371,1.822,6.739a.746.746,0,0,0,.783.606h14.88l.076-.3C100.9,25.105,101.535,22.777,102.141,20.424Z" transform="translate(-82.836 -17.647)"/><path class="c" d="M102.141,19.227a1.507,1.507,0,0,0,.016-.6.4.4,0,0,0-.449-.341H83.18a.45.45,0,0,0-.477.422.319.319,0,0,0,0,.056,1.46,1.46,0,0,0,.046.439q.907,3.371,1.822,6.737a.745.745,0,0,0,.783.608h14.88l.076-.3C100.9,23.908,101.535,21.57,102.141,19.227Z" transform="translate(-82.836 -16.709)"/><path class="c" d="M102.141,18.049a1.507,1.507,0,0,0,.016-.6.4.4,0,0,0-.449-.341H83.18a.45.45,0,0,0-.477.422.319.319,0,0,0,0,.056,1.46,1.46,0,0,0,.046.439q.907,3.369,1.822,6.737a.742.742,0,0,0,.783.6h14.88l.076-.3C100.9,22.722,101.535,20.386,102.141,18.049Z" transform="translate(-82.836 -15.785)"/><path class="c" d="M102.141,16.812a1.5,1.5,0,0,0,.016-.6.4.4,0,0,0-.449-.337H83.18a.45.45,0,0,0-.477.425.289.289,0,0,0,0,.053,1.448,1.448,0,0,0,.046.438q.907,3.371,1.822,6.739a.746.746,0,0,0,.783.606h14.88l.076-.3C100.9,21.493,101.535,19.149,102.141,16.812Z" transform="translate(-82.836 -14.815)"/><path class="c" d="M102.141,15.6a1.507,1.507,0,0,0,.016-.6.4.4,0,0,0-.449-.341H83.18a.45.45,0,0,0-.477.422.319.319,0,0,0,0,.056,1.46,1.46,0,0,0,.046.439q.907,3.369,1.822,6.737a.742.742,0,0,0,.783.606h14.88l.076-.3C100.9,20.277,101.535,17.949,102.141,15.6Z" transform="translate(-82.836 -13.86)"/><path class="c" d="M102.141,14.374a1.5,1.5,0,0,0,.016-.6.4.4,0,0,0-.447-.342H83.18a.45.45,0,0,0-.477.425.289.289,0,0,0,0,.053,1.448,1.448,0,0,0,.046.438q.907,3.371,1.822,6.739a.746.746,0,0,0,.783.606h14.88l.076-.3C100.9,19.055,101.535,16.718,102.141,14.374Z" transform="translate(-82.836 -12.897)"/></g><path class="c" d="M82.812,11.666v-.357c.014-.037.03-.073.043-.11a.414.414,0,0,1,.439-.3h18.611a.4.4,0,0,1,.447.339h0a1.537,1.537,0,0,1-.016.6c-.568,2.209-1.152,4.415-1.722,6.623a.955.955,0,0,1-.571.719H85.228a.969.969,0,0,1-.541-.659l-1.466-5.373C83.089,12.651,82.951,12.159,82.812,11.666Z" transform="translate(-71.467 -10.892)"/></g></g></g></svg>