<svg xmlns="http://www.w3.org/2000/svg" width="22" height="22" viewBox="0 0 22 22">
  <g id="Group_5687" data-name="Group 5687" transform="translate(-53 -568)">
    <rect id="Rectangle_4626" data-name="Rectangle 4626" width="22" height="22" transform="translate(53 568)" fill="#fff" opacity="0"/>
    <g id="Layer_x0020_1" transform="translate(56 569.967)">
      <g id="_521249848" transform="translate(0 0.169)">
        <rect id="Rectangle_6" data-name="Rectangle 6" width="17" height="17" rx="3" transform="translate(0 -0.136)" fill="#fff"/>
        <g id="Group_3" data-name="Group 3" transform="translate(3.611 3.407)">
          <path id="Path_7" data-name="Path 7" d="M29.29,85a1.412,1.412,0,0,1,1.418,1.29,1.431,1.431,0,0,1-1.418,1.418A1.412,1.412,0,0,1,28,86.29,1.387,1.387,0,0,1,29.29,85Z" transform="translate(-28 -77.65)"/>
          <path id="Path_8" data-name="Path 8" d="M28,55.934a4.683,4.683,0,0,1,3.353,1.419,5.156,5.156,0,0,1,1.29,3.353h1.934A6.633,6.633,0,0,0,28,54Z" transform="translate(-28 -50.647)"/>
          <path id="Path_9" data-name="Path 9" d="M28,29.934a8.09,8.09,0,0,1,8.124,8.124h1.934A10.071,10.071,0,0,0,28,28Z" transform="translate(-28 -28)"/>
        </g>
      </g>
    </g>
  </g>
</svg>
