<svg xmlns="http://www.w3.org/2000/svg" xmlns:xlink="http://www.w3.org/1999/xlink" width="121.966" height="36.199" viewBox="0 0 121.966 36.199">
  <defs>
    <clipPath id="clip-path">
      <path id="Path_17" data-name="Path 17" d="M29.218,22H23.294a.374.374,0,0,0-.169.282,1.845,1.845,0,0,0,.056.874c.48,1.861.931,3.723,1.411,5.613.79,3.074,1.551,6.177,2.341,9.251.79,3.131,1.551,6.233,2.341,9.364l2.116,8.377c.113.424.225.846.366,1.27a1.311,1.311,0,0,0,.366.593.507.507,0,0,0,.253.113H38.1a.215.215,0,0,0,.225-.169.523.523,0,0,0,.056-.2v-.424c-.028-.141-.056-.253-.084-.4l-1.27-4.992-2.254-8.911L32.4,33.312c-.733-2.934-1.495-5.9-2.228-8.828-.141-.536-.253-1.043-.424-1.551A1.154,1.154,0,0,0,29.218,22Z" transform="translate(-23.097 -22)" fill="#fff"/>
    </clipPath>
    <clipPath id="clip-path-2">
      <path id="Path_29" data-name="Path 29" d="M61.478,57.808H55.527a.374.374,0,0,1-.169-.282,2.294,2.294,0,0,1,.056-.874l1.41-5.613c.79-3.074,1.551-6.177,2.341-9.251l2.369-9.337,2.116-8.377c.113-.424.225-.846.366-1.27a1.311,1.311,0,0,1,.366-.593.507.507,0,0,1,.253-.113h5.725a.224.224,0,0,1,.225.141.523.523,0,0,1,.056.2v.424c-.028.141-.056.253-.084.4l-1.27,4.992L67.032,37.16,64.666,46.5c-.733,2.934-1.495,5.9-2.228,8.828-.141.536-.253,1.043-.424,1.551A1.378,1.378,0,0,1,61.478,57.808Z" transform="translate(-55.339 -22.099)" fill="#fff"/>
    </clipPath>
  </defs>
  <g id="Artboard_1_7" data-name="Artboard 1_7" transform="translate(-23.097 -20.975)">
    <path id="Path_1" data-name="Path 1" d="M133.885,22H119.221a.626.626,0,0,0-.621.621V57a.626.626,0,0,0,.621.621h14.664a.626.626,0,0,0,.621-.621V52.067a.626.626,0,0,0-.621-.621h-9.139V42.589h7.9a.626.626,0,0,0,.621-.621V37.343a.626.626,0,0,0-.621-.621h-7.9V27.867h9.139a.626.626,0,0,0,.621-.621V22.621a.645.645,0,0,0-.621-.621Z" transform="translate(-68.568 -0.735)" fill="#fff"/>
    <path id="Path_2" data-name="Path 2" d="M200.136,41.646a7.709,7.709,0,0,0,3.131-3.44,13.556,13.556,0,0,0,.987-5.415c0-7.106-3.131-10.69-9.308-10.69h-7.925a.626.626,0,0,0-.621.621V57.1a.626.626,0,0,0,.621.621h4.935a.626.626,0,0,0,.621-.621V43h1.889l4.457,14.243a.61.61,0,0,0,.593.424h5.218a.6.6,0,0,0,.508-.253.67.67,0,0,0,.084-.564Zm-7.559-13.708h1.947a3.418,3.418,0,0,1,2.962,1.073,3.907,3.907,0,0,1,.48,1.467,17.231,17.231,0,0,1,0,4.4,4.282,4.282,0,0,1-.452,1.439,2.027,2.027,0,0,1-.959.79,4.353,4.353,0,0,1-1.8.31h-2.2V27.939Z" transform="translate(-117.244 -0.807)" fill="#fff"/>
    <path id="Path_3" data-name="Path 3" d="M273.7,22H259.573a.626.626,0,0,0-.621.621h0v4.626a.626.626,0,0,0,.621.621H267.5l-8.97,24.569a.48.48,0,0,0-.028.2v4.344a.626.626,0,0,0,.621.621H273.76a.626.626,0,0,0,.621-.621V52.351a.626.626,0,0,0-.621-.621h-8.631L274.3,26.713a.551.551,0,0,0,.028-.225V22.621A.609.609,0,0,0,273.7,22Z" transform="translate(-169.009 -0.735)" fill="#fff"/>
    <path id="Path_4" data-name="Path 4" d="M340.985,22H326.321a.626.626,0,0,0-.621.621h0V57a.626.626,0,0,0,.621.621h14.664a.626.626,0,0,0,.621-.621V52.067a.626.626,0,0,0-.621-.621h-9.139V42.589h7.9a.626.626,0,0,0,.621-.621V37.343a.626.626,0,0,0-.621-.621h-7.9V27.867h9.139a.626.626,0,0,0,.621-.621h0V22.621A.626.626,0,0,0,340.985,22Z" transform="translate(-217.254 -0.735)" fill="#fff"/>
    <path id="Path_5" data-name="Path 5" d="M409.545,26.059a8.688,8.688,0,0,0-2.059-2.877,9.593,9.593,0,0,0-2.849-1.636,9.1,9.1,0,0,0-6.346,0,8.385,8.385,0,0,0-2.816,1.664,8.278,8.278,0,0,0-2.088,2.849,9.375,9.375,0,0,0-.79,3.92V48.143a9.2,9.2,0,0,0,.79,3.977,8.253,8.253,0,0,0,2.06,2.765,8.378,8.378,0,0,0,2.849,1.72,9.14,9.14,0,0,0,9.223-1.72,8.179,8.179,0,0,0,2.031-2.765,9.634,9.634,0,0,0,.79-3.977V29.98a9.376,9.376,0,0,0-.8-3.92ZM399.5,27.8a3.062,3.062,0,0,1,3.888,0,2.657,2.657,0,0,1,.79,2.172V48.143a2.657,2.657,0,0,1-.79,2.172,3.062,3.062,0,0,1-3.888,0,2.657,2.657,0,0,1-.79-2.172V29.98a2.852,2.852,0,0,1,.79-2.172Z" transform="translate(-265.279)" fill="#fff"/>
    <path id="Path_6" data-name="Path 6" d="M29.218,22H23.294a.374.374,0,0,0-.169.282,1.845,1.845,0,0,0,.056.874c.48,1.861.931,3.723,1.411,5.613.79,3.074,1.551,6.177,2.341,9.251.79,3.131,1.551,6.233,2.341,9.364l2.116,8.377c.113.424.225.846.366,1.27a1.311,1.311,0,0,0,.366.593.507.507,0,0,0,.253.113H38.1a.215.215,0,0,0,.225-.169.523.523,0,0,0,.056-.2v-.424c-.028-.141-.056-.253-.084-.4l-1.27-4.992-2.254-8.911L32.4,33.312c-.733-2.934-1.495-5.9-2.228-8.828-.141-.536-.253-1.043-.424-1.551A1.154,1.154,0,0,0,29.218,22Z" transform="translate(0 -0.735)" fill="#fff"/>
    <g id="Group_7" data-name="Group 7" transform="translate(23.097 21.265)">
      <g id="Group_6" data-name="Group 6" transform="translate(0 0)" clip-path="url(#clip-path)">
        <path id="Path_7" data-name="Path 7" d="M41.326,56.427v-.113a12.851,12.851,0,0,1,.366-1.495c.141-.536.282-1.043.4-1.579l.79-3.159c.253-1.043.536-2.088.79-3.159.113-.4.2-.79.31-1.185.79-3.074,1.551-6.149,2.341-9.223l2.51-9.646,1.189-4.661a5.019,5.019,0,0,1,.338-.818.878.878,0,0,1,.2-.253A.41.41,0,0,1,50.887,21h5.781a.306.306,0,0,1,.253.113.4.4,0,0,1,.056.169,2.448,2.448,0,0,1-.084,1.015c-.084.338-.169.67-.253.987-.169.705-.338,1.382-.536,2.088l-2.368,9.305c-.818,3.243-1.664,6.487-2.482,9.731l-2.538,9.9c-.169.593-.31,1.207-.48,1.8a3.767,3.767,0,0,1-.2.508,1.26,1.26,0,0,1-.452.564H41.776c-.084,0-.225.028-.31-.028l-.084-.084a1,1,0,0,1-.056-.646Z" transform="translate(-36.163 -21.282)" fill="#fff"/>
        <path id="Path_8" data-name="Path 8" d="M42.725,56.426l.028-.113a12.846,12.846,0,0,1,.366-1.495c.141-.536.282-1.043.4-1.579l.79-3.159.818-3.131.31-1.185c.79-3.074,1.579-6.149,2.341-9.223L50.227,26.9l1.185-4.654a5.02,5.02,0,0,1,.338-.818.878.878,0,0,1,.2-.253.4.4,0,0,1,.339-.17h5.781a.306.306,0,0,1,.253.113.4.4,0,0,1,.056.169,2.625,2.625,0,0,1-.084,1.043c-.084.338-.169.67-.253.987-.169.705-.338,1.382-.536,2.088l-2.369,9.308c-.818,3.243-1.664,6.487-2.482,9.731l-2.538,9.9c-.169.593-.31,1.207-.48,1.8a3.767,3.767,0,0,1-.2.508,1.26,1.26,0,0,1-.452.564h-5.81c-.084,0-.225.028-.31-.028l-.084-.084a1.1,1.1,0,0,1-.056-.677Z" transform="translate(-37.169 -21.282)" fill="#fff"/>
        <path id="Path_9" data-name="Path 9" d="M44.126,56.406v-.113a12.849,12.849,0,0,1,.366-1.495c.141-.536.282-1.043.4-1.579l.79-3.159c.282-1.043.536-2.088.79-3.159.113-.4.2-.79.31-1.185.79-3.074,1.551-6.149,2.341-9.223l2.454-9.646,1.185-4.654a5.019,5.019,0,0,1,.338-.818.878.878,0,0,1,.2-.253.367.367,0,0,1,.366-.141h5.781a.306.306,0,0,1,.253.113.4.4,0,0,1,.056.169,2.448,2.448,0,0,1-.084,1.015c-.084.338-.169.67-.253.987-.169.705-.338,1.382-.536,2.088L56.505,34.66c-.818,3.243-1.664,6.487-2.482,9.731l-2.538,9.9c-.169.593-.31,1.207-.48,1.8a3.767,3.767,0,0,1-.2.508,1.26,1.26,0,0,1-.452.564h-5.78c-.084,0-.225.028-.31-.028l-.084-.084a1,1,0,0,1-.056-.65Z" transform="translate(-38.174 -21.264)" fill="#fff"/>
        <path id="Path_10" data-name="Path 10" d="M45.525,56.426l.028-.113a12.851,12.851,0,0,1,.366-1.495c.141-.536.282-1.043.4-1.579l.79-3.159.79-3.131c.113-.4.2-.79.31-1.185.79-3.074,1.579-6.149,2.341-9.223L53,26.9l1.185-4.654a5.021,5.021,0,0,1,.338-.818.878.878,0,0,1,.2-.253.4.4,0,0,1,.339-.17h5.81a.306.306,0,0,1,.253.113.4.4,0,0,1,.056.169,2.448,2.448,0,0,1-.084,1.015c-.084.338-.169.67-.253.987L60.3,25.429l-2.369,9.308c-.818,3.243-1.664,6.487-2.482,9.731l-2.538,9.9c-.169.593-.31,1.207-.48,1.8a3.768,3.768,0,0,1-.2.508,1.26,1.26,0,0,1-.452.564h-5.81c-.084,0-.225.028-.31-.028l-.084-.084A1.2,1.2,0,0,1,45.525,56.426Z" transform="translate(-39.179 -21.282)" fill="#fff"/>
        <path id="Path_11" data-name="Path 11" d="M46.929,56.406a.169.169,0,0,1,.028-.113,12.853,12.853,0,0,1,.366-1.495c.141-.536.282-1.043.4-1.579l.79-3.159c.282-1.043.536-2.088.79-3.159.113-.4.2-.79.31-1.185.79-3.074,1.551-6.149,2.341-9.223L54.4,26.847l1.185-4.654a5.021,5.021,0,0,1,.338-.818.878.878,0,0,1,.2-.253.367.367,0,0,1,.366-.141H62.27a.306.306,0,0,1,.253.113.4.4,0,0,1,.056.169,2.448,2.448,0,0,1-.084,1.015c-.084.338-.169.67-.253.987-.169.705-.338,1.382-.536,2.088L59.336,34.66c-.818,3.243-1.664,6.487-2.482,9.731l-2.538,9.9c-.169.593-.31,1.207-.48,1.8a3.769,3.769,0,0,1-.2.508,1.26,1.26,0,0,1-.452.564H47.409c-.084,0-.225.028-.31-.028l-.084-.084A.846.846,0,0,1,46.929,56.406Z" transform="translate(-40.188 -21.264)" fill="#fff"/>
        <path id="Path_12" data-name="Path 12" d="M48.358,56.406l.028-.113a12.849,12.849,0,0,1,.366-1.495c.141-.536.282-1.043.4-1.579l.79-3.159.818-3.131c.113-.4.2-.79.31-1.185.79-3.074,1.579-6.149,2.341-9.223l2.454-9.674,1.185-4.654a5.019,5.019,0,0,1,.338-.818.878.878,0,0,1,.2-.253.367.367,0,0,1,.366-.141h5.781a.306.306,0,0,1,.253.113.4.4,0,0,1,.056.169,2.448,2.448,0,0,1-.084,1.015c-.084.338-.169.67-.253.987l-.536,2.088L60.8,34.661c-.818,3.243-1.664,6.487-2.482,9.731l-2.538,9.9c-.169.593-.31,1.207-.48,1.8a3.767,3.767,0,0,1-.2.508,1.26,1.26,0,0,1-.452.564H48.809c-.084,0-.225.028-.31-.028l-.084-.084a1.224,1.224,0,0,1-.056-.652Z" transform="translate(-41.222 -21.264)" fill="#fff"/>
        <path id="Path_13" data-name="Path 13" d="M49.773,56.426l.028-.113a12.852,12.852,0,0,1,.366-1.495c.141-.536.282-1.043.4-1.579l.79-3.159.79-3.131.31-1.185c.79-3.074,1.551-6.149,2.341-9.223L57.247,26.9l1.185-4.654a5.02,5.02,0,0,1,.338-.818.878.878,0,0,1,.2-.253.4.4,0,0,1,.341-.17h5.781a.306.306,0,0,1,.253.113.4.4,0,0,1,.056.169,2.448,2.448,0,0,1-.084,1.015c-.084.338-.169.67-.253.987-.169.705-.338,1.382-.536,2.088l-2.369,9.305c-.818,3.243-1.664,6.487-2.482,9.731l-2.538,9.9c-.169.593-.31,1.207-.48,1.8a3.769,3.769,0,0,1-.2.508,1.26,1.26,0,0,1-.452.564H50.253c-.084,0-.225.028-.31-.028l-.084-.084A1.217,1.217,0,0,1,49.773,56.426Z" transform="translate(-42.243 -21.282)" fill="#fff"/>
        <path id="Path_14" data-name="Path 14" d="M51.173,56.478l.028-.113a12.847,12.847,0,0,1,.366-1.495c.141-.536.282-1.043.4-1.579l.79-3.159L53.57,47c.113-.4.2-.79.31-1.185.79-3.074,1.579-6.149,2.341-9.223l2.454-9.646,1.185-4.654a5.018,5.018,0,0,1,.338-.818.878.878,0,0,1,.2-.253.343.343,0,0,1,.338-.141h5.781a.306.306,0,0,1,.253.113.4.4,0,0,1,.056.169,2.448,2.448,0,0,1-.084,1.015c-.084.338-.169.67-.253.987l-.536,2.088L63.58,34.76C62.763,38,61.917,41.247,61.1,44.491l-2.538,9.9c-.169.593-.31,1.207-.48,1.8a3.769,3.769,0,0,1-.2.508,1.26,1.26,0,0,1-.452.564H51.653c-.084,0-.225.028-.31-.028l-.084-.084a1.365,1.365,0,0,1-.086-.678Z" transform="translate(-43.247 -21.335)" fill="#fff"/>
        <path id="Path_15" data-name="Path 15" d="M52.573,56.426l.028-.113a12.851,12.851,0,0,1,.366-1.495c.141-.536.253-1.043.4-1.579l.79-3.159.79-3.131.31-1.185c.818-3.074,1.579-6.149,2.369-9.223L60.075,26.9l1.185-4.654a5.018,5.018,0,0,1,.338-.818.878.878,0,0,1,.2-.253.4.4,0,0,1,.338-.17h5.781a.306.306,0,0,1,.253.113.4.4,0,0,1,.056.169A2.448,2.448,0,0,1,68.14,22.3c-.084.338-.169.67-.253.987-.169.705-.338,1.382-.536,2.088l-2.366,9.305L62.5,44.41l-2.538,9.9c-.169.593-.31,1.207-.48,1.8a3.769,3.769,0,0,1-.2.508,1.26,1.26,0,0,1-.452.564H53.053c-.084,0-.225.028-.31-.028l-.084-.084a1.217,1.217,0,0,1-.086-.649Z" transform="translate(-44.253 -21.282)" fill="#fff"/>
        <path id="Path_16" data-name="Path 16" d="M53.973,56.426,54,56.314a12.851,12.851,0,0,1,.366-1.495c.141-.536.282-1.043.4-1.579l.79-3.159.818-3.131c.113-.4.2-.79.31-1.185.79-3.074,1.579-6.149,2.341-9.223L61.475,26.9l1.185-4.654A5.019,5.019,0,0,1,63,21.424a.878.878,0,0,1,.2-.253.441.441,0,0,1,.338-.17h5.781a.306.306,0,0,1,.253.113.4.4,0,0,1,.056.169A2.448,2.448,0,0,1,69.54,22.3c-.084.338-.169.67-.253.987l-.536,2.088-2.395,9.305L63.873,44.41l-2.538,9.9c-.169.593-.31,1.207-.48,1.8a3.766,3.766,0,0,1-.2.508,1.26,1.26,0,0,1-.452.564H54.453c-.084,0-.225.028-.31-.028l-.084-.084A1.217,1.217,0,0,1,53.973,56.426Z" transform="translate(-45.258 -21.282)" fill="#fff"/>
      </g>
    </g>
    <path id="Path_18" data-name="Path 18" d="M61.478,57.808H55.527a.374.374,0,0,1-.169-.282,2.294,2.294,0,0,1,.056-.874l1.41-5.613c.79-3.074,1.551-6.177,2.341-9.251l2.369-9.337,2.116-8.377c.113-.424.225-.846.366-1.27a1.311,1.311,0,0,1,.366-.593.507.507,0,0,1,.253-.113h5.725a.224.224,0,0,1,.225.141.523.523,0,0,1,.056.2v.424c-.028.141-.056.253-.084.4l-1.27,4.992L67.032,37.16,64.666,46.5c-.733,2.934-1.495,5.9-2.228,8.828-.141.536-.253,1.043-.424,1.551A1.378,1.378,0,0,1,61.478,57.808Z" transform="translate(-23.15 -0.808)" fill="#fff"/>
    <g id="Group_9" data-name="Group 9" transform="translate(32.189 21.291)">
      <g id="Group_8" data-name="Group 8" transform="translate(0 0)" clip-path="url(#clip-path-2)">
        <path id="Path_19" data-name="Path 19" d="M70.329,30.852a1.369,1.369,0,0,0,0-.48.312.312,0,0,0-.338-.282H55.3a.373.373,0,0,0-.4.338v.056a1.609,1.609,0,0,0,.028.366l1.439,5.331a.587.587,0,0,0,.621.48h11.79l.056-.225C69.342,34.547,69.849,32.685,70.329,30.852Z" transform="translate(-55.024 -27.832)" fill="#fff"/>
        <path id="Path_20" data-name="Path 20" d="M70.329,30.052a1.369,1.369,0,0,0,0-.48.312.312,0,0,0-.338-.282H55.3a.373.373,0,0,0-.4.338v.056a1.609,1.609,0,0,0,.028.366l1.439,5.331a.587.587,0,0,0,.621.48h11.79l.056-.256C69.342,33.775,69.849,31.913,70.329,30.052Z" transform="translate(-55.024 -27.257)" fill="#fff"/>
        <path id="Path_21" data-name="Path 21" d="M70.329,29.352a1.369,1.369,0,0,0,0-.48.312.312,0,0,0-.338-.282H55.3a.373.373,0,0,0-.4.338v.056a1.373,1.373,0,0,0,.028.338l1.439,5.331a.587.587,0,0,0,.621.48h11.79l.056-.253C69.342,33.075,69.849,31.213,70.329,29.352Z" transform="translate(-55.024 -26.755)" fill="#fff"/>
        <path id="Path_22" data-name="Path 22" d="M70.329,28.652a1.369,1.369,0,0,0,0-.48.312.312,0,0,0-.338-.282H55.3a.373.373,0,0,0-.4.338v.056a1.609,1.609,0,0,0,.028.366c.48,1.777.959,3.554,1.467,5.331a.587.587,0,0,0,.621.48h11.79l.056-.253C69.342,32.347,69.849,30.513,70.329,28.652Z" transform="translate(-55.024 -26.253)" fill="#fff"/>
        <path id="Path_23" data-name="Path 23" d="M70.329,27.852a1.369,1.369,0,0,0,0-.48.312.312,0,0,0-.338-.282H55.3a.373.373,0,0,0-.4.338v.056a1.609,1.609,0,0,0,.028.366l1.439,5.331a.587.587,0,0,0,.621.48h11.79l.056-.253C69.342,31.575,69.849,29.713,70.329,27.852Z" transform="translate(-55.024 -25.678)" fill="#fff"/>
        <path id="Path_24" data-name="Path 24" d="M70.329,27.152a1.369,1.369,0,0,0,0-.48.312.312,0,0,0-.338-.282H55.3a.373.373,0,0,0-.4.338v.056a1.609,1.609,0,0,0,.028.366c.48,1.777.959,3.554,1.467,5.331a.587.587,0,0,0,.621.48h11.79l.056-.253C69.342,30.875,69.849,29.013,70.329,27.152Z" transform="translate(-55.024 -25.175)" fill="#fff"/>
        <path id="Path_25" data-name="Path 25" d="M70.329,26.452a1.369,1.369,0,0,0,0-.48.312.312,0,0,0-.338-.282H55.3a.373.373,0,0,0-.4.338v.056a1.609,1.609,0,0,0,.028.366l1.439,5.331a.587.587,0,0,0,.621.48h11.79l.056-.225C69.342,30.147,69.849,28.313,70.329,26.452Z" transform="translate(-55.024 -24.673)" fill="#fff"/>
        <path id="Path_26" data-name="Path 26" d="M70.329,25.652a1.369,1.369,0,0,0,0-.48.312.312,0,0,0-.338-.282H55.3a.373.373,0,0,0-.4.338v.056a1.609,1.609,0,0,0,.028.366l1.439,5.331a.587.587,0,0,0,.621.48h11.79l.056-.225C69.342,29.375,69.849,27.513,70.329,25.652Z" transform="translate(-55.024 -24.099)" fill="#fff"/>
        <path id="Path_27" data-name="Path 27" d="M70.329,24.952a1.369,1.369,0,0,0,0-.48.312.312,0,0,0-.338-.282H55.3a.373.373,0,0,0-.4.338v.056a1.609,1.609,0,0,0,.028.366l1.439,5.331a.587.587,0,0,0,.621.48h11.79l.056-.225C69.342,28.675,69.849,26.813,70.329,24.952Z" transform="translate(-55.024 -23.596)" fill="#fff"/>
        <path id="Path_28" data-name="Path 28" d="M70.329,24.252a1.369,1.369,0,0,0,0-.48.312.312,0,0,0-.338-.282H55.3a.373.373,0,0,0-.4.338v.056a1.609,1.609,0,0,0,.028.366l1.439,5.331a.587.587,0,0,0,.621.48h11.79l.056-.225C69.342,27.947,69.849,26.113,70.329,24.252Z" transform="translate(-55.024 -23.093)" fill="#fff"/>
      </g>
    </g>
    <path id="Path_30" data-name="Path 30" d="M54.7,22.611v-.282l.028-.084a.339.339,0,0,1,.338-.253H69.815a.339.339,0,0,1,.366.282h0a1.369,1.369,0,0,1,0,.48L68.827,28a.775.775,0,0,1-.452.564H56.617a.7.7,0,0,1-.424-.508c-.366-1.411-.762-2.849-1.156-4.258Z" transform="translate(-22.691 -0.725)" fill="#fff"/>
  </g>
</svg>
