<svg xmlns="http://www.w3.org/2000/svg" width="22" height="22" viewBox="0 0 22 22">
  <g id="Group_5686" data-name="Group 5686" transform="translate(-53 -516)">
    <rect id="Rectangle_4625" data-name="Rectangle 4625" width="22" height="22" transform="translate(53 516)" fill="#fff" opacity="0"/>
    <g id="_000000ff" data-name="#000000ff" transform="translate(54.789 483.047)">
      <path id="Path_12" data-name="Path 12" d="M212.348,36.194a2.369,2.369,0,0,1,1.008-.174,2.242,2.242,0,0,1,1.166.346,3.572,3.572,0,0,1,1.083,1.056c-.53,0-1.06,0-1.59,0q0,.464,0,.928c.3.193.608.37.91.56-.082.3-.161.593-.241.89-1-.583-2-1.159-2.994-1.749a3.933,3.933,0,0,1,.167-1.3A.987.987,0,0,1,212.348,36.194Z" transform="translate(-204.073 0)" fill="#e6aa55"/>
      <path id="Path_13" data-name="Path 13" d="M280.3,78.991c.212,0,.425,0,.637,0a1.5,1.5,0,0,1-.115,1.026c-.175-.1-.347-.21-.521-.316C280.3,79.464,280.3,79.227,280.3,78.991Z" transform="translate(-270.215 -41.423)" fill="#e6aa55"/>
      <path id="Path_14" data-name="Path 14" d="M220.34,102.42q.823.471,1.637.956A1.459,1.459,0,0,1,220.34,102.42Z" transform="translate(-212.412 -64.011)" fill="#e6aa55"/>
      <path id="Path_15" data-name="Path 15" d="M163.4,125.762a1.263,1.263,0,0,1,.957-.143.84.84,0,0,1,.507.465,1.614,1.614,0,0,1,.06,1.158,2.752,2.752,0,0,1-.339-.7.668.668,0,0,0-1.27.128.742.742,0,0,0,.044.413,4.606,4.606,0,0,0,1.265,1.854,5.957,5.957,0,0,0-.058.926c.515-.007,1.031,0,1.546,0a1.5,1.5,0,0,1,.409.1,5.4,5.4,0,0,0,1.065.205.839.839,0,0,1,.137.753q-.466,1.887-.93,3.775a.812.812,0,0,1-1.6-.11,1.333,1.333,0,0,1,.068-.477q.323-1.313.645-2.626h-1.669a5.946,5.946,0,0,1-.94-.039,1.183,1.183,0,0,1-.672-.347,1.5,1.5,0,0,1-.348-.748,7.991,7.991,0,0,1-.036-1.981,8.2,8.2,0,0,1,.42-1.692A1.7,1.7,0,0,1,163.4,125.762Z" transform="translate(-156.362 -86.337)" fill="#e6aa55"/>
      <path id="Path_16" data-name="Path 16" d="M.178,139.982A.539.539,0,0,1,.5,139.91c1.536,0,3.072,0,4.608,0a.407.407,0,0,1,.421.431q0,2.3,0,4.609a.4.4,0,0,1-.419.421q-2.357,0-4.715,0a.421.421,0,0,1-.4-.334v-4.753A.432.432,0,0,1,.178,139.982Z" transform="translate(0 -100.152)" fill="#e6aa55"/>
      <path id="Path_17" data-name="Path 17" d="M197.431,145.067a.523.523,0,0,1,.55.172,1.643,1.643,0,0,1,.175.394,3.45,3.45,0,0,0,1.556,1.65,4.568,4.568,0,0,0,1.523.469.518.518,0,0,1-.117,1.029,4.948,4.948,0,0,1-3.218-1.628,4.2,4.2,0,0,1-.82-1.443A.524.524,0,0,1,197.431,145.067Z" transform="translate(-189.968 -105.104)" fill="#e6aa55"/>
      <path id="Path_18" data-name="Path 18" d="M381.657,190.252a.406.406,0,0,1,.366.062,1.164,1.164,0,0,1,.259.652,2.678,2.678,0,0,1-.087,1.19.513.513,0,0,1-.3.357,1.132,1.132,0,0,1-1.15-.811,1.141,1.141,0,0,1,.913-1.451Z" transform="translate(-366.999 -148.669)" fill="#e6aa55"/>
      <path id="Path_19" data-name="Path 19" d="M319.262,205.26a.374.374,0,0,1,.49.228c.181.517.355,1.036.534,1.554.01.059.067.081.115.1a3.531,3.531,0,0,1,1.7,1.543,6.374,6.374,0,0,1,.333.809,3.327,3.327,0,0,1,1.29.231,2.753,2.753,0,0,1,1.124.853,1.98,1.98,0,0,1,.354.6v.083a.285.285,0,0,1-.219.126,2.7,2.7,0,0,0-.751-.769,2.607,2.607,0,0,0-3.37.4c-.572-1.636-1.125-3.279-1.691-4.917-.178.07-.356.143-.535.211a.72.72,0,0,0-.406-.645C318.576,205.535,318.917,205.392,319.262,205.26Z" transform="translate(-306.78 -163.125)" fill="#e6aa55"/>
      <path id="Path_20" data-name="Path 20" d="M30.027,303.15a.3.3,0,0,1,.314-.29q3.038,0,6.077,0a.3.3,0,0,1,.306.29c0,.288.005.576,0,.864a.328.328,0,0,1-.207.26,6.391,6.391,0,0,0,.6,2.225c1.592.008,3.185,0,4.777,0a2.724,2.724,0,0,0,.023.9q-2.992,0-5.983,0a2.6,2.6,0,0,0-4.634-2.076,2.635,2.635,0,0,0-.475,2.074c-.43,0-.86,0-1.29,0a6.315,6.315,0,0,1,.307-1.662c.15-.491.322-.976.519-1.45a.323.323,0,0,1-.327-.277C30.022,303.726,30.025,303.437,30.027,303.15Z" transform="translate(-28.468 -257.239)" fill="#e6aa55"/>
      <path id="Path_21" data-name="Path 21" d="M76.333,353.023a2.235,2.235,0,1,1-1.1.49,2.235,2.235,0,0,1,1.1-.49m.07,1.364a.881.881,0,1,0,1.079.537A.885.885,0,0,0,76.4,354.387Z" transform="translate(-71.748 -305.574)" fill="#e6aa55"/>
      <path id="Path_22" data-name="Path 22" d="M384.525,353.038a2.238,2.238,0,1,1-1.114.505,2.235,2.235,0,0,1,1.114-.505m.07,1.364a.881.881,0,1,0,1.1.587A.884.884,0,0,0,384.594,354.4Z" transform="translate(-368.852 -305.589)" fill="#e6aa55"/>
    </g>
  </g>
</svg>
