<svg xmlns="http://www.w3.org/2000/svg" width="22" height="22" viewBox="0 0 22 22">
  <g id="Group_5688" data-name="Group 5688" transform="translate(-53 -629)">
    <rect id="Rectangle_4627" data-name="Rectangle 4627" width="22" height="22" transform="translate(53 629)" fill="#fff" opacity="0"/>
    <g id="_221e1ffc" data-name="#221e1ffc" transform="translate(40.268 601.97)">
      <path id="Path_10584" data-name="Path 10584" d="M75.675,80.677a.546.546,0,0,1,.614-.564q5-.009,10,0a.541.541,0,0,1,.591.57q.015,2.323.005,4.646a2.4,2.4,0,0,1,1.665-.577c.168.092.127.283.142.436.031,1.107-.069,2.222.049,3.324a28.652,28.652,0,0,1,.977,3.229,19.785,19.785,0,0,1,.008,3.641,6.34,6.34,0,0,0,.532,1.772c.2.75.5,1.481.623,2.247a1.44,1.44,0,0,1-.627.212c-2.283.422-4.557.884-6.842,1.3-.324-.825-.49-1.693-.743-2.537a3.124,3.124,0,0,1-1.908-1.087c-1.492-.009-2.985.017-4.474-.011a.547.547,0,0,1-.6-.478c-.04-.762,0-1.527-.014-2.289-.444-.014-1.008-.171-1.047-.659-.009-.6-.185-1.31.325-1.78-.487-.441-.339-1.11-.336-1.676-.013-.255.189-.44.338-.63-.481-.426-.34-1.072-.343-1.624a1.044,1.044,0,0,1,.338-.691c-.506-.478-.334-1.2-.317-1.8.049-.481.609-.618,1.043-.641.006-1.446-.01-2.893.005-4.338m.509-.092c0,1.487.006,2.972.008,4.459l.336.056c.01-1.158-.012-2.317.008-3.475a.559.559,0,0,1,.644-.571q4.1-.007,8.208,0a.565.565,0,0,1,.666.586c.014,2.97,0,5.941,0,8.912l.2-.13c.033-1.506-.013-3.014.11-4.515.014-1.774,0-3.547,0-5.321q-5.091,0-10.182,0m.861.943c0,1.258-.008,2.516,0,3.774a1.463,1.463,0,0,1,.481,1.075c.018.416-.384.692-.5,1.068.078.386.505.652.5,1.069a1.428,1.428,0,0,1-.477,1.1c0,.077,0,.231,0,.307A1.477,1.477,0,0,1,77.529,91c.008.467-.491.767-.509,1.232a1.376,1.376,0,0,1,.511,1.026,1.515,1.515,0,0,1-.482.977c0,.222-.006.442-.006.664,2.463.008,4.927-.007,7.391.008a4.47,4.47,0,0,1,1.11-3.9q0-4.738,0-9.476-4.25,0-8.5,0m9.78,5.1q-.04,2.008-.063,4.018a3.942,3.942,0,0,0-1.849,3.921,5.008,5.008,0,0,0,.786,1.942c.248.353-.141.825-.57.779-1.233.032-2.467-.015-3.7.021a2.89,2.89,0,0,0,1.72.646,21.367,21.367,0,0,0,.593,2.419c2.192-.407,4.378-.839,6.569-1.258-.3-.9-.5-1.838-.886-2.715a2.1,2.1,0,0,1-.219-1.011,25,25,0,0,0,.049-3.231,13.692,13.692,0,0,0-.887-3.074,3.284,3.284,0,0,1-.194-1.163c0-.9.008-1.807,0-2.71a1.648,1.648,0,0,0-1.348,1.417m-11.616-1.02a2.809,2.809,0,0,0-.061,1.343,2.153,2.153,0,0,0,1.265.087.753.753,0,0,0,.111-1.442,2.315,2.315,0,0,0-1.314.012m.118,2.249c-.286.064-.188.443-.22.651.042.28-.106.66.178.856a4.03,4.03,0,0,0,1.133-.012.752.752,0,0,0,.416-1.225c-.362-.413-1.006-.285-1.506-.27m-.115,2.37a2.762,2.762,0,0,0-.064,1.343c.28.222.7.1,1.038.119a.782.782,0,0,0,.786-1.03c-.257-.635-1.207-.6-1.761-.432m.11,2.253c-.2.011-.193.279-.207.418a4.942,4.942,0,0,0,.028.943c.221.3.7.136,1.032.165A.777.777,0,0,0,76.9,92.83c-.33-.5-1.045-.373-1.575-.351m.862,2.008c0,.775-.006,1.55.006,2.325,3.034,0,6.071.024,9.106-.012a7.8,7.8,0,0,1-.726-1.423c-2.5-.026-5.006.013-7.507-.015-.518-.006-.55-.561-.555-.919Z" transform="translate(-59.03 -52.375)" fill="#fff" stroke="#fff" stroke-width="0.2"/>
      <path id="Path_10587" data-name="Path 10587" d="M104.921,124.975a3.083,3.083,0,0,1,3.758,2.162,2.866,2.866,0,0,1-2.546,3.367,3.035,3.035,0,0,1-3.456-2.413,2.856,2.856,0,0,1,2.244-3.117m1.19.392c.207.334.4.676.575,1.028.331-.058.661-.121.992-.186a3.314,3.314,0,0,0-1.568-.842m-2.426.861q.468.092.94.174c.173-.351.363-.694.564-1.031a3.68,3.68,0,0,0-1.5.857m1.472.217c.332,0,.666,0,1,0-.157-.286-.324-.564-.505-.837-.174.275-.34.555-.495.838m-2.011,1.037c.419.006.84.006,1.26.011.033-.207.068-.416.1-.624-.368-.064-.734-.132-1.1-.2q-.138.407-.261.817m3.662-.619c.031.207.061.416.091.624.449,0,.9,0,1.348,0q-.13-.432-.277-.86c-.385.088-.772.166-1.161.238m-1.8.06c-.031.188-.059.377-.086.567.488,0,.977,0,1.465,0-.028-.191-.056-.379-.086-.569-.431.012-.863.012-1.294.006m-1.852,1.043c.082.261.164.522.24.785.358-.071.717-.138,1.079-.2l-.073-.594c-.416,0-.831,0-1.247.006m1.767,0c.02.178.041.357.063.535.445-.007.89-.007,1.334,0,.022-.18.042-.36.061-.539q-.729,0-1.458,0m1.972.008c-.02.2-.042.391-.063.587.379.069.756.148,1.132.232q.146-.411.275-.828c-.448,0-.9,0-1.344.008m-1.776,1.008q.246.464.531.909a8.923,8.923,0,0,0,.545-.912c-.358-.006-.717-.006-1.075,0m-1.418.207a3.547,3.547,0,0,0,1.413.838c-.18-.332-.355-.666-.511-1.008-.3.057-.6.11-.9.17m3.013-.16c-.164.346-.347.684-.541,1.016a3.364,3.364,0,0,0,1.495-.836C107.352,129.142,107.034,129.083,106.715,129.027Z" transform="translate(-83.501 -91.835)" fill="#fff"/>
      <path id="Path_10592" data-name="Path 10592" d="M113.194,209.8c.666-.091,1.345-.017,2.017-.044.33.017.734-.056.983.2a.56.56,0,0,1-.343.954c-.68.047-1.364.006-2.046.023-.327-.008-.753.044-.946-.266a.562.562,0,0,1,.335-.866m-.008.468a.56.56,0,0,0,.494.187c.678-.008,1.359.025,2.036-.018l.211-.173C115.015,210.227,114.1,210.222,113.187,210.268Z" transform="translate(-92.319 -166.651)" fill="#fff"/>
    </g>
  </g>
</svg>
