<svg xmlns="http://www.w3.org/2000/svg" width="27" height="27" viewBox="0 0 27 27">
  <g id="Group_5715" data-name="Group 5715" transform="translate(-50 -307.649)">
    <circle id="Ellipse_30" data-name="Ellipse 30" cx="13.5" cy="13.5" r="13.5" transform="translate(50 307.649)" fill="#1f1e26"/>
    <path id="Icon_material-location-on" data-name="Icon material-location-on" d="M12.153,3A4.478,4.478,0,0,0,7.5,7.287c0,3.216,4.653,7.962,4.653,7.962s4.653-4.747,4.653-7.962A4.478,4.478,0,0,0,12.153,3Zm0,5.819a1.6,1.6,0,0,1-1.662-1.531,1.6,1.6,0,0,1,1.662-1.531,1.6,1.6,0,0,1,1.662,1.531A1.6,1.6,0,0,1,12.153,8.819Z" transform="translate(51.348 312.024)" fill="#e6aa55"/>
  </g>
</svg>
