<svg xmlns="http://www.w3.org/2000/svg" width="14.966" height="16.772" viewBox="0 0 14.966 16.772">
  <path id="Path_10498" data-name="Path 10498" d="M9.483,14.723a.763.763,0,1,0-.748-.762A.755.755,0,0,0,9.483,14.723Zm3.742,0a.763.763,0,1,0-.748-.762A.755.755,0,0,0,13.225,14.723Zm0-3.05a.763.763,0,1,0-.748-.762A.755.755,0,0,0,13.225,11.673Zm-3.742,0a.763.763,0,1,0-.748-.762A.755.755,0,0,0,9.483,11.673Zm5.238-9.149h-.748V1.762a.748.748,0,1,0-1.5,0v.762H6.49V1.762a.748.748,0,1,0-1.5,0v.762H4.245A2.266,2.266,0,0,0,2,4.812V15.485a2.266,2.266,0,0,0,2.245,2.287H14.721a2.266,2.266,0,0,0,2.245-2.287V4.812A2.266,2.266,0,0,0,14.721,2.525Zm.748,12.96a.755.755,0,0,1-.748.762H4.245a.755.755,0,0,1-.748-.762V8.624H15.47Zm0-8.386H3.5V4.812a.755.755,0,0,1,.748-.762h.748v.762a.748.748,0,1,0,1.5,0V4.05h5.987v.762a.748.748,0,1,0,1.5,0V4.05h.748a.755.755,0,0,1,.748.762ZM5.742,11.673a.763.763,0,1,0-.748-.762A.755.755,0,0,0,5.742,11.673Zm0,3.05a.763.763,0,1,0-.748-.762A.755.755,0,0,0,5.742,14.723Z" transform="translate(-2 -1)" fill="#e6aa55"/>
</svg>
