<svg xmlns="http://www.w3.org/2000/svg" width="19.193" height="14.395" viewBox="0 0 19.193 14.395">
  <g id="Icon_ionic-ios-camera" data-name="Icon ionic-ios-camera" transform="translate(-4.5 -7.875)" opacity="0.4">
    <path id="Path_7902" data-name="Path 7902" d="M19.705,18.167a2.874,2.874,0,1,1-2.874-2.874A2.874,2.874,0,0,1,19.705,18.167Z" transform="translate(-2.734 -2.145)" fill="#fff"/>
    <path id="Path_7903" data-name="Path 7903" d="M22.169,10.274H19.445a.811.811,0,0,1-.6-.27c-1.42-1.589-1.954-2.129-2.534-2.129H12.037c-.585,0-1.16.54-2.584,2.134a.8.8,0,0,1-.595.265h-.2v-.4a.4.4,0,0,0-.4-.4h-1.3a.4.4,0,0,0-.4.4v.4H6.179A1.621,1.621,0,0,0,4.5,11.809v8.8A1.73,1.73,0,0,0,6.174,22.27H22.169a1.6,1.6,0,0,0,1.524-1.664v-8.8A1.49,1.49,0,0,0,22.169,10.274ZM14.3,20.291a4.273,4.273,0,1,1,4.069-4.069A4.277,4.277,0,0,1,14.3,20.291Zm4.6-7.118a.65.65,0,1,1,.65-.65A.648.648,0,0,1,18.9,13.173Z" transform="translate(0)" fill="#fff"/>
  </g>
</svg>
