<svg xmlns="http://www.w3.org/2000/svg" width="14.022" height="14.022" viewBox="0 0 14.022 14.022">
  <path id="Icon_metro-cross" data-name="Icon metro-cross" d="M16.465,13.193h0L12.211,8.939l4.254-4.254h0a.439.439,0,0,0,0-.62l-2.01-2.009a.439.439,0,0,0-.62,0h0L9.582,6.31,5.328,2.056h0a.439.439,0,0,0-.62,0L2.7,4.066a.439.439,0,0,0,0,.62h0L6.953,8.939,2.7,13.193h0a.439.439,0,0,0,0,.62l2.01,2.009a.439.439,0,0,0,.62,0h0l4.254-4.254,4.254,4.254h0a.439.439,0,0,0,.62,0l2.009-2.01a.439.439,0,0,0,0-.62Z" transform="translate(-2.571 -1.928)" fill="#ececec"/>
</svg>
