<svg xmlns="http://www.w3.org/2000/svg" xmlns:xlink="http://www.w3.org/1999/xlink" width="34.192" height="32.39" viewBox="0 0 34.192 32.39">
  <defs>
    <filter id="Icon_awesome-edit" x="0" y="0" width="34.192" height="32.39" filterUnits="userSpaceOnUse">
      <feOffset dy="3" input="SourceAlpha"/>
      <feGaussianBlur stdDeviation="3" result="blur"/>
      <feFlood flood-opacity="0.161"/>
      <feComposite operator="in" in2="blur"/>
      <feComposite in="SourceGraphic"/>
    </filter>
  </defs>
  <g transform="matrix(1, 0, 0, 1, 0, 0)" filter="url(#Icon_awesome-edit)">
    <path id="Icon_awesome-edit-2" data-name="Icon awesome-edit" d="M11.318,2.343l2.536,2.536a.275.275,0,0,1,0,.388l-6.14,6.14-2.609.29a.547.547,0,0,1-.6-.6l.29-2.609,6.14-6.14A.275.275,0,0,1,11.318,2.343ZM15.872,1.7,14.5.328a1.1,1.1,0,0,0-1.552,0l-1,1a.275.275,0,0,0,0,.388l2.536,2.536a.275.275,0,0,0,.388,0l1-1a1.1,1.1,0,0,0,0-1.552ZM10.795,9.736V12.6h-9v-9h6.46A.346.346,0,0,0,8.5,3.5L9.623,2.38A.337.337,0,0,0,9.384,1.8H1.349A1.35,1.35,0,0,0,0,3.153v9.9A1.35,1.35,0,0,0,1.349,14.4h9.9a1.35,1.35,0,0,0,1.349-1.349V8.612a.338.338,0,0,0-.576-.239L10.893,9.5A.346.346,0,0,0,10.795,9.736Z" transform="translate(9 5.99)" fill="#2b3c6e"/>
  </g>
</svg>
