<svg xmlns="http://www.w3.org/2000/svg" width="70.284" height="9.75" viewBox="0 0 70.284 9.75">
  <g id="Group_5726" data-name="Group 5726" transform="translate(-554.357 -229.125)">
    <path id="Polygon_6" data-name="Polygon 6" d="M5.142,0l1.7,3.061,3.445.663-2.4,2.555L8.32,9.75,5.142,8.267,1.964,9.75,2.4,6.279,0,3.724l3.445-.663Z" transform="translate(554.357 229.125)" fill="rgba(255,255,255,0.73)"/>
    <path id="Polygon_6-2" data-name="Polygon 6" d="M5.142,0l1.7,3.061,3.445.663-2.4,2.555L8.32,9.75,5.142,8.267,1.964,9.75,2.4,6.279,0,3.724l3.445-.663Z" transform="translate(569.357 229.125)" fill="rgba(255,255,255,0.73)"/>
    <path id="Polygon_6-3" data-name="Polygon 6" d="M5.142,0l1.7,3.061,3.445.663-2.4,2.555L8.32,9.75,5.142,8.267,1.964,9.75,2.4,6.279,0,3.724l3.445-.663Z" transform="translate(584.357 229.125)" fill="rgba(255,255,255,0.73)"/>
    <path id="Polygon_6-4" data-name="Polygon 6" d="M5.142,0l1.7,3.061,3.445.663-2.4,2.555L8.32,9.75,5.142,8.267,1.964,9.75,2.4,6.279,0,3.724l3.445-.663Z" transform="translate(599.357 229.125)" fill="#c2c2c4"/>
    <g id="Polygon_6-5" data-name="Polygon 6" transform="translate(614.357 229.125)" fill="none">
      <path d="M5.142,0l1.7,3.061,3.445.663-2.4,2.555L8.32,9.75,5.142,8.267,1.964,9.75,2.4,6.279,0,3.724l3.445-.663Z" stroke="none"/>
      <path d="M 5.142045497894287 1.031389236450195 L 3.769165515899658 3.508299827575684 L 0.9853515625 4.043796062469482 L 2.921605587005615 6.107979774475098 L 2.572002410888672 8.914680480957031 L 5.142045497894287 7.715760231018066 L 7.712088584899902 8.914680480957031 L 7.362485408782959 6.107979774475098 L 9.298739433288574 4.043796062469482 L 6.514925479888916 3.508299827575684 L 5.142045497894287 1.031389236450195 M 5.142045497894287 0 L 6.838925361633301 3.061460018157959 L 10.28409576416016 3.724170207977295 L 7.887645721435547 6.278960227966309 L 8.320005416870117 9.75 L 5.142045497894287 8.267490386962891 L 1.964085578918457 9.75 L 2.396445274353027 6.278960227966309 L -4.76837158203125e-06 3.724170207977295 L 3.445165634155273 3.061460018157959 L 5.142045497894287 0 Z" stroke="none" fill="#a89d9d"/>
    </g>
  </g>
</svg>
