<svg xmlns="http://www.w3.org/2000/svg" width="35.126" height="30.975" viewBox="0 0 35.126 30.975">
  <g id="Group_3576" data-name="Group 3576" transform="translate(-52.098 -39.653)">
    <path id="Path_4629" data-name="Path 4629" d="M97.679,57.04a8.091,8.091,0,0,0-13.981-3.2,7.818,7.818,0,0,1-6.274,2.67h-.086a5.409,5.409,0,0,0-5.453,5.072,5.334,5.334,0,0,0,5.336,5.629,5.121,5.121,0,0,0,1.906-.351,11.819,11.819,0,0,1,8.033-.117,8.277,8.277,0,0,0,2.7.469,7.7,7.7,0,0,0,3.079-.616,5.538,5.538,0,0,0,2.7.616,5.413,5.413,0,0,0,5.131-5.427,5.311,5.311,0,0,0-3.085-4.748Z" transform="translate(-16.661 -8.02)" fill="#e6aa55"/>
    <g id="Group_178" data-name="Group 178" transform="translate(56.484 44.274)">
      <path id="Path_4630" data-name="Path 4630" d="M78.792,74.067a3.579,3.579,0,0,0-1.47.79,3.722,3.722,0,0,0-.938,1.378,2.772,2.772,0,0,0-.086,1.613,8.271,8.271,0,0,1,.675-1.349,4.543,4.543,0,0,1,.909-1.055,4.99,4.99,0,0,1,1.143-.792,6.126,6.126,0,0,1,1.408-.557A3.121,3.121,0,0,0,78.792,74.067Z" transform="translate(-76.217 -68.528)" fill="#fff"/>
      <path id="Path_4631" data-name="Path 4631" d="M109.81,55.634a5.845,5.845,0,0,0-2.287,1.349c-.146.146-.322.322-.469.5l-.41.469c-.264.293-.557.587-.85.88a17.836,17.836,0,0,1-1.993,1.525,6.311,6.311,0,0,0,2.375-1,7,7,0,0,0,1.026-.821,6.274,6.274,0,0,0,.439-.469,2.717,2.717,0,0,1,.41-.41,8.343,8.343,0,0,1,1.964-1.349,10.461,10.461,0,0,1,2.346-.762A4.467,4.467,0,0,0,109.81,55.634Z" transform="translate(-95.713 -55.402)" fill="#fff"/>
    </g>
    <path id="Path_4632" data-name="Path 4632" d="M105.542,103.585a5.231,5.231,0,0,1-2.7-.616,8,8,0,0,1-5.772.146,11.643,11.643,0,0,0-8.033.117,5.12,5.12,0,0,1-1.906.351,5.886,5.886,0,0,1-1.231-.146l.587,3.723h19.5l.587-3.723A6.178,6.178,0,0,1,105.542,103.585Z" transform="translate(-26.577 -44.391)" fill="#e6aa55"/>
    <path id="Path_4633" data-name="Path 4633" d="M77.185,81.138a5.12,5.12,0,0,0,1.906-.351,11.819,11.819,0,0,1,8.033-.117,8.277,8.277,0,0,0,2.7.469,7.7,7.7,0,0,0,3.079-.616,5.538,5.538,0,0,0,2.7.616,5.412,5.412,0,0,0,5.131-5.427,5.341,5.341,0,0,0-3.079-4.749c-.029-.059-.029-.117-.059-.172a13.289,13.289,0,0,0-1.525-.086,5.448,5.448,0,0,0-2.7.7l-.938.528s4.955-.086,5.277,3.313c.381,4.1-2.316,3.84-2.316,3.84l1.085-2.052s-3.255,2.463-6.01,2.4-4.251-1.551-7.124-1.172l.792-2.287S81.816,79.3,79.061,79.3c0,0-3.372,1.143-5.629-1.114a4.582,4.582,0,0,1-1.464-3.43,2.954,2.954,0,0,0-.086.733,5.319,5.319,0,0,0,5.3,5.654Z" transform="translate(-16.66 -21.944)" fill="#e6aa55" opacity="0.7"/>
    <path id="Path_4634" data-name="Path 4634" d="M105.542,103.585a5.231,5.231,0,0,1-2.7-.616,8,8,0,0,1-5.772.146,11.643,11.643,0,0,0-8.033.117,5.12,5.12,0,0,1-1.906.351,5.886,5.886,0,0,1-1.231-.146l.234,1.551a5.481,5.481,0,0,0,1,.086,5.607,5.607,0,0,0,1.993-.381,11.238,11.238,0,0,1,7.945-.086,8.5,8.5,0,0,0,1.906.41v.293H94.256a.41.41,0,0,0,0,.821h3.782a.948.948,0,0,1,.938.938h7.007l.146-.938.117-.821.059-.351h0l.234-1.551a3.741,3.741,0,0,1-1,.177Z" transform="translate(-26.577 -44.391)" fill="#e6aa55" opacity="0.7"/>
    <path id="Path_4635" data-name="Path 4635" d="M143.868,57.072A8.168,8.168,0,0,0,137.3,51.3l.059.086s4.1,1.7,4.1,5.482a10.774,10.774,0,0,1,2.4.2Z" transform="translate(-62.907 -8.23)" fill="#e6aa55" opacity="0.7"/>
    <path id="Path_4636" data-name="Path 4636" d="M100.107,60.7a5.763,5.763,0,0,0-3.137-5.043,8.513,8.513,0,0,0-14.659-3.167,7.333,7.333,0,0,1-5.951,2.524h-.086A5.876,5.876,0,0,0,70.38,60.5a5.664,5.664,0,0,0,1.583,4.281,5.944,5.944,0,0,0,2.58,1.583l.587,3.782h20.2l.587-3.811a5.831,5.831,0,0,0,4.193-5.631ZM95.064,66.5l-.146.909H83.278a.41.41,0,0,0,0,.821H94.8l-.172,1.055h-18.8L75.392,66.5h.029c.059,0,.146.029.205.029a5.658,5.658,0,0,0,1,0h.029a5.6,5.6,0,0,0,.967-.172c.029,0,.059-.029.086-.029a1.7,1.7,0,0,0,.41-.146,9.194,9.194,0,0,0,1.172-.381,11.015,11.015,0,0,1,6.6.264,8.511,8.511,0,0,0,2.843.469,9.217,9.217,0,0,0,3.079-.557,5.968,5.968,0,0,0,.645.264,5.786,5.786,0,0,0,1.73.293h.351a1.51,1.51,0,0,0,.531-.033Zm.5-.909-.086.029c-.146.029-.293.059-.469.086a2.37,2.37,0,0,1-.469.029h0a4.975,4.975,0,0,1-1.613-.205,6.625,6.625,0,0,0,2.757-3.049.408.408,0,1,0-.762-.293A5.437,5.437,0,0,1,91.9,65.1h0l-.172.059a7.7,7.7,0,0,1-2.929.587,7.527,7.527,0,0,1-2.551-.44c-.172-.059-.322-.117-.5-.172A.264.264,0,0,0,85.6,65.1l-.351-.086c-.059-.029-.117-.029-.172-.059-.117-.029-.205-.059-.322-.086-.059,0-.146-.029-.205-.029-.086-.029-.205-.029-.293-.059-.059,0-.146-.029-.205-.029-.086,0-.205-.029-.293-.029s-.146-.029-.234-.029-.205-.029-.293-.029H83a1,1,0,0,1-.293-.029h-1.1a.646.646,0,0,0-.234.029A5.386,5.386,0,0,0,83.4,61.379a.415.415,0,0,0-.821-.117,5.212,5.212,0,0,1-3.518,3.752c-.059,0-.086.029-.146.029a1.652,1.652,0,0,0-.351.117c-.059.029-.117.029-.172.059l-.528.172a1.9,1.9,0,0,1-.381.117c-.029,0-.059.029-.086.029-.117.029-.205.059-.322.086a.108.108,0,0,0-.086.029c-.117.029-.234.029-.351.059h-.059c-.146,0-.293.029-.439.029h0a2.221,2.221,0,0,1-.44-.029c-.086,0-.172-.029-.264-.029a.172.172,0,0,1-.117-.029c-.117-.029-.205-.029-.322-.059h-.059a5.04,5.04,0,0,1-2.4-1.408,4.931,4.931,0,0,1,3.665-8.327h.086a8.251,8.251,0,0,0,6.6-2.814,7.706,7.706,0,0,1,13.076,2.316A5.935,5.935,0,0,0,91,56.569a.416.416,0,0,0-.029.587.467.467,0,0,0,.293.146.319.319,0,0,0,.264-.117A4.585,4.585,0,0,1,99.205,60.7,4.869,4.869,0,0,1,95.562,65.6Z" transform="translate(-15.6 -6.958)"/>
    <path id="Path_4637" data-name="Path 4637" d="M73.817,53.8a4.541,4.541,0,0,1-3.9,1.935c-.351,0-.7.059-1.026.086a5.462,5.462,0,0,0-1,.205,7.622,7.622,0,0,0-1.906.762,9.125,9.125,0,0,0-3.079,2.726,9.87,9.87,0,0,0-1.642,3.9,7.4,7.4,0,0,1,1.059-4.278,8.23,8.23,0,0,1,1.408-1.788A9.332,9.332,0,0,1,65.582,56a8.551,8.551,0,0,1,4.4-.967A4.921,4.921,0,0,0,73.817,53.8Z" transform="translate(-9.158 -9.998)" fill="#fff"/>
    <path id="Path_4638" data-name="Path 4638" d="M139.793,53.712a9.045,9.045,0,0,0-1.231-3.694,8.383,8.383,0,0,0-2.609-2.757l-.086-.059-.059-.117a12.191,12.191,0,0,0-2.14-3.284,11.67,11.67,0,0,0-6.919-3.577,12.516,12.516,0,0,0-4.049.086,9.529,9.529,0,0,1,1.993-.528c.351-.059.7-.086,1.026-.117.351,0,.7-.029,1.055,0a10.329,10.329,0,0,1,4.076,1.026,11.974,11.974,0,0,1,3.43,2.492,11.238,11.238,0,0,1,2.229,3.606l-.146-.172a8.3,8.3,0,0,1,2.609,3.167,7.322,7.322,0,0,1,.821,3.927Z" transform="translate(-52.588 0)" fill="#fff"/>
    <path id="Path_4639" data-name="Path 4639" d="M94.635,141.7c.88,0,1.551-.5,1.551-1.114V140.2H91v.381c0,.616.7,1.114,1.551,1.114Z" transform="translate(-30.182 -71.067)" fill="#fff"/>
    <path id="Path_4640" data-name="Path 4640" d="M137.465,141.7c.88,0,1.551-.5,1.551-1.114V140.2H133.8v.381c0,.616.7,1.114,1.551,1.114Z" transform="translate(-60.433 -71.067)" fill="#fff"/>
    <path id="Path_4641" data-name="Path 4641" d="M104.106,127.4H95.663c-2.4,0-4.4,1.26-4.661,2.873h17.767C108.5,128.66,106.506,127.4,104.106,127.4Z" transform="translate(-30.182 -62.02)" fill="#fff"/>
  </g>
</svg>
