<svg xmlns="http://www.w3.org/2000/svg" width="22" height="22" viewBox="0 0 22 22">
  <g id="Group_18867" data-name="Group 18867" transform="translate(-12027 -4772)">
    <path id="Path_10594" data-name="Path 10594" d="M0,0H22V22H0Z" transform="translate(12027 4772)" fill="#fff" opacity="0"/>
    <g id="icons_Q2" data-name="icons Q2" transform="translate(12030.051 4774.318)">
      <path id="Path_10" data-name="Path 10" d="M20.351,23.816a.666.666,0,0,0-1.012,0l-2.7,2.778-.906-.834a.706.706,0,0,0-.577-.242.716.716,0,0,0-.543.317.861.861,0,0,0,.145,1.022l1.375,1.326a.666.666,0,0,0,1.012,0l3.209-3.307a.742.742,0,0,0,0-1.059Zm0,0a.666.666,0,0,0-1.012,0l-2.7,2.778-.906-.834a.706.706,0,0,0-.577-.242.716.716,0,0,0-.543.317.861.861,0,0,0,.145,1.022l1.375,1.326a.666.666,0,0,0,1.012,0l3.209-3.307a.742.742,0,0,0,0-1.059Z" transform="translate(-9.589 -14.365)" fill="#e6aa55"/>
      <path id="Path_11" data-name="Path 11" d="M17.176,4.466H13.924V2.854a.849.849,0,0,0-.614-.868.662.662,0,0,0-.583.193.882.882,0,0,0-.248.633V4.466H7.42V2.854a.849.849,0,0,0-.614-.868.662.662,0,0,0-.583.193.882.882,0,0,0-.248.633V4.466H2.723A.78.78,0,0,0,2,5.292V18.514a.78.78,0,0,0,.723.826H17.176a.78.78,0,0,0,.723-.826V5.292A.78.78,0,0,0,17.176,4.466Zm-.723,13.222H3.445V9.424H16.453Zm0-9.916H3.445V6.118H16.453Z" transform="translate(-2 -1.977)" fill="#e6aa55"/>
    </g>
  </g>
</svg>
