<svg xmlns="http://www.w3.org/2000/svg" width="22" height="22" viewBox="0 0 22 22">
  <g id="Group_18868" data-name="Group 18868" transform="translate(-12027 -4841)">
    <rect id="Rectangle_4622" data-name="Rectangle 4622" width="22" height="22" transform="translate(12027 4841)" fill="#fff" opacity="0"/>
    <g id="_000000ff" data-name="#000000ff" transform="translate(12029.609 4843.709)">
      <path id="Path_29" data-name="Path 29" d="M9.959,10.532a.76.76,0,0,1,.679-.347c2.48-.025,4.959.005,7.439,0,.4-.04.7.273.96.523q.682.664,1.343,1.349a2.212,2.212,0,0,1,.4.515,1.878,1.878,0,0,1,.1.759,3.026,3.026,0,0,1,1.547.531,1.487,1.487,0,0,1,.495.747,4.218,4.218,0,0,1,.263.889c.035.548.016,1.1.022,1.646a1.193,1.193,0,0,1,.7,1.128,2.6,2.6,0,0,1-.531,1.216,3.7,3.7,0,0,0-.525.727,4.332,4.332,0,0,1-.444.83c.82.45,1.713.748,2.565,1.127a1.866,1.866,0,0,1,.739.52,4.381,4.381,0,0,1,.708,1.564A5.673,5.673,0,0,1,26.631,26a.676.676,0,0,1-.7.635c-3.618-.005-7.237.027-10.855,0a.685.685,0,0,1-.73-.584,7.318,7.318,0,0,1,.291-2.1c-1.352-.029-2.706.019-4.057-.037a.749.749,0,0,1-.727-.792c.026-1.078-.014-2.156.01-3.234-.013-.961,0-1.921,0-2.881-.026-.94.017-1.881-.008-2.82,0-.92.014-1.839.021-2.759a3.468,3.468,0,0,1,.08-.892m1,.727q0,5.794,0,11.588c1.394,0,2.788,0,4.183,0a2.218,2.218,0,0,1,.725-.605c.883-.421,1.827-.707,2.686-1.18-.263-.356-.392-.784-.624-1.156A2.614,2.614,0,0,1,17.1,18.02a1.17,1.17,0,0,1,.627-.872c0-.489.011-.977.023-1.465a2.3,2.3,0,0,1,.822-1.72,2.522,2.522,0,0,1,1.213-.592c0-.127,0-.254,0-.381-.563-.549-1.116-1.108-1.672-1.664a.163.163,0,0,0-.149-.066h-7m8.556,3.458a5.478,5.478,0,0,0,.358.8,1.481,1.481,0,0,0,.606.076,1.915,1.915,0,0,1,.791-1,2.8,2.8,0,0,0-1.755.121m1.959,1.6a.926.926,0,0,1-.706.452,2.543,2.543,0,0,1-1.712-.345,2.77,2.77,0,0,1-.155.549c-.094.261-.066.545-.142.81a1.7,1.7,0,0,1-.553.416,1.652,1.652,0,0,0,.56.934,1.241,1.241,0,0,1,.338.572,1.9,1.9,0,0,0,.754,1.032,1.408,1.408,0,0,0,.954.119,1.551,1.551,0,0,0,.913-.867c.118-.228.132-.512.33-.693a2.88,2.88,0,0,0,.735-1.052c-.2-.144-.48-.191-.592-.434a5.061,5.061,0,0,1-.107-.981,1.932,1.932,0,0,0-.3-1.142,4.005,4.005,0,0,0-.314.63m-2.626,5.857a4.358,4.358,0,0,0,1.628.268,4.18,4.18,0,0,0,1.641-.27c-.191-.118-.385-.231-.585-.333-.093-.058-.193.019-.284.043a2.587,2.587,0,0,1-1.786-.069c-.205.12-.407.244-.614.36m-1.234.541c-.4.149-.79.324-1.184.485a1.1,1.1,0,0,0-.558.658,6.5,6.5,0,0,0-.39,1.683q5.014.041,10.028,0a5.349,5.349,0,0,0-.559-1.99,1.109,1.109,0,0,0-.628-.447c-.341-.129-.669-.3-1.021-.4-.143.075-.245.207-.382.291a3.732,3.732,0,0,1-1.455.493,6.562,6.562,0,0,1-2.482-.106,2.749,2.749,0,0,1-1.147-.568C17.774,22.759,17.708,22.666,17.615,22.713Z" transform="translate(-9.854 -10.175)" fill="#e6aa55"/>
      <path id="Path_30" data-name="Path 30" d="M44.341,80.3a1.057,1.057,0,0,1,.5-.078c1.04-.011,2.081-.005,3.123-.006.345,0,.69-.008,1.034.029a2.066,2.066,0,0,1,.061.862c-.032.2-.284.183-.437.191-1.3,0-2.6.019-3.9-.011-.122-.028-.3.014-.373-.106A5.213,5.213,0,0,1,44.341,80.3Z" transform="translate(-42.261 -76.016)" fill="#e6aa55"/>
      <path id="Path_31" data-name="Path 31" d="M45.1,131.491q1.788-.011,3.577,0c.127.014.331-.018.366.147a3.853,3.853,0,0,1,0,.784c-.048.166-.242.133-.372.143-1.237.017-2.475.008-3.712.006a1.469,1.469,0,0,1-.625-.077,5.1,5.1,0,0,1,0-.943A2.991,2.991,0,0,1,45.1,131.491Z" transform="translate(-42.25 -124.21)" fill="#e6aa55"/>
      <path id="Path_32" data-name="Path 32" d="M44.4,182.8a3.144,3.144,0,0,1,.735-.049c.9.008,1.8-.009,2.7,0a9.065,9.065,0,0,1,1.162.042,1.643,1.643,0,0,1,.068.688c-.008.112.015.277-.116.324-.847.1-1.7-.005-2.552.043-.45.005-.9.009-1.35-.017a1.74,1.74,0,0,1-.718-.08,7.794,7.794,0,0,1,0-.8A.2.2,0,0,1,44.4,182.8Z" transform="translate(-42.248 -172.399)" fill="#e6aa55"/>
    </g>
  </g>
</svg>
