<svg xmlns="http://www.w3.org/2000/svg" width="22" height="22" viewBox="0 0 22 22">
  <g id="Group_18871" data-name="Group 18871" transform="translate(-12027 -5047)">
    <rect id="Rectangle_4625" data-name="Rectangle 4625" width="22" height="22" transform="translate(12027 5047)" fill="#fff" opacity="0"/>
    <g id="_231f20ff" data-name="#231f20ff" transform="translate(11743.198 4914.667)">
      <path id="Path_13272" data-name="Path 13272" d="M323.114,134a2.421,2.421,0,0,1,2.308.037,1.76,1.76,0,0,1,.925,1.482c.785.005,1.572-.007,2.357.005a.414.414,0,0,1,.46.387c.007.533.015,1.065,0,1.6a.407.407,0,0,1-.458.352q-4.47,0-8.941,0a.407.407,0,0,1-.459-.4c-.005-.52-.007-1.041,0-1.561-.016-.214.224-.392.468-.378.784-.012,1.567,0,2.351,0a1.77,1.77,0,0,1,.987-1.519m.737.625a1.028,1.028,0,0,0-.7.66.941.941,0,0,0,.691,1.121c.705.269,1.584-.285,1.506-.936C325.351,134.849,324.522,134.391,323.851,134.623Z" transform="translate(-29.433)" fill="#e6aa55"/>
      <path id="Path_13273" data-name="Path 13273" d="M287.907,154.505a3.6,3.6,0,0,1,1.063-.1,3.493,3.493,0,0,0-.086.833c-.664-.09-1.373.334-1.353.932q-.006,6.941,0,13.88a1.029,1.029,0,0,0,1.091.951q6.03,0,12.06,0a1.886,1.886,0,0,0,.866-.136.947.947,0,0,0,.53-.9v-13.7a.912.912,0,0,0-.436-.829,1.538,1.538,0,0,0-.919-.193,3.757,3.757,0,0,0-.084-.838,2.939,2.939,0,0,1,1.417.248,1.732,1.732,0,0,1,1,1.53c0,4.651.005,9.3,0,13.953a1.936,1.936,0,0,1-2.07,1.7q-6.233,0-12.468,0a1.9,1.9,0,0,1-1.964-1.785q0-6.936,0-13.873A1.8,1.8,0,0,1,287.907,154.505Z" transform="translate(0 -18.891)" fill="#e6aa55"/>
      <path id="Path_13274" data-name="Path 13274" d="M347.1,205.761c.423,0,.844,0,1.267,0,0,.282,0,.563,0,.844a2.189,2.189,0,0,1,1.089.494,1.7,1.7,0,0,1,.513,1.06c-.368,0-.736,0-1.1,0a.929.929,0,0,0-.426-.634c-.584-.329-1.6-.156-1.778.477-.132.426.3.771.7.954a7.147,7.147,0,0,1,2.332,1.287,1.516,1.516,0,0,1-.292,2.2,3.307,3.307,0,0,1-1.02.415c-.023.264-.007.527-.006.792-.425,0-.849,0-1.274,0,0-.252,0-.5.011-.755a2.089,2.089,0,0,1-1.24-.6,1.737,1.737,0,0,1-.416-1.184,10.466,10.466,0,0,0,1.1.024.976.976,0,0,0,.522.876,1.508,1.508,0,0,0,1.687-.382.747.747,0,0,0-.188-1.047c-.735-.508-1.713-.679-2.43-1.206a1.443,1.443,0,0,1-.443-1.885,1.982,1.982,0,0,1,1.394-.849C347.1,206.349,347.1,206.055,347.1,205.761Z" transform="translate(-52.932 -65.829)" fill="#e6aa55"/>
      <path id="Path_13275" data-name="Path 13275" d="M313.329,314.806a3.8,3.8,0,0,1,1.079-.068h8.923a3.722,3.722,0,0,1,1.081.07c0,.153-.022.39-.278.347q-5.262.008-10.522,0C313.353,315.2,313.327,314.963,313.329,314.806Z" transform="translate(-24.067 -165.412)" fill="#e6aa55"/>
      <path id="Path_13276" data-name="Path 13276" d="M313.454,331.064c-.036-.166-.027-.411.246-.392q5.271-.008,10.544,0a.235.235,0,0,1,.219.373,1.289,1.289,0,0,1-.427.052q-4.61,0-9.221,0A12.81,12.81,0,0,1,313.454,331.064Z" transform="translate(-24.165 -179.974)" fill="#e6aa55"/>
    </g>
  </g>
</svg>
