<svg xmlns="http://www.w3.org/2000/svg" width="22" height="22" viewBox="0 0 22 22">
  <g id="Group_18873" data-name="Group 18873" transform="translate(-12027 -5114)">
    <g id="Group_18872" data-name="Group 18872">
      <rect id="Rectangle_4628" data-name="Rectangle 4628" width="22" height="22" transform="translate(12027 5114)" fill="#fff" opacity="0"/>
      <path id="Icon_ionic-ios-settings" data-name="Icon ionic-ios-settings" d="M19.032,12.42a2.038,2.038,0,0,1,1.308-1.9,8.079,8.079,0,0,0-.978-2.355,2.066,2.066,0,0,1-.829.177,2.034,2.034,0,0,1-1.86-2.863A8.055,8.055,0,0,0,14.321,4.5a2.036,2.036,0,0,1-3.8,0,8.079,8.079,0,0,0-2.355.978A2.034,2.034,0,0,1,6.3,8.34a2,2,0,0,1-.829-.177A8.258,8.258,0,0,0,4.5,10.522a2.038,2.038,0,0,1,0,3.8,8.079,8.079,0,0,0,.978,2.355,2.035,2.035,0,0,1,2.685,2.685,8.126,8.126,0,0,0,2.355.978,2.033,2.033,0,0,1,3.795,0,8.079,8.079,0,0,0,2.355-.978,2.037,2.037,0,0,1,2.685-2.685,8.126,8.126,0,0,0,.978-2.355A2.048,2.048,0,0,1,19.032,12.42Zm-6.575,3.3a3.3,3.3,0,1,1,3.3-3.3A3.3,3.3,0,0,1,12.457,15.715Z" transform="translate(12025.58 5112.88)" fill="#e6aa55"/>
    </g>
  </g>
</svg>
