<svg xmlns="http://www.w3.org/2000/svg" width="36" height="36" viewBox="0 0 36 36">
  <g id="Group_60" data-name="Group 60" transform="translate(-604 -308)">
    <circle id="Ellipse_3" data-name="Ellipse 3" cx="18" cy="18" r="18" transform="translate(604 308)" fill="#030303"/>
    <g id="_000000ff" data-name="#000000ff" transform="translate(613 316)">
      <path id="Path_54" data-name="Path 54" d="M78.589,28.261a4.3,4.3,0,0,1,2.462,8.186,4.236,4.236,0,0,1-3.149.068,4.331,4.331,0,0,1-2.745-3.282,4.276,4.276,0,0,1,.341-2.562,4.322,4.322,0,0,1,3.091-2.409m-.116,1.121a3.238,3.238,0,1,0,3.907,4.341,3.184,3.184,0,0,0-.3-3.031A3.24,3.24,0,0,0,78.473,29.382Z" transform="translate(-70.792 -28.186)" fill="#e6aa55"/>
      <path id="Path_55" data-name="Path 55" d="M45.069,112.681a8.666,8.666,0,0,1,4.6.628.517.517,0,0,1,.161.831.612.612,0,0,1-.738.068,7.687,7.687,0,0,0-5.817.065,7.557,7.557,0,0,0-4.57,6.42c-.022.311.061.7-.21.931-.154.154-.381.1-.577.111-.125-.133-.307-.254-.294-.461a8.526,8.526,0,0,1,1.863-5.408A8.655,8.655,0,0,1,45.069,112.681Z" transform="translate(-37.62 -102.914)" fill="#e6aa55"/>
      <path id="Path_56" data-name="Path 56" d="M123.244,129.448a1,1,0,0,1,1.606-.093c.311.472.494,1.016.792,1.5a12.842,12.842,0,0,1,1.792.38,1.036,1.036,0,0,1,.277,1.524c-.354.392-.745.749-1.114,1.125a11.374,11.374,0,0,1,.277,1.648,1.025,1.025,0,0,1-1.315.911c-.526-.248-1.055-.489-1.581-.737a9.343,9.343,0,0,1-1.522.783,1.047,1.047,0,0,1-1.222-1.167c.072-.5.172-.993.274-1.487-.369-.361-.766-.695-1.114-1.077a1.027,1.027,0,0,1,.42-1.6c.555-.134,1.128-.179,1.691-.266.264-.47.472-.969.74-1.437m.14,1.871a1,1,0,0,1-.713.591c-.519.1-1.043.175-1.568.232a13.342,13.342,0,0,1,1.307,1.264c.268.682-.111,1.411-.184,2.1.505-.243.962-.588,1.486-.792.776-.137,1.375.526,2.052.791-.073-.664-.43-1.346-.2-2.01a17.3,17.3,0,0,1,1.279-1.351,10.527,10.527,0,0,1-1.717-.31c-.651-.369-.769-1.2-1.15-1.788C123.767,130.467,123.585,130.9,123.384,131.319Z" transform="translate(-110.688 -117.415)" fill="#e6aa55"/>
    </g>
  </g>
</svg>
