<svg xmlns="http://www.w3.org/2000/svg" width="25.528" height="25.528" viewBox="0 0 25.528 25.528">
  <g id="Icon_feather-eye-off" data-name="Icon feather-eye-off" transform="translate(0.268 0.268)">
    <path id="Path_6140" data-name="Path 6140" d="M18.434,19.935A10.067,10.067,0,0,1,12.5,21.994c-7,0-11-8-11-8A18.444,18.444,0,0,1,6.558,8.059M9.816,6.489A15.168,15.168,0,0,1,12.5,6c7,0,11,8,11,8a22.226,22.226,0,0,1-2.475,3.42m-6.4-1.3a3,3,0,1,1-4.239-4.239" transform="translate(0 -1.501)" fill="none" stroke="#3a3a3a" stroke-linecap="round" stroke-linejoin="round" stroke-width="2.5"/>
    <path id="Path_6141" data-name="Path 6141" d="M1.5,1.5,23.492,23.492" fill="none" stroke="#3a3a3a" stroke-linecap="round" stroke-linejoin="round" stroke-width="2.5"/>
  </g>
</svg>
