<svg xmlns="http://www.w3.org/2000/svg" xmlns:xlink="http://www.w3.org/1999/xlink" width="98.974" height="29.351" viewBox="0 0 98.974 29.351"><defs><style>.a{fill:#fcd203;}.b{clip-path:url(#a);}.c{fill:#f8ce07;}.d{fill:#f4ca0b;}.e{fill:#f0c710;}.f{fill:#ecc314;}.g{fill:#e7bf18;}.h{fill:#e3bb1c;}.i{fill:#dfb821;}.j{fill:#dbb425;}.k{fill:#d7b029;}.l{clip-path:url(#b);}.m{fill:#f4cb0b;}.n{fill:#e7c018;}.o{fill:#e3bc1c;}.p{fill:#dbb525;}.q{fill:#d7b129;}</style><clipPath id="a"><path d="M6.03,3.1H1.216a.3.3,0,0,0-.136.233,1.5,1.5,0,0,0,.039.718c.388,1.514.757,3.028,1.145,4.542.64,2.5,1.262,5.007,1.9,7.511.64,2.523,1.281,5.066,1.921,7.589.582,2.271,1.145,4.542,1.727,6.793.1.349.194.7.291,1.029A1.1,1.1,0,0,0,8.417,32a.431.431,0,0,0,.213.1h4.639a.2.2,0,0,0,.194-.116c.019-.058.039-.1.058-.155v-.349c-.019-.1-.039-.213-.058-.311-.33-1.359-.679-2.7-1.029-4.056-.6-2.407-1.223-4.813-1.824-7.239L8.689,12.3C8.068,9.874,7.466,7.486,6.864,5.1c-.116-.427-.213-.854-.33-1.262A1.307,1.307,0,0,0,6.03,3.1Z" transform="translate(-1.052 -3.1)"/></clipPath><clipPath id="b"><path d="M44.065,32H39.252a.36.36,0,0,1-.136-.233,1.778,1.778,0,0,1,.039-.718c.388-1.514.757-3.028,1.145-4.542.64-2.5,1.262-5.007,1.9-7.511.64-2.523,1.281-5.066,1.921-7.589.582-2.271,1.145-4.542,1.727-6.793.1-.349.194-.7.291-1.029a1.1,1.1,0,0,1,.311-.485.431.431,0,0,1,.213-.1H51.3a.2.2,0,0,1,.194.116c.019.058.039.1.058.155v.349c-.019.1-.039.213-.058.311-.33,1.359-.679,2.7-1.029,4.056-.6,2.407-1.223,4.813-1.824,7.239L46.724,22.8l-1.805,7.162c-.116.427-.213.854-.33,1.262A1.5,1.5,0,0,1,44.065,32Z" transform="translate(-39.096 -3)"/></clipPath></defs><g transform="translate(-1.052 -1.875)"><g transform="translate(22.876 1.875)"><path class="a" d="M125.922,3.1H114a.5.5,0,0,0-.5.5v27.89a.5.5,0,0,0,.5.5h11.917a.5.5,0,0,0,.5-.5v-4a.5.5,0,0,0-.5-.5h-7.414v-7.2h6.4a.5.5,0,0,0,.5-.5V15.541a.5.5,0,0,0-.5-.5h-6.4V7.855h7.414a.5.5,0,0,0,.5-.5V3.585A.485.485,0,0,0,125.922,3.1Z" transform="translate(-113.5 -2.862)"/><path class="a" d="M204.921,18.976a6.309,6.309,0,0,0,2.543-2.814,10.662,10.662,0,0,0,.815-4.386c0-5.764-2.543-8.676-7.55-8.676H194.3a.5.5,0,0,0-.5.5v27.89a.5.5,0,0,0,.5.5h4a.5.5,0,0,0,.5-.5V20.063h1.533l3.61,11.568a.478.478,0,0,0,.466.349h4.231a.506.506,0,0,0,.408-.213.461.461,0,0,0,.058-.446ZM198.788,7.855h1.572a2.761,2.761,0,0,1,2.407.873,3.14,3.14,0,0,1,.388,1.2,11.97,11.97,0,0,1,.116,1.786,11.97,11.97,0,0,1-.116,1.786,3.576,3.576,0,0,1-.369,1.165,1.682,1.682,0,0,1-.757.66,3.737,3.737,0,0,1-1.475.252h-1.786V7.855Z" transform="translate(-178.215 -2.862)"/><path class="a" d="M290.963,3.1H279.493a.5.5,0,0,0-.5.5V7.35a.5.5,0,0,0,.5.5h6.424l-7.278,19.933a.567.567,0,0,0-.039.175v3.532a.5.5,0,0,0,.5.5h11.878a.5.5,0,0,0,.5-.5V27.73a.5.5,0,0,0-.5-.5h-6.968l7.434-20.3a.567.567,0,0,0,.039-.175V3.585A.542.542,0,0,0,290.963,3.1Z" transform="translate(-246.556 -2.862)"/><path class="a" d="M370.222,3.1H358.3a.5.5,0,0,0-.5.5v27.89a.5.5,0,0,0,.5.5h11.917a.5.5,0,0,0,.5-.5v-4a.5.5,0,0,0-.5-.5h-7.414v-7.2h6.4a.5.5,0,0,0,.5-.5V15.541a.5.5,0,0,0-.5-.5h-6.4V7.855h7.414a.5.5,0,0,0,.5-.5V3.585A.51.51,0,0,0,370.222,3.1Z" transform="translate(-310.385 -2.862)"/><path class="a" d="M450.48,5.994a7.288,7.288,0,0,0-1.669-2.329,7.747,7.747,0,0,0-2.329-1.339,7.609,7.609,0,0,0-5.163,0,7.118,7.118,0,0,0-2.29,1.339,6.675,6.675,0,0,0-1.689,2.329,7.58,7.58,0,0,0-.641,3.183V23.909a7.453,7.453,0,0,0,.641,3.222,6.534,6.534,0,0,0,1.689,2.232,6.888,6.888,0,0,0,2.31,1.4,7.478,7.478,0,0,0,2.581.466,7.56,7.56,0,0,0,2.581-.466,7.467,7.467,0,0,0,2.329-1.378,6.7,6.7,0,0,0,1.65-2.232,7.453,7.453,0,0,0,.64-3.222V9.178A8.233,8.233,0,0,0,450.48,5.994Zm-8.152,1.436a2.3,2.3,0,0,1,1.572-.563,2.364,2.364,0,0,1,1.572.563,2.174,2.174,0,0,1,.621,1.766V23.928a2.267,2.267,0,0,1-.621,1.766,2.3,2.3,0,0,1-1.572.563,2.364,2.364,0,0,1-1.572-.563,2.174,2.174,0,0,1-.621-1.766V9.178A2.194,2.194,0,0,1,442.329,7.431Z" transform="translate(-373.971 -1.875)"/></g><g transform="translate(1.052 2.093)"><g transform="translate(0 0.019)"><path class="a" d="M6.03,3.1H1.216a.3.3,0,0,0-.136.233,1.5,1.5,0,0,0,.039.718c.388,1.514.757,3.028,1.145,4.542.64,2.5,1.262,5.007,1.9,7.511.64,2.523,1.281,5.066,1.921,7.589.582,2.271,1.145,4.542,1.727,6.793.1.349.194.7.291,1.029A1.1,1.1,0,0,0,8.417,32a.431.431,0,0,0,.213.1h4.639a.2.2,0,0,0,.194-.116c.019-.058.039-.1.058-.155v-.349c-.019-.1-.039-.213-.058-.311-.33-1.359-.679-2.7-1.029-4.056-.6-2.407-1.223-4.813-1.824-7.239L8.689,12.3C8.068,9.874,7.466,7.486,6.864,5.1c-.116-.427-.213-.854-.33-1.262A1.307,1.307,0,0,0,6.03,3.1Z" transform="translate(-1.052 -3.1)"/></g><g transform="translate(0 0.019)"><g class="b"><path class="a" d="M22.56,30.564a.175.175,0,0,1,.019-.1c.058-.408.194-.815.291-1.223.116-.427.213-.854.33-1.281.213-.854.427-1.708.66-2.562.213-.854.427-1.708.66-2.562.078-.33.175-.64.252-.97.64-2.484,1.262-4.988,1.9-7.472.66-2.6,1.339-5.221,2-7.822.33-1.262.64-2.523.97-3.785a3.93,3.93,0,0,1,.272-.66.862.862,0,0,1,.155-.213.352.352,0,0,1,.272-.116h4.7a.2.2,0,0,1,.194.1c.039.039.039.1.058.155a1.756,1.756,0,0,1-.078.835c-.078.272-.136.543-.213.815-.136.563-.291,1.126-.427,1.689-.64,2.523-1.281,5.027-1.921,7.55-.679,2.64-1.339,5.26-2.019,7.9-.679,2.678-1.359,5.357-2.057,8.035-.116.485-.252.99-.388,1.475a3.5,3.5,0,0,1-.155.408.923.923,0,0,1-.369.446h-4.7c-.078,0-.194.019-.252-.019a.268.268,0,0,1-.058-.078A.749.749,0,0,1,22.56,30.564Z" transform="translate(-18.378 -2.052)"/><path class="c" d="M24.243,30.564a.175.175,0,0,1,.019-.1c.058-.408.194-.815.291-1.223.116-.427.213-.854.33-1.281.213-.854.427-1.708.66-2.562.213-.854.427-1.708.66-2.562.078-.33.175-.64.252-.97.64-2.484,1.262-4.988,1.9-7.472.66-2.6,1.339-5.221,2-7.822.33-1.262.64-2.523.97-3.785a3.93,3.93,0,0,1,.272-.66.862.862,0,0,1,.155-.213.352.352,0,0,1,.272-.116h4.7a.2.2,0,0,1,.194.1c.039.039.039.1.058.155a1.756,1.756,0,0,1-.078.835c-.078.272-.136.543-.213.815-.136.563-.291,1.126-.427,1.689-.64,2.523-1.281,5.027-1.921,7.55-.679,2.64-1.339,5.26-2.018,7.9-.679,2.678-1.359,5.357-2.057,8.035-.116.485-.252.99-.388,1.475a3.5,3.5,0,0,1-.155.408.923.923,0,0,1-.369.446h-4.7c-.078,0-.194.019-.252-.019a.268.268,0,0,1-.058-.078A.666.666,0,0,1,24.243,30.564Z" transform="translate(-19.731 -2.052)"/><path class="d" d="M25.907,30.564a.175.175,0,0,1,.019-.1c.058-.408.194-.815.291-1.223.116-.427.213-.854.33-1.281.213-.854.427-1.708.66-2.562.213-.854.427-1.708.66-2.562.078-.33.175-.64.252-.97.64-2.484,1.262-4.988,1.9-7.472.66-2.6,1.339-5.221,2-7.822.33-1.262.64-2.523.97-3.785a3.93,3.93,0,0,1,.272-.66.862.862,0,0,1,.155-.213A.352.352,0,0,1,33.69,1.8h4.7a.2.2,0,0,1,.194.1c.039.039.039.1.058.155a1.756,1.756,0,0,1-.078.835c-.078.272-.136.543-.213.815-.136.563-.291,1.126-.427,1.689-.64,2.523-1.281,5.027-1.921,7.55-.679,2.64-1.339,5.26-2.019,7.9-.679,2.678-1.359,5.357-2.057,8.035-.116.485-.252.99-.388,1.475a3.5,3.5,0,0,1-.155.408.923.923,0,0,1-.369.446h-4.7c-.078,0-.194.019-.252-.019A.268.268,0,0,1,26,31.107.6.6,0,0,1,25.907,30.564Z" transform="translate(-21.065 -2.052)"/><path class="e" d="M27.558,30.564a.175.175,0,0,1,.019-.1c.058-.408.194-.815.291-1.223.116-.427.213-.854.33-1.281.213-.854.427-1.708.66-2.562.213-.854.427-1.708.66-2.562.078-.33.175-.64.252-.97.64-2.484,1.262-4.988,1.9-7.472.66-2.6,1.339-5.221,2-7.822.33-1.262.64-2.523.97-3.785a3.93,3.93,0,0,1,.272-.66.862.862,0,0,1,.155-.213.352.352,0,0,1,.272-.116h4.7a.2.2,0,0,1,.194.1c.039.039.039.1.058.155a1.756,1.756,0,0,1-.078.835c-.078.272-.136.543-.213.815-.136.563-.291,1.126-.427,1.689-.64,2.523-1.281,5.027-1.921,7.55-.7,2.64-1.359,5.279-2.038,7.9-.679,2.678-1.359,5.357-2.057,8.035-.116.485-.252.99-.388,1.475a3.5,3.5,0,0,1-.155.408.923.923,0,0,1-.369.446h-4.7c-.078,0-.194.019-.252-.019a.268.268,0,0,1-.058-.078A.854.854,0,0,1,27.558,30.564Z" transform="translate(-22.405 -2.052)"/><path class="f" d="M29.207,30.564a.175.175,0,0,1,.019-.1c.058-.408.194-.815.291-1.223.116-.427.213-.854.33-1.281.213-.854.427-1.708.66-2.562.213-.854.427-1.708.66-2.562.078-.33.175-.64.252-.97.64-2.484,1.262-4.988,1.9-7.472.66-2.6,1.339-5.221,2-7.822.33-1.262.64-2.523.97-3.785a3.93,3.93,0,0,1,.272-.66.862.862,0,0,1,.155-.213A.352.352,0,0,1,36.99,1.8h4.7a.2.2,0,0,1,.194.1c.039.039.039.1.058.155a1.756,1.756,0,0,1-.078.835c-.078.272-.136.543-.213.815-.136.563-.291,1.126-.427,1.689-.64,2.523-1.281,5.027-1.921,7.55-.679,2.64-1.339,5.26-2.019,7.9-.679,2.678-1.359,5.357-2.057,8.035-.116.485-.252.99-.388,1.475a3.5,3.5,0,0,1-.155.408.923.923,0,0,1-.369.446h-4.7c-.078,0-.194.019-.252-.019a.268.268,0,0,1-.058-.078A.6.6,0,0,1,29.207,30.564Z" transform="translate(-23.725 -2.052)"/><path class="g" d="M30.86,30.564a.175.175,0,0,1,.019-.1c.058-.408.194-.815.291-1.223.116-.427.213-.854.33-1.281.213-.854.427-1.708.66-2.562.213-.854.427-1.708.66-2.562.078-.33.175-.64.252-.97.64-2.484,1.262-4.988,1.9-7.472.66-2.6,1.339-5.221,2-7.822.33-1.262.64-2.523.97-3.785a3.93,3.93,0,0,1,.272-.66.862.862,0,0,1,.155-.213.352.352,0,0,1,.272-.116h4.7a.2.2,0,0,1,.194.1c.039.039.039.1.058.155a1.756,1.756,0,0,1-.078.835c-.078.272-.136.543-.213.815-.136.563-.291,1.126-.427,1.689-.64,2.523-1.281,5.027-1.921,7.55-.679,2.64-1.339,5.26-2.019,7.9-.679,2.678-1.359,5.357-2.057,8.035-.116.485-.252.99-.388,1.475a3.5,3.5,0,0,1-.155.408.923.923,0,0,1-.369.446h-4.7c-.078,0-.194.019-.252-.019a.268.268,0,0,1-.058-.078A.749.749,0,0,1,30.86,30.564Z" transform="translate(-25.067 -2.052)"/><path class="h" d="M32.539,30.564a.175.175,0,0,1,.019-.1c.058-.408.194-.815.291-1.223.116-.427.213-.854.33-1.281.213-.854.427-1.708.66-2.562.213-.854.427-1.708.66-2.562.078-.33.175-.64.252-.97.64-2.484,1.262-4.988,1.9-7.472.66-2.6,1.339-5.221,2-7.822.33-1.262.64-2.523.97-3.785a3.93,3.93,0,0,1,.272-.66.862.862,0,0,1,.155-.213.352.352,0,0,1,.272-.116h4.7a.2.2,0,0,1,.194.1c.039.039.039.1.058.155a1.756,1.756,0,0,1-.078.835c-.078.272-.136.543-.213.815-.136.563-.291,1.126-.427,1.689-.64,2.523-1.281,5.027-1.921,7.55-.7,2.64-1.359,5.279-2.038,7.9-.679,2.678-1.359,5.357-2.057,8.035-.116.485-.252.99-.388,1.475a3.5,3.5,0,0,1-.155.408.923.923,0,0,1-.369.446h-4.7c-.078,0-.194.019-.252-.019a.268.268,0,0,1-.058-.078A.743.743,0,0,1,32.539,30.564Z" transform="translate(-26.416 -2.052)"/><path class="i" d="M34.16,30.564a.175.175,0,0,1,.019-.1c.058-.408.194-.815.291-1.223.116-.427.213-.854.33-1.281.213-.854.427-1.708.66-2.562.213-.854.427-1.708.66-2.562.078-.33.175-.64.252-.97.64-2.484,1.262-4.988,1.9-7.472.66-2.6,1.339-5.221,2-7.822.33-1.262.64-2.523.97-3.785a3.93,3.93,0,0,1,.272-.66.862.862,0,0,1,.155-.213.352.352,0,0,1,.272-.116h4.7a.2.2,0,0,1,.194.1c.039.039.039.1.058.155a1.756,1.756,0,0,1-.078.835c-.078.272-.136.543-.213.815-.136.563-.291,1.126-.427,1.689-.64,2.523-1.281,5.027-1.921,7.55-.679,2.64-1.339,5.26-2.019,7.9-.679,2.678-1.359,5.357-2.057,8.035-.116.485-.252.99-.388,1.475a3.5,3.5,0,0,1-.155.408.923.923,0,0,1-.369.446h-4.7c-.078,0-.194.019-.252-.019a.268.268,0,0,1-.058-.078A.749.749,0,0,1,34.16,30.564Z" transform="translate(-27.726 -2.052)"/><path class="j" d="M35.843,30.564a.175.175,0,0,1,.019-.1c.058-.408.194-.815.291-1.223.116-.427.213-.854.33-1.281.213-.854.427-1.708.66-2.562.213-.854.427-1.708.66-2.562.078-.33.175-.64.252-.97.64-2.484,1.262-4.988,1.9-7.472.66-2.6,1.339-5.221,2-7.822.33-1.262.64-2.523.97-3.785a3.93,3.93,0,0,1,.272-.66.862.862,0,0,1,.155-.213.352.352,0,0,1,.272-.116h4.7a.2.2,0,0,1,.194.1c.039.039.039.1.058.155a1.756,1.756,0,0,1-.078.835c-.078.272-.136.543-.213.815-.136.563-.291,1.126-.427,1.689-.64,2.523-1.281,5.027-1.921,7.55-.679,2.64-1.339,5.26-2.019,7.9-.679,2.678-1.359,5.357-2.057,8.035-.116.485-.252.99-.388,1.475a3.5,3.5,0,0,1-.155.408.923.923,0,0,1-.369.446h-4.7c-.078,0-.194.019-.252-.019a.268.268,0,0,1-.058-.078A.666.666,0,0,1,35.843,30.564Z" transform="translate(-29.079 -2.052)"/><path class="k" d="M37.5,30.564a.175.175,0,0,1,.019-.1c.058-.408.194-.815.291-1.223.116-.427.213-.854.33-1.281.213-.854.427-1.708.66-2.562.213-.854.427-1.708.66-2.562.078-.33.175-.64.252-.97.64-2.484,1.262-4.988,1.9-7.472.66-2.6,1.339-5.221,2-7.822.33-1.262.64-2.523.97-3.785a3.93,3.93,0,0,1,.272-.66.862.862,0,0,1,.155-.213.352.352,0,0,1,.272-.116h4.7a.2.2,0,0,1,.194.1c.039.039.039.1.058.155a1.756,1.756,0,0,1-.078.835c-.078.272-.136.543-.213.815-.136.563-.291,1.126-.427,1.689-.64,2.523-1.281,5.027-1.921,7.55-.7,2.64-1.378,5.279-2.038,7.9C44.879,23.518,44.2,26.2,43.5,28.875c-.116.485-.252.99-.388,1.475a3.5,3.5,0,0,1-.155.408.923.923,0,0,1-.369.446h-4.7c-.078,0-.194.019-.252-.019a.268.268,0,0,1-.058-.078A.661.661,0,0,1,37.5,30.564Z" transform="translate(-30.41 -2.052)"/></g></g><g transform="translate(7.384 0)"><g transform="translate(0)"><path class="a" d="M44.065,32H39.252a.36.36,0,0,1-.136-.233,1.778,1.778,0,0,1,.039-.718c.388-1.514.757-3.028,1.145-4.542.64-2.5,1.262-5.007,1.9-7.511.64-2.523,1.281-5.066,1.921-7.589.582-2.271,1.145-4.542,1.727-6.793.1-.349.194-.7.291-1.029a1.1,1.1,0,0,1,.311-.485.431.431,0,0,1,.213-.1H51.3a.2.2,0,0,1,.194.116c.019.058.039.1.058.155v.349c-.019.1-.039.213-.058.311-.33,1.359-.679,2.7-1.029,4.056-.6,2.407-1.223,4.813-1.824,7.239L46.724,22.8l-1.805,7.162c-.116.427-.213.854-.33,1.262A1.5,1.5,0,0,1,44.065,32Z" transform="translate(-39.096 -3)"/></g></g><g transform="translate(7.384 0)"><g class="l" transform="translate(0)"><path class="a" d="M51.1,13.3a.862.862,0,0,0,.019-.388c-.019-.155-.136-.213-.291-.213H38.911c-.194,0-.291.116-.311.311a.754.754,0,0,0,.039.291c.388,1.436.776,2.892,1.165,4.328a.484.484,0,0,0,.5.388h9.568c.019-.058.039-.136.058-.194C50.3,16.31,50.711,14.8,51.1,13.3Z" transform="translate(-38.696 -10.817)"/><path class="c" d="M51.1,12.4a.862.862,0,0,0,.019-.388c-.019-.155-.136-.213-.291-.213H38.911c-.194,0-.291.116-.311.311a.754.754,0,0,0,.039.291c.388,1.436.776,2.892,1.165,4.328a.484.484,0,0,0,.5.388h9.568c.019-.058.039-.136.058-.194C50.3,15.41,50.711,13.916,51.1,12.4Z" transform="translate(-38.696 -10.092)"/><path class="m" d="M51.1,11.5a.862.862,0,0,0,.019-.388c-.019-.155-.136-.213-.291-.213H38.911c-.194,0-.291.116-.311.311a.754.754,0,0,0,.039.291c.388,1.436.776,2.892,1.165,4.328a.484.484,0,0,0,.5.388h9.568c.019-.058.039-.136.058-.194C50.3,14.51,50.711,13.016,51.1,11.5Z" transform="translate(-38.696 -9.367)"/><path class="e" d="M51.1,10.7a.862.862,0,0,0,.019-.388c-.019-.155-.136-.213-.291-.213H38.911c-.194,0-.291.116-.311.311a.754.754,0,0,0,.039.291c.388,1.436.776,2.892,1.165,4.328a.484.484,0,0,0,.5.388h9.568c.019-.058.039-.136.058-.194C50.3,13.71,50.711,12.2,51.1,10.7Z" transform="translate(-38.696 -8.722)"/><path class="f" d="M51.1,9.8a.862.862,0,0,0,.019-.388c-.019-.155-.136-.213-.291-.213H38.911c-.194,0-.291.116-.311.311a.754.754,0,0,0,.039.291c.388,1.436.776,2.892,1.165,4.328a.484.484,0,0,0,.5.388h9.568c.019-.058.039-.136.058-.194C50.3,12.81,50.711,11.316,51.1,9.8Z" transform="translate(-38.696 -7.997)"/><path class="n" d="M51.1,8.9a.862.862,0,0,0,.019-.388c-.019-.155-.136-.213-.291-.213H38.911c-.194,0-.291.116-.311.311a.754.754,0,0,0,.039.291c.388,1.436.776,2.892,1.165,4.328a.484.484,0,0,0,.5.388h9.568c.019-.058.039-.136.058-.194C50.3,11.929,50.711,10.416,51.1,8.9Z" transform="translate(-38.696 -7.271)"/><path class="o" d="M51.1,8.1a.862.862,0,0,0,.019-.388c-.019-.155-.136-.213-.291-.213H38.911c-.194,0-.291.116-.311.311a.754.754,0,0,0,.039.291c.388,1.436.776,2.892,1.165,4.328a.484.484,0,0,0,.5.388h9.568c.019-.058.039-.136.058-.194C50.3,11.11,50.711,9.616,51.1,8.1Z" transform="translate(-38.696 -6.627)"/><path class="i" d="M51.1,7.2a.862.862,0,0,0,.019-.388c-.019-.155-.136-.213-.291-.213H38.911c-.194,0-.291.116-.311.311a.754.754,0,0,0,.039.291c.388,1.436.776,2.892,1.165,4.328a.484.484,0,0,0,.5.388h9.568c.019-.058.039-.136.058-.194C50.3,10.21,50.711,8.716,51.1,7.2Z" transform="translate(-38.696 -5.901)"/><path class="p" d="M51.1,6.4a.862.862,0,0,0,.019-.388c-.019-.155-.136-.213-.291-.213H38.911c-.194,0-.291.116-.311.311a.754.754,0,0,0,.039.291c.388,1.436.776,2.892,1.165,4.328a.484.484,0,0,0,.5.388h9.568c.019-.058.039-.136.058-.194C50.3,9.41,50.711,7.9,51.1,6.4Z" transform="translate(-38.696 -5.257)"/><path class="q" d="M51.1,5.5a.862.862,0,0,0,.019-.388c-.019-.155-.136-.213-.291-.213H38.911c-.194,0-.291.116-.311.311a.754.754,0,0,0,.039.291c.388,1.436.776,2.892,1.165,4.328a.484.484,0,0,0,.5.388h9.568c.019-.058.039-.136.058-.194C50.3,8.51,50.711,7.016,51.1,5.5Z" transform="translate(-38.696 -4.531)"/></g></g><g transform="translate(7.229 0)"><path class="a" d="M38.3,3.5V3.272c0-.019.019-.039.019-.078A.276.276,0,0,1,38.611,3H50.586a.264.264,0,0,1,.291.213.877.877,0,0,1-.019.388c-.369,1.417-.738,2.834-1.106,4.27a.61.61,0,0,1-.369.466h-9.53A.7.7,0,0,1,39.5,7.91c-.311-1.145-.621-2.31-.932-3.455C38.475,4.145,38.4,3.835,38.3,3.5Z" transform="translate(-38.3 -3)"/></g></g></g></svg>