<svg xmlns="http://www.w3.org/2000/svg" width="37" height="37" viewBox="0 0 37 37">
  <g id="Group_68631" data-name="Group 68631" transform="translate(19164 2537)">
    <rect id="Rectangle_8415" data-name="Rectangle 8415" width="37" height="37" transform="translate(-19164 -2537)" fill="#fff" opacity="0"/>
    <path id="Icon_awesome-undo" data-name="Icon awesome-undo" d="M14.93,15.773H.844A.844.844,0,0,1,0,14.93V.844A.844.844,0,0,1,.844,0H4.219a.844.844,0,0,1,.844.844V6.336A17.437,17.437,0,1,1,6.316,30.922.845.845,0,0,1,6.283,29.7l2.388-2.388a.842.842,0,0,1,1.153-.037,12.375,12.375,0,1,0-1.8-16.561h6.91a.844.844,0,0,1,.844.844V14.93a.844.844,0,0,1-.844.844Z" transform="translate(-19163 -2536)"/>
  </g>
</svg>
