<svg xmlns="http://www.w3.org/2000/svg" width="32" height="32" viewBox="0 0 32 32">
  <g id="Group_5665" data-name="Group 5665" transform="translate(0 0.467)">
    <rect id="Rectangle_4609" data-name="Rectangle 4609" width="32" height="32" transform="translate(0 -0.467)" fill="#fff" opacity="0"/>
    <g id="Group_5661" data-name="Group 5661" transform="translate(2.577 7.143)">
      <path id="Path_10558" data-name="Path 10558" d="M172.1,285.045q11.211-.015,22.422,0a3.681,3.681,0,0,1,1.157.093,1.962,1.962,0,0,1,1.4,1.81q0,2.235,0,4.47a.572.572,0,0,1-.29.49c-.195.124-.441.064-.656.122a1.441,1.441,0,0,0-1.126,1.211,1.367,1.367,0,0,0,.447,1.171,1.522,1.522,0,0,0,1.024.392.592.592,0,0,1,.6.574c0,1.5,0,3.008,0,4.512a1.99,1.99,0,0,1-1.817,1.853c-.517.03-1.035.006-1.552.014H172.3a2.111,2.111,0,0,1-1.415-.522,1.891,1.891,0,0,1-.651-1.425q0-2.216,0-4.432a.587.587,0,0,1,.481-.563,2.075,2.075,0,0,0,.7-.124,1.4,1.4,0,0,0,.884-1.491,1.442,1.442,0,0,0-1.217-1.187,1.542,1.542,0,0,1-.531-.09.572.572,0,0,1-.317-.5q0-2.216,0-4.433a1.9,1.9,0,0,1,.762-1.516,2.059,2.059,0,0,1,1.105-.421m-.645,1.934q0,1.955,0,3.91a2.768,2.768,0,0,1,1.071.5,2.529,2.529,0,0,1,1.009,1.928,2.482,2.482,0,0,1-.566,1.654,2.727,2.727,0,0,1-1.514.929c0,1.317,0,2.634,0,3.95a.8.8,0,0,0,.8.734c1.571.006,3.143,0,4.714,0,0-.2,0-.4,0-.606q.58,0,1.16,0c0,.2,0,.4,0,.605q8.36.006,16.719,0a1.185,1.185,0,0,0,.56-.087.774.774,0,0,0,.447-.692q0-1.954,0-3.908a2.776,2.776,0,0,1-1.05-.483,2.542,2.542,0,0,1-1.011-1.707,2.479,2.479,0,0,1,.545-1.89,2.729,2.729,0,0,1,1.516-.93q0-1.954,0-3.908a.8.8,0,0,0-.8-.773q-8.463,0-16.926,0c0,.2,0,.4,0,.6q-.58,0-1.16,0c0-.2,0-.4,0-.6-1.585,0-3.17,0-4.755,0A.792.792,0,0,0,171.46,286.979Z" transform="translate(-170.237 -285.039)" fill="#e6aa55"/>
      <path id="Path_10559" data-name="Path 10559" d="M335.75,344.444c.387,0,.775,0,1.162,0q0,.993,0,1.985c-.387,0-.774,0-1.161,0Q335.753,345.436,335.75,344.444Z" transform="translate(-329.013 -342.134)" fill="#e6aa55"/>
      <path id="Path_10560" data-name="Path 10560" d="M441.824,371.493a2.49,2.49,0,0,1,1.594.384,2.3,2.3,0,0,1,.934,1.19,2.212,2.212,0,0,1-.119,1.693,2.353,2.353,0,0,1-1.16,1.091,2.523,2.523,0,0,1-1.6.137A2.4,2.4,0,0,1,440,374.925a2.208,2.208,0,0,1-.277-1.612,2.249,2.249,0,0,1,.743-1.241,2.44,2.44,0,0,1,1.359-.579m-.014,1.062a1.227,1.227,0,0,0-.218,2.37,1.341,1.341,0,0,0,1.5-.386,1.2,1.2,0,0,0,.158-1.292A1.322,1.322,0,0,0,441.81,372.555Z" transform="translate(-428.706 -368.122)" fill="#e6aa55"/>
      <path id="Path_10561" data-name="Path 10561" d="M480.847,405.765a.627.627,0,0,1,.739.264.569.569,0,0,1-.115.712l-6.391,6.1a.657.657,0,0,1-.439.213.6.6,0,0,1-.644-.514.561.561,0,0,1,.177-.486l6.435-6.144A.644.644,0,0,1,480.847,405.765Z" transform="translate(-461.628 -401.04)" fill="#e6aa55"/>
      <path id="Path_10562" data-name="Path 10562" d="M335.76,409.424c.387,0,.774,0,1.161,0q0,.993,0,1.986c-.387,0-.773,0-1.16,0Q335.762,410.415,335.76,409.424Z" transform="translate(-329.023 -404.587)" fill="#e6aa55"/>
      <path id="Path_10563" data-name="Path 10563" d="M335.77,474.434c.387,0,.774,0,1.161,0q0,.992,0,1.985-.581,0-1.161,0Q335.771,475.426,335.77,474.434Z" transform="translate(-329.032 -467.072)" fill="#e6aa55"/>
      <path id="Path_10564" data-name="Path 10564" d="M568.07,497.352a2.354,2.354,0,0,1,1.378.6,2.152,2.152,0,0,1,.709,1.461,2.118,2.118,0,0,1-.28,1.2,2.306,2.306,0,0,1-1.4,1.062,2.434,2.434,0,0,1-1.626-.13,2.279,2.279,0,0,1-1.129-1.117,2.132,2.132,0,0,1-.032-1.687,2.23,2.23,0,0,1,.8-.986,2.393,2.393,0,0,1,1.576-.407m-.562,1.046a1.222,1.222,0,0,0-.911,1.054,1.192,1.192,0,0,0,.624,1.139,1.31,1.31,0,0,0,1.294-.024,1.185,1.185,0,0,0,.58-1.145,1.2,1.2,0,0,0-.668-.932A1.313,1.313,0,0,0,567.508,498.4Z" transform="translate(-549.444 -488.091)" fill="#e6aa55"/>
      <path id="Path_10565" data-name="Path 10565" d="M335.77,539.442q.58,0,1.16,0,0,.992,0,1.984c-.386,0-.772,0-1.157,0C335.767,540.767,335.773,540.1,335.77,539.442Z" transform="translate(-329.032 -529.554)" fill="#e6aa55"/>
      <path id="Path_10566" data-name="Path 10566" d="M335.76,604.426q.58,0,1.16,0c0,.663,0,1.326,0,1.989-.386-.005-.772,0-1.158,0Q335.763,605.419,335.76,604.426Z" transform="translate(-329.023 -592.012)" fill="#e6aa55"/>
    </g>
  </g>
</svg>
