<svg xmlns="http://www.w3.org/2000/svg" width="32" height="32" viewBox="0 0 32 32">
  <g id="Group_18842" data-name="Group 18842" transform="translate(-313 -322)">
    <g id="Group_5664" data-name="Group 5664" transform="translate(313 321.733)">
      <rect id="Rectangle_4608" data-name="Rectangle 4608" width="32" height="32" transform="translate(0 0.267)" fill="#fff" opacity="0"/>
    </g>
    <g id="_000000ff" data-name="#000000ff" transform="translate(279.318 324.28)">
      <path id="Path_13294" data-name="Path 13294" d="M46.921,0h9.462a1.565,1.565,0,0,1,.985.408q1.645,1.516,3.286,3.036A2.389,2.389,0,0,1,61.161,4a1.556,1.556,0,0,1,.207.823q0,7.743,0,15.486a2.527,2.527,0,0,1-.16,1.14,1.746,1.746,0,0,1-1.613,1.012q-3.837,0-7.674,0a7.174,7.174,0,0,1-6.627,4.974h-.281a7.593,7.593,0,0,1-1.684-.236,7.14,7.14,0,0,1-4.607-3.762,7.121,7.121,0,0,1,1.661-8.455,7.177,7.177,0,0,1,4.827-1.816q0-5.674,0-11.346a1.785,1.785,0,0,1,.442-1.24A1.755,1.755,0,0,1,46.921,0m-.639,1.77q0,5.749,0,11.5a7.158,7.158,0,0,1,5.891,8.126h7.421a.677.677,0,0,0,.7-.707q0-7.724,0-15.449c-1,0-2,0-3,0a1.344,1.344,0,0,1-1.123-.63,1.448,1.448,0,0,1-.206-.794q0-1.368,0-2.736H47a.68.68,0,0,0-.714.7m10.755-.206c0,.765,0,1.53,0,2.295a.279.279,0,0,0,.3.3c.838,0,1.676,0,2.513,0l-2.816-2.6M44.347,14.3a6.059,6.059,0,1,0,3.217.465A6.018,6.018,0,0,0,44.347,14.3Z" transform="translate(0)" fill="#e6aa55" stroke="#e6aa55" stroke-width="0.3"/>
      <path id="Path_13295" data-name="Path 13295" d="M239.261,124.764a1.947,1.947,0,0,1,.572-.041h7.507a.667.667,0,0,1,.431.117.537.537,0,0,1,.094.749.617.617,0,0,1-.525.207q-3.916,0-7.832,0a.564.564,0,0,1-.534-.3A.536.536,0,0,1,239.261,124.764Z" transform="translate(-190.157 -118.038)" fill="#e6aa55"/>
      <path id="Path_13296" data-name="Path 13296" d="M239.366,188.394a3.569,3.569,0,0,1,.461-.013h5.36a.614.614,0,0,1,.519.2.536.536,0,0,1-.087.749.662.662,0,0,1-.435.121q-2.84,0-5.68,0a.552.552,0,0,1-.587-.448A.527.527,0,0,1,239.366,188.394Z" transform="translate(-190.147 -178.284)" fill="#e6aa55"/>
      <path id="Path_13297" data-name="Path 13297" d="M388.482,187.9a.535.535,0,1,1-.121.927A.539.539,0,0,1,388.482,187.9Z" transform="translate(-331.388 -177.796)" fill="#e6aa55"/>
      <path id="Path_13298" data-name="Path 13298" d="M292.105,252.04a1.823,1.823,0,0,1,.521-.038q2.355,0,4.711,0a.611.611,0,0,1,.531.214.534.534,0,0,1-.1.745.681.681,0,0,1-.43.114c-1.662,0-3.324,0-4.986,0a.56.56,0,0,1-.575-.377A.533.533,0,0,1,292.105,252.04Z" transform="translate(-240.158 -238.496)" fill="#e6aa55"/>
      <path id="Path_13299" data-name="Path 13299" d="M78.733,283.982a5.134,5.134,0,0,1,3.06,9.634,4.969,4.969,0,0,1-3.146.534.53.53,0,0,1-.382-.662.546.546,0,0,1,.6-.379,4.268,4.268,0,0,0,1.771-.162,4.079,4.079,0,0,0,2.71-4.877,4.1,4.1,0,0,0-1.884-2.49,4.038,4.038,0,0,0-3.739-.206,4.057,4.057,0,0,0-1.932,5.553c.12.225.278.493.139.748a.533.533,0,0,1-.908.074,5.177,5.177,0,0,1-.677-3.564,5.153,5.153,0,0,1,4.386-4.2Z" transform="translate(-34.334 -268.722)" fill="#e6aa55"/>
      <path id="Path_13300" data-name="Path 13300" d="M318.822,315.71a1.649,1.649,0,0,1,.564-.049c1.053,0,2.106,0,3.159,0a.838.838,0,0,1,.544.117.536.536,0,0,1,.093.748.619.619,0,0,1-.524.209h-3.54a.582.582,0,0,1-.551-.285A.533.533,0,0,1,318.822,315.71Z" transform="translate(-265.475 -298.743)" fill="#e6aa55"/>
      <path id="Path_13301" data-name="Path 13301" d="M134.023,325.2a.536.536,0,0,1,.638-.426.662.662,0,0,1,.422.375c.385.674.783,1.34,1.162,2.017.506.02,1.013-.006,1.518.013a.531.531,0,0,1-.012,1.061c-.531.012-1.063,0-1.594.005a.965.965,0,0,1-.463-.066.68.68,0,0,1-.257-.277q-.626-1.084-1.256-2.166A.786.786,0,0,1,134.023,325.2Z" transform="translate(-90.874 -307.357)" fill="#e6aa55"/>
      <path id="Path_13302" data-name="Path 13302" d="M112.352,441.016a.535.535,0,1,1-.156.9A.539.539,0,0,1,112.352,441.016Z" transform="translate(-70.05 -417.346)" fill="#e6aa55"/>
    </g>
  </g>
</svg>
