<svg id="Group_3888" data-name="Group 3888" xmlns="http://www.w3.org/2000/svg" width="88.513" height="89.029" viewBox="0 0 88.513 89.029">
  <g id="Group_3887" data-name="Group 3887">
    <path id="Path_8804" data-name="Path 8804" d="M667.09,143.174a1.968,1.968,0,0,1,.245-.424l.249.124a2.117,2.117,0,0,1-.424.4Z" transform="translate(-608.492 -138.141)" fill="#27aae2"/>
    <path id="Path_8805" data-name="Path 8805" d="M511.39,172.14a2.59,2.59,0,0,1,.517.395l.02.244A.864.864,0,0,1,511.39,172.14Z" transform="translate(-468.085 -164.644)" fill="#27aae2"/>
    <path id="Path_8806" data-name="Path 8806" d="M691.59,188.311c.125-.092.254-.179.388-.261.128.084.256.169.39.247l.035.022C692.131,188.325,691.86,188.325,691.59,188.311Z" transform="translate(-630.585 -178.991)" fill="#27aae2"/>
    <path id="Path_8807" data-name="Path 8807" d="M500.858,255.06a2.107,2.107,0,0,1,.549.383,3.384,3.384,0,0,1-1.037-.242C500.532,255.151,500.694,255.1,500.858,255.06Z" transform="translate(-458.148 -239.419)" fill="#27aae2"/>
    <path id="Path_9746" data-name="Path 9746" d="M516.65,176.16a8.514,8.514,0,0,1,.737.575,2.689,2.689,0,0,1-.717-.331Z" transform="translate(-472.829 -168.269)" fill="#9df3ce"/>
    <path id="Path_9755" data-name="Path 9755" d="M498.662,252.877c-.062-.081-.293-.228-.128-.316.218-.209.437.053.616.175C498.986,252.779,498.824,252.826,498.662,252.877Z" transform="translate(-456.439 -237.094)" fill="#9df3ce"/>
    <path id="Path_9766" data-name="Path 9766" d="M646.37,427.61a.609.609,0,0,1,.056.686C646.4,428.067,646.378,427.839,646.37,427.61Z" transform="translate(-589.807 -395.02)" fill="#9df3ce"/>
    <path id="Path_10483" data-name="Path 10483" d="M120.036,93.843a7.592,7.592,0,0,1,.86-.213,5.274,5.274,0,0,1,1.766.8c.228.13.456.261.681.4.1.061.2.12.3.184.293.194.576.407.88.585a1.991,1.991,0,0,0,.9-.2,1.674,1.674,0,0,1,.912.277l.156.121c.283.245.55.507.817.769l.136.137c.261.267.524.535.772.814l.125.146c.236.283.467.571.684.868.042.06.085.121.128.183q.268.4.511.826c.3.544.556,1.108.815,1.672a5.058,5.058,0,0,1,.336,1.01,1.282,1.282,0,0,1-.173.805,3.1,3.1,0,0,0-.6.707c-.02.062-.06.187-.08.249a3.519,3.519,0,0,1-.5,1.05c-.074.083-.148.165-.225.245a1.17,1.17,0,0,1-1.065.246l.016.082c.058.44.1.883.163,1.323.029.29.066.579.1.867s.056.6.086.9.038.622.035.934-.022.615-.007.921c-.021.363.237.639.383.948a2.468,2.468,0,0,1,.1.863l-.039.083a6.284,6.284,0,0,0-.382.916,5.259,5.259,0,0,0-.28,1.1c-.024.173-.041.347-.058.522a21.311,21.311,0,0,1-.234,2.165c-.071.284-.148.567-.237.846a12.112,12.112,0,0,1-.874,1.83c-.141.259-.285.518-.421.78-.06.113-.119.228-.178.342-.135.244-.271.486-.4.733-.354.612-.663,1.248-.978,1.88a3.73,3.73,0,0,1-.355.5,2.43,2.43,0,0,1-1.162.584c.105.184.209.37.317.554l.056.094a2.468,2.468,0,0,1,.508,1.138c.008.229.029.457.056.686-.037.219.135.351.318.419.254.132.515.253.779.366a6.211,6.211,0,0,0,2.043.5c.3.04.6.07.9.113.266.056.534.107.8.165.286.067.571.139.857.207a18.221,18.221,0,0,0,2.026.434c.249.042.5.08.752.116.291.043.581.091.875.125.334.039.668.088,1,.131s.667.083,1,.133c.266.038.533.077.8.129a5.139,5.139,0,0,1,1.627.6c.062-.205.122-.411.2-.611.045-.112.094-.221.149-.328a4.584,4.584,0,0,1,.287-.45,4.71,4.71,0,0,1,.653-.644.942.942,0,0,1,.888.077,2.158,2.158,0,0,1,.223.509c-.032.475-.2.926-.271,1.4a2.919,2.919,0,0,0,.272,1.434c.112.313.187.637.284.957a7.227,7.227,0,0,0,1.807,2.747c.161.219.326.437.49.656.066.117.137.233.205.35a5.291,5.291,0,0,1,.39.863,1.771,1.771,0,0,0,.619.945c.121-.019.242-.039.363-.061.117.072.237.143.352.222a4.59,4.59,0,0,1,.647.67c.071.092.139.187.211.283l.1.136a.775.775,0,0,1,.746-.209,3.061,3.061,0,0,1,.287.171c0,.1.008.205.013.306a1.89,1.89,0,0,1-.327.891,14.836,14.836,0,0,1-5.391,5.443,7.113,7.113,0,0,1,1.795,2.744c1.019,2.288,1.793,4.673,2.766,6.979a25.211,25.211,0,0,0,2.963,5.17,2.791,2.791,0,0,0,1.035.821,3.736,3.736,0,0,1-1.805-1.32,14.627,14.627,0,0,1-2-3.292,7.4,7.4,0,0,0,1.059,2.757,10.89,10.89,0,0,0,.786.9,6.111,6.111,0,0,1-2.24-3.381,4.923,4.923,0,0,1-.272-1.306c-.045-.106-.1-.216-.141-.319a21.983,21.983,0,0,0,.854,3.322,4.289,4.289,0,0,0,.442,1c-.033.175-.067.35-.1.526-1.3-1.3-2.526-2.66-3.738-4.037-.137-.166-.281-.327-.423-.487-.12-.149-.245-.295-.369-.438-.173-.2-.343-.411-.517-.612-.123-.146-.244-.293-.364-.439-.144-.176-.291-.349-.436-.521s-.266-.32-.4-.48q-.222-.274-.446-.545l-.45-.552c-.092-.112-.183-.225-.273-.335-.713-.871-1.419-1.747-2.129-2.621-.819-1.046-1.723-2.028-2.47-3.127-.109-.175-.214-.352-.319-.527-.081.079-.16.157-.239.238-.143.141-.287.283-.424.43-.167.177-.327.361-.477.553a6.029,6.029,0,0,0-.35.493,4.683,4.683,0,0,0-.331.62,12.134,12.134,0,0,0-.642,2.209c-.043.179-.083.359-.123.539-.1.433-.2.867-.3,1.3-.012.053-.033.159-.045.212-.2.823-.395,1.649-.581,2.476q-.083.337-.159.678c-.308,1.314-.638,2.623-.94,3.939-.044.188-.091.375-.137.564-.175.721-.359,1.44-.516,2.166-.063.262-.128.525-.185.789-.322,1.318-.624,2.644-.832,3.986-.032.188-.065.376-.092.566a24.025,24.025,0,0,0-.081,6.915c.011.143.022.289.031.435a3.7,3.7,0,0,1-.713,2.663,11.261,11.261,0,0,1,.526,2.241,10.84,10.84,0,0,1,.141,2.185l.031.264q-15.33.006-30.662,0a49.833,49.833,0,0,1-.059-8.544,4.263,4.263,0,0,0-.322-.976,5.578,5.578,0,0,1-.054-2.448c.319-1.913.688-3.819,1.121-5.71A8.665,8.665,0,0,1,94.239,166a2.515,2.515,0,0,1-2.083-.724,6.827,6.827,0,0,1-.811-1.913,27.04,27.04,0,0,0-2.458-5.513,12.939,12.939,0,0,1-1.367-2.74c-.5-1.655-.719-3.385-1.291-5.02-.011-.04-.033-.119-.044-.159-.6-1.991-1.27-3.961-1.78-5.978a3.49,3.49,0,0,1-.1-1.283c0-.042.01-.128.014-.17a2.112,2.112,0,0,1,.492-.742,1.991,1.991,0,0,1,.071-.847,6.585,6.585,0,0,1-1.469-1.847,9.852,9.852,0,0,0-1.745-1.983,4.531,4.531,0,0,0-.919-.45,3.325,3.325,0,0,1-.978-.8c-.344-.379-.785-.648-1.148-1.006-.246-.238-.5-.467-.753-.694l-.1-.092c-.256-.246-.524-.479-.79-.712a1.822,1.822,0,0,0-.276-.224c-.222-.252-.439-.511-.683-.743a.374.374,0,0,0-.33-.063q-3.051.012-6.1-.027a9.2,9.2,0,0,1-1.462-.1c-.3-.063-.454-.342-.608-.573a.775.775,0,0,0-.044-.417,1.616,1.616,0,0,1,.812-.666,14.426,14.426,0,0,1,1.1-7.69,14.731,14.731,0,0,1,6.256-6.982c.153-.088.307-.173.466-.253a15.068,15.068,0,0,1,4.776-1.5,3.608,3.608,0,0,0,.838-.144,1.373,1.373,0,0,0,.22-.881,1.214,1.214,0,0,1-.465-.544.741.741,0,0,1,.785-.956c.283,0,.48.232.659.421l0,.071a.892.892,0,0,1-.341.891,1.965,1.965,0,0,0,.395,1.029l.486.023a14.2,14.2,0,0,1,4,.8c.2.071.395.152.591.233a13.323,13.323,0,0,1,7.072,6.9c.088.206.179.412.258.622a15.978,15.978,0,0,1,.608,2.211c.033.173.068.347.1.521.05.3.084.6.127.9.046.315.077.633.111.95.082,1.164.138,2.33.143,3.5a1.212,1.212,0,0,1,.734.154.713.713,0,0,1,.09,1.01,1.225,1.225,0,0,1-.837.415c-.139.011-.279.019-.418.023-.463,0-.925,0-1.388.014l-.481,0c-.474,0-.948,0-1.421.009l-.446,0c-.45,0-.9,0-1.348.016q-.261,0-.519.015l-.09.012a4.081,4.081,0,0,0-.726,2.662c.016.182.038.364.053.548a9.626,9.626,0,0,1-.027,1.259c-.03.134-.062.267-.1.4a10.11,10.11,0,0,1-.563,1.528,2.614,2.614,0,0,1,.579.945c.151.084.336.155.388.341.2.569.371,1.15.593,1.713l.059.142c.289.782.6,1.556.894,2.337a1.615,1.615,0,0,0,.187.436,20.9,20.9,0,0,0,1.583,3.494,3.136,3.136,0,0,0,.16.276,12.4,12.4,0,0,0,1.032,1.461,14.5,14.5,0,0,0,.963-3.33c.027-.159.05-.319.08-.476.339-1.968.468-3.965.731-5.945.025-.17.049-.339.076-.507q.324-2.075.856-4.108c.047-.168.1-.336.145-.5.2-.746.46-1.472.685-2.209.079-.234.165-.466.245-.7.274-.735.545-1.47.871-2.184.066-.151.131-.3.2-.45a3.885,3.885,0,0,1,.324-.552c.214-.043.429-.08.644-.122,1.31-.265,2.592-.657,3.881-1.011.245-.067.49-.132.735-.2.712-.186,1.423-.376,2.131-.581.232-.062.466-.12.7-.178a5.214,5.214,0,0,0,2.14-.912.9.9,0,0,0,.305-.3,5.584,5.584,0,0,0,1.022-1.3c.279-.55.514-1.122.792-1.673a2.782,2.782,0,0,1,.47-.542,2.849,2.849,0,0,1,1.135-.523c.081-.272.158-.543.232-.816s.141-.539.2-.81a8.528,8.528,0,0,0,.325-2.55c-.231.05-.5.183-.705,0a2.482,2.482,0,0,1-.6-1.255,8.737,8.737,0,0,1-.139-.871q-.035-.494-.027-.987c.019-.3.046-.59.077-.884s.091-.578.152-.863a16.712,16.712,0,0,1-1.473-.875,1.459,1.459,0,0,0-1.141-.3,1.906,1.906,0,0,1-.677-.233c-.189-.213-.4-.4-.592-.614-.128-.185-.246-.374-.361-.566a2.271,2.271,0,0,1,0-1.462,6.513,6.513,0,0,0,.283-.666,3.9,3.9,0,0,0,.239-.984,5.8,5.8,0,0,0-.017-.876,8.2,8.2,0,0,1-.2-.945c-.03-.3-.05-.59-.073-.886s-.027-.609-.072-.91c-.036-.206-.194-.372-.212-.582a3.942,3.942,0,0,1,.215-1.39,6.867,6.867,0,0,1,.39-.824,5.885,5.885,0,0,1,.364-.529,2.74,2.74,0,0,0,.342-.4,3.767,3.767,0,0,1,.5-.4c.079-.044.159-.088.24-.131.01-.154.021-.309.039-.463.346-.61,1.03-.858,1.592-1.217q.423-.242.842-.49c.1-.059.2-.115.305-.172.264-.145.527-.295.792-.44.167-.088.338-.17.506-.258.388-.182.59-.591.944-.822a1.836,1.836,0,0,1,.918-.334l.284-.444a3.857,3.857,0,0,1,.965-.257,8.076,8.076,0,0,0,1.981-.2m.249.138a10.252,10.252,0,0,1-2.317.355,1.532,1.532,0,0,0-.943.408,5.345,5.345,0,0,1,.917-.184c-.294.13-.573.293-.876.4a1.917,1.917,0,0,0-.939.259c-.759.441-.985,1.359-1.593,1.947-.122.129-.31.294-.211.491.175.274.438.478.627.743.316.409.4.941.706,1.357a2.6,2.6,0,0,0,1.185.756,1.447,1.447,0,0,1-1.336-.61,12.013,12.013,0,0,1-.671-1.287c-.236-.365-.627-.614-.8-1.02-.059-.231.133-.408.275-.558a3.959,3.959,0,0,0,.755-1.11c-1.092.708-2.233,1.339-3.332,2.036a1.2,1.2,0,0,0-.626.8,1.608,1.608,0,0,0,.481,1.024,6.185,6.185,0,0,0,2.189,1.186,6.811,6.811,0,0,1-1.613-.48,2.471,2.471,0,0,1-1.24-1.347,7.342,7.342,0,0,0-1.067,1,3.907,3.907,0,0,0-.727,2.254.557.557,0,0,0,.244.482,4.79,4.79,0,0,1,1.661,1.777c-.272-.25-.471-.568-.747-.814a4.354,4.354,0,0,0-1-.682,20.961,20.961,0,0,0,.188,2.274,2.5,2.5,0,0,0,.874,1.42c.245.21.55.329.809.52a2.273,2.273,0,0,1-1.516-.95,4.424,4.424,0,0,1-.368,1.575,2.608,2.608,0,0,0-.346,1.272,2.532,2.532,0,0,0,.994,1.608c.392.368.964.04,1.4.287a8.025,8.025,0,0,1,1.8,1.221,3.868,3.868,0,0,1,.388-.914,7.141,7.141,0,0,1,.022-1.512,20.561,20.561,0,0,0-.209-3.619,3.312,3.312,0,0,1-.031-1.188c.061.189.123.378.194.565.062.119.115.294.281.292.466.09.841-.33,1.3-.289.6.094.735.8,1.23,1.057.229.13.316-.22.452-.334a3.614,3.614,0,0,1,.048,1.951,13.144,13.144,0,0,1,7.494-1.38,5.277,5.277,0,0,1,3.528,1.7c-.069-1.15-.132-2.3-.121-3.457a6.945,6.945,0,0,0-.059-2.36,2.965,2.965,0,0,0-1.272-1.47,2.08,2.08,0,0,1,1.352,1.274,14.926,14.926,0,0,1,.449,2.706,1.024,1.024,0,0,0,.745-.115,2.365,2.365,0,0,0,.867-1.432c.1-.508.7-.684.837-1.168a2.041,2.041,0,0,0-.224-1.258,21.844,21.844,0,0,0-1.045-2.112,14.078,14.078,0,0,0-2.336-2.769,3.165,3.165,0,0,0-1.151-.895c-.378-.138-.721.118-1.076.2a3,3,0,0,1-1.18-.637c-.673-.422-1.365-.813-2.047-1.219a1.5,1.5,0,0,0-1.276-.029m-1.746,13.969a2.2,2.2,0,0,0-.831,1.132c-.2.5.022,1.1-.317,1.551a7.348,7.348,0,0,0-1.039,2.087c-.121.353-.184.724-.338,1.065-.191-.185-.378-.372-.56-.564-.067.057-.133.115-.2.173a2.837,2.837,0,0,0-.677-1.706.312.312,0,0,1,.342.094c-.017-.078-.031-.155-.043-.232-.126.048-.25.1-.374.144.336-.313-.078-.455-.243-.632-.079-.024-.157-.044-.236-.064-.1.11-.209.221-.31.333l.244-.145a.8.8,0,0,1,.645.212l-.11.21a.577.577,0,0,0-.761-.007,1.51,1.51,0,0,0-.381.735,7.665,7.665,0,0,0-.068,4.115c.1.3.24.689.6.756.236.08.385-.146.548-.271a12.328,12.328,0,0,1,.089,1.387,4.4,4.4,0,0,0,.744,2.256,8.514,8.514,0,0,0,2.611,2.009,11.36,11.36,0,0,0,4.548,1.875,2.239,2.239,0,0,0,2.172-.738c.457-.711.81-1.483,1.23-2.216.584-1.11,1.264-2.173,1.745-3.334.535-1.333.411-2.8.735-4.183a15.942,15.942,0,0,1,.659-1.687c-.213-.534-.834-.609-1.319-.742a3.024,3.024,0,0,0-1.2.012,1.6,1.6,0,0,1,.862-.222c-.154-.231-.5-.367-.5-.679a1.259,1.259,0,0,1,.423-.5,2.912,2.912,0,0,1,.8.242,2.207,2.207,0,0,0,.472.372,3.588,3.588,0,0,0-1.435-2.42,6.055,6.055,0,0,0-3.271-1.107,13.078,13.078,0,0,0-5.269.69m-.7.291a1.888,1.888,0,0,0-.891.443c.253.022.508.034.763.05l0-.1-.275-.144c.142-.029.289-.055.435-.073a1.708,1.708,0,0,0,.249-.339c-.1.052-.192.106-.286.16m-3.738,2.61.468.092c-.02-.068-.059-.205-.08-.273a6.107,6.107,0,0,1,.735.682l.032.086a1.337,1.337,0,0,0,.31-.7c.1.09.193.181.291.271.026-.117.052-.234.079-.35l.235.108c-.047-.135-.1-.268-.141-.4l.17-.027c0-.057-.016-.172-.022-.229a1.642,1.642,0,0,0,.336.172c-.093-.13-.191-.258-.282-.386a2.218,2.218,0,0,0,.794.239,2.146,2.146,0,0,1-.992-.824c.109.069.215.139.324.21.13-.1.255.019.382.057a2.323,2.323,0,0,0,.68.1c.013-.081.037-.24.05-.319a2.113,2.113,0,0,1-.938-.329,9.514,9.514,0,0,0,1.07.076,1.586,1.586,0,0,0-.761-.391,10.351,10.351,0,0,0-2.739,2.14m12.832-.02a.783.783,0,0,0,.407.163l-.15.161a2.678,2.678,0,0,0,1.148.46,2.473,2.473,0,0,1,.658.4,1.975,1.975,0,0,0-1.37-1.387c-.232.018-.531.012-.692.2M81.71,112.573a.505.505,0,0,0,.606.19c.253-.16.2-.494.2-.747a2.1,2.1,0,0,1,.122.619.564.564,0,0,0-.279-.869.588.588,0,0,0-.647.808m33.462-.395c-.086.118-.063.19.069.214.084-.12.062-.191-.069-.214m-33.048,1.8c.226-.007.451-.01.677-.007a3.555,3.555,0,0,1-.528-1.041c-.187.305,0,.713-.148,1.048m-5.663,1.705a8.113,8.113,0,0,0-1.57,1.364,8.863,8.863,0,0,0-2.423,5.385,9.357,9.357,0,0,1,5.047-5.575,9.5,9.5,0,0,0-3.34,5.737,11.605,11.605,0,0,0,.2,5.731,4.733,4.733,0,0,0,1.268,2.1c.112.115.284.067.427.08,4.418-.045,8.836-.034,13.255-.045,2.288-.006,4.577-.1,6.864.009-.088-3.042-.243-6.2-1.585-8.99a13.128,13.128,0,0,0-9.788-7.1,14.326,14.326,0,0,0-8.358,1.3m35.256,8.237a5.948,5.948,0,0,1-1.076,1.933c.4.4.745.851,1.145,1.25a6.023,6.023,0,0,0,2.239,1.411c-.8-.009-1.432-.585-2.194-.748a13.107,13.107,0,0,0-5.793.032,12.1,12.1,0,0,0-1.788.348c-1.6.422-3.179.916-4.807,1.2a30.821,30.821,0,0,1,1.872,5.865,33.116,33.116,0,0,1,.862,6.147c.428-.015.483-.536.636-.842-.524,5.654-.459,11.353-1.19,16.989a26.357,26.357,0,0,1-1.657,5.757c-.829,2.226-1.722,4.433-2.39,6.714a4.373,4.373,0,0,0,.145,3.193,6.235,6.235,0,0,0,2.794,2.517,5.615,5.615,0,0,0,1.466.642c.871.18,1.755.289,2.64.385a3.881,3.881,0,0,1-.372-2.6c.086-.556.028-1.12.077-1.678.313-4.1.692-8.2,1.174-12.29,1.021-8.974,2.629-17.869,4.448-26.711a7.51,7.51,0,0,1,.969-2.758,2.209,2.209,0,0,1,1.593-.873c1.1-.14,2.142.382,3.238.317a1.511,1.511,0,0,0,1.423-.606,3.5,3.5,0,0,0-.361-2.737,12.344,12.344,0,0,0-3.141-2.946,4.34,4.34,0,0,1-.932-.833,1.024,1.024,0,0,1,.035-.918,3.514,3.514,0,0,0-1.056,1.839m3.146-.891a1.545,1.545,0,0,0-.747.8,8.949,8.949,0,0,1,3.065,3.14,4.081,4.081,0,0,1,.311,1.96,3.4,3.4,0,0,1,1.343-1.823,6.614,6.614,0,0,1,3.483-.281,3.382,3.382,0,0,1,.487-2.156q-.32-.019-.638-.048a1.174,1.174,0,0,1-1.1,1.14,4.263,4.263,0,0,1-1.8-.439,10.933,10.933,0,0,1-1.735-.92c-.512-.36-.854-.913-1.381-1.252a1.3,1.3,0,0,0-1.283-.116m7.371,3.976c-1.15-.024-2.428-.241-3.452.421-.869.581-1,1.7-1.491,2.545a1.276,1.276,0,0,1-1.145.51,7.889,7.889,0,0,1-2.658-.325,2.517,2.517,0,0,0-2.031.47,3.964,3.964,0,0,0-1.028,2.224,291.838,291.838,0,0,0-4.8,30.562c-.377,3.56-.691,7.127-.89,10.7a3.882,3.882,0,0,0,.247,2.248,3.413,3.413,0,0,0,1.732,1.287,25.486,25.486,0,0,0,3.02.942,33.871,33.871,0,0,0,9.656,1.1,28.028,28.028,0,0,0,4.013-.355,5.542,5.542,0,0,0,3.126-1.518,3.187,3.187,0,0,0,.75-2.3,7.13,7.13,0,0,1-2.107,1.3,5.056,5.056,0,0,1-2.538.561,9.574,9.574,0,0,0,1.926-1.827,10.973,10.973,0,0,0,1.818-4.441,19.013,19.013,0,0,0,.393-4.861,22.192,22.192,0,0,1,.106-5.016,26.186,26.186,0,0,1,1.588-5.5,18.042,18.042,0,0,0-.065,4.225,1.717,1.717,0,0,0,.449,1.023c.772-3.314,1.479-6.643,2.282-9.949a11.542,11.542,0,0,1,1.208-3.354,10.512,10.512,0,0,1,1.426-1.61,2.37,2.37,0,0,0,.8-1.968,1.877,1.877,0,0,1-1.17-.894,1.717,1.717,0,0,1-.081-1.318,4.379,4.379,0,0,1-.62-1.022,2.024,2.024,0,0,1,.138-1.141,2.561,2.561,0,0,1-.552-.957,3.622,3.622,0,0,1,.1-1.207.755.755,0,0,1-.288-.47c-.026-.4-.067-.791-.073-1.187a.727.727,0,0,1,.223-.6,9.835,9.835,0,0,1,1.453-.9,2.572,2.572,0,0,1,1.1-.459,9.269,9.269,0,0,1,1.818.165,17.2,17.2,0,0,1,1.314-3.479,8.026,8.026,0,0,0-1.854-.42c-1.542-.229-3.1-.363-4.631-.653-.854-.158-1.683-.425-2.53-.607-.688-.146-1.392-.174-2.084-.284a5.28,5.28,0,0,1-2.409-1.22,3.842,3.842,0,0,1-.5,1.812,2.73,2.73,0,0,1-1.017.269c-.813.093-1.623.217-2.439.286a1.722,1.722,0,0,1-.556-.079l.008-.047a2.61,2.61,0,0,0,1.323-.09c.76-.135,1.512-.315,2.276-.427.16-.025.37-.083.413-.265a10.806,10.806,0,0,0,.3-2.144,3.655,3.655,0,0,1-2,.24m17.263,1.7a2.8,2.8,0,0,0-1.16,1.883c-.156,1.118.262,2.223.127,3.341a1.954,1.954,0,0,1-.243.626c-1.044-.068-2.075-.277-3.116-.365a3.8,3.8,0,0,0-1.864.736c-.321.183-.716.3-.919.631a2.88,2.88,0,0,0-.015,1.342c.022.356.418.51.725.531a2.459,2.459,0,0,0,1.787-.711,2.115,2.115,0,0,1-2.239.913,2.755,2.755,0,0,0,.016,1.318c.135.3.362.671.747.634a4.748,4.748,0,0,1,1.559.082c-.634.025-1.262.1-1.893.142-.051.2-.106.4-.14.6-.113.452.235.831.465,1.181.42.414,1.078.1,1.6.253a3.968,3.968,0,0,1-1.542.091c0,.18,0,.36,0,.541a1.593,1.593,0,0,0,.877,1.305c.438.176.882-.076,1.32-.125.309-.06.559.172.829.276.422.171.851-.185,1.276-.036a7.593,7.593,0,0,0,1.931.749,2.155,2.155,0,0,0,1.67-.686,14.527,14.527,0,0,0,2.781-3.339,5.573,5.573,0,0,0,.689-1.747,1.755,1.755,0,0,1-.8-.578c-.017.067-.049.2-.065.267a5.515,5.515,0,0,0-1.125-2.467,13.576,13.576,0,0,1-1.581-2.068c-.357-.662-.526-1.4-.842-2.081a3.338,3.338,0,0,1-.267-1.373c-.177-.049-.4-.141-.39-.362a4.288,4.288,0,0,1,.456-1.068,7.194,7.194,0,0,0-.268,1.058l.229.168c.082-.481.4-.968.22-1.459a.533.533,0,0,0-.829-.2m-63.977,2.3c6.174,0,12.349-.046,18.523-.037a6.271,6.271,0,0,1,1.863.128c-.234.224-.587.168-.883.2q-9.685-.01-19.368-.047a1.079,1.079,0,0,0-.25.679c6.638-.051,13.276-.126,19.914-.159a3.3,3.3,0,0,0,1.468-.1c.225-.1.4-.478.107-.6a3.768,3.768,0,0,0-1.073-.04,3.545,3.545,0,0,1,.423-.361c-2.335.118-4.675.039-7.01.03q-6.688.025-13.377,0c-.187-.016-.242.2-.338.315m61.776,2.145a4.841,4.841,0,0,1-.491.98c.458.04.913.116,1.37.172.338-1.119-.088-2.273-.053-3.41a9.523,9.523,0,0,0-.826,2.258M99,132.075a14.085,14.085,0,0,0,1.131,3.133,10.927,10.927,0,0,0-1.819-2.579c-.494,1.675-.918,3.37-1.246,5.085-.409,2.06-.584,4.155-.813,6.239a22.625,22.625,0,0,1-1.438,6.3,13.294,13.294,0,0,1,3.267,7.345c-.159-.51-.265-1.033-.422-1.543a14.412,14.412,0,0,0-2.6-5.055,20.821,20.821,0,0,1-1.641-2.086,23.136,23.136,0,0,1-1.9-4c-.637-1.588-1.23-3.194-1.854-4.787a4.272,4.272,0,0,1-2.045,1.635c-.778.35-1.56.69-2.359.986a.953.953,0,0,1-.822-.026,3.8,3.8,0,0,0,.1,1.049c.3,1.264.751,2.487,1.166,3.717.63,1.877,1.276,3.753,1.723,5.684a14.1,14.1,0,0,0,.731,2.467c.379.965.971,1.823,1.44,2.744-.478-1.919-.874-3.856-1.3-5.787a21.168,21.168,0,0,0,2.724,4.6c.264.252.567.6.97.538.271-.133.254-.468.309-.721a20.612,20.612,0,0,0,2.023,5.627c.346.543.709,1.232,1.394,1.375a2.283,2.283,0,0,0,1.3-.99,18.271,18.271,0,0,0,1.7-2.81,4.725,4.725,0,0,0,.439-1.035,82.1,82.1,0,0,0,2.509-13.563,43.2,43.2,0,0,0-.209-7.944,17.75,17.75,0,0,0-.315-2.114A10.456,10.456,0,0,0,99,132.075m-22.89.225c.716.8,1.628,1.4,2.369,2.182.423.462.987.767,1.387,1.253a3.937,3.937,0,0,0,2.115,1.2c-.073.032-.145.067-.218.1a7.989,7.989,0,0,1,1.946,2.207,6.355,6.355,0,0,0,1.394,1.63c1.4-.415,2.42-1.517,3.688-2.173a6.461,6.461,0,0,0,.688-2.5,15.408,15.408,0,0,1,0-2.172,4.1,4.1,0,0,1,.66-1.746c-.585.016-1.174-.018-1.758.027-.721.343-.612,1.41-1.369,1.7a8.356,8.356,0,0,1-2.6.213c-.658.062-1.181-.388-1.765-.6a5.454,5.454,0,0,1-.847-.424,11.4,11.4,0,0,1,.9,1.675,3.012,3.012,0,0,1,.751.588,5.477,5.477,0,0,0,.837.67,3.866,3.866,0,0,0,1.883.687,2.069,2.069,0,0,1,1.361,1.423,3.657,3.657,0,0,0-.809-1.031,3.392,3.392,0,0,0-1.206-.359,4.825,4.825,0,0,1-1.674-.78,1.575,1.575,0,0,1,.083.639,2.278,2.278,0,0,0-1.119-1.519c0,.175-.006.351-.02.527-.2-.247-.151-.591-.27-.871a12.145,12.145,0,0,0-1.4-2.538c-.46,0-.919-.01-1.378.015a17.429,17.429,0,0,1,1.821,3.565,2.966,2.966,0,0,1-.691-1.167c-.13-.428-.559-.648-.917-.858l-.108.166a5.828,5.828,0,0,0-1.666-1.724c-.691,0-1.383,0-2.075,0m2.289.006c.434.484,1,.831,1.419,1.333a5.384,5.384,0,0,1,.816.527,10.172,10.172,0,0,0-1.038-1.863c-.4.008-.8,0-1.2,0m2.929,0c-.093.1.029.289.151.283l-.06.067c.218.228.471.546.8.57.039.035.118.106.156.142l.1-.023c.323.176.68.283,1,.468a4.244,4.244,0,0,0,2.034.2c.6-.024,1.34.059,1.778-.445a6.586,6.586,0,0,1,.8-1.27c-2.168,0-4.336-.007-6.5.023l-.251-.015m53.559,11.744a1.069,1.069,0,0,0,.221.5,51.634,51.634,0,0,0,3.836,4.512,9.781,9.781,0,0,0,2.631,2.169,1.741,1.741,0,0,0,1.279.185.884.884,0,0,0,.4-1.172c-.227-.521-.455-1.041-.7-1.551a5.966,5.966,0,0,0-1.742-2.5c-.168-.272.084-.557.075-.829-.132-.178-.279-.343-.406-.523a2.863,2.863,0,0,1-2.085-.363,2.8,2.8,0,0,0-.836-.391c-.33-.026-.648.127-.978.091-.322-.016-.559-.293-.879-.313A4.482,4.482,0,0,0,134.884,144.047Z" transform="translate(-67.47 -93.63)"/>
    <path id="Path_10484" data-name="Path 10484" d="M524.054,494.931c.4-.091.95.212.87.684a1.138,1.138,0,0,1-1.254.951c-.364-.139-.3-.639-.157-.92C523.656,495.387,523.729,495.017,524.054,494.931Z" transform="translate(-478.916 -455.714)"/>
    <path id="Path_10485" data-name="Path 10485" d="M580.894,588.791a1.177,1.177,0,0,1,.944-.681l-.271.088.181.161c.356.1.8.391.7.818a1.026,1.026,0,0,1-1.2.6.78.78,0,0,1-.359-.984m.619-.466Z" transform="translate(-530.713 -539.755)"/>
    <path id="Path_10486" data-name="Path 10486" d="M573.927,667.333c.461-.2.941.368.786.81a.916.916,0,0,1-1.237.62A.836.836,0,0,1,573.927,667.333Z" transform="translate(-523.839 -611.159)"/>
    <path id="Path_10487" data-name="Path 10487" d="M563.508,742.449a.966.966,0,0,1,1.1.225.688.688,0,0,1-.167.817,1.7,1.7,0,0,1-.752.484.594.594,0,0,1-.516-.889C563.305,742.886,563.3,742.585,563.508,742.449Z" transform="translate(-514.72 -678.863)"/>
    <path id="Path_10488" data-name="Path 10488" d="M477.088,813.143a.884.884,0,0,1,1.172.628,1.038,1.038,0,0,1-1.011.921.623.623,0,0,1-.517-.962C476.9,813.554,476.807,813.21,477.088,813.143Z" transform="translate(-436.73 -742.642)"/>
    <path id="Path_10489" data-name="Path 10489" d="M470.484,900.958c.127-.154.271-.336.489-.342a.586.586,0,0,1,.642.623c-.025.549-.534,1.147-1.123,1.011a.834.834,0,0,1-.223-1.228Z" transform="translate(-430.85 -821.56)"/>
    <path id="Path_10490" data-name="Path 10490" d="M539.845,917.2a.653.653,0,0,1,.886.712,1.059,1.059,0,0,1-1.131.74.73.73,0,0,1-.423-.987C539.287,917.389,539.609,917.332,539.845,917.2Z" transform="translate(-493.091 -836.471)"/>
    <path id="Path_10498" data-name="Path 10498" d="M500.857,96.028a1.5,1.5,0,0,1,1.276.029c.682.406,1.374.8,2.047,1.219a3,3,0,0,0,1.18.637c.355-.086.7-.342,1.076-.2a3.165,3.165,0,0,1,1.151.895,14.077,14.077,0,0,1,2.336,2.769,21.832,21.832,0,0,1,1.045,2.112,2.04,2.04,0,0,1,.224,1.258c-.137.484-.742.66-.837,1.168a2.365,2.365,0,0,1-.867,1.432,1.024,1.024,0,0,1-.745.115,14.925,14.925,0,0,0-.449-2.706,2.08,2.08,0,0,0-1.352-1.274,2.965,2.965,0,0,1,1.272,1.47,6.944,6.944,0,0,1,.059,2.36c-.011,1.153.052,2.306.121,3.457a5.277,5.277,0,0,0-3.528-1.7,13.144,13.144,0,0,0-7.494,1.38,3.613,3.613,0,0,0-.048-1.951c-.136.114-.223.464-.452.334-.5-.255-.634-.963-1.23-1.057-.462-.041-.837.379-1.3.289-.166,0-.219-.173-.281-.292-.071-.187-.133-.376-.194-.565a3.312,3.312,0,0,0,.031,1.188,20.564,20.564,0,0,1,.209,3.619,7.141,7.141,0,0,0-.022,1.512,3.871,3.871,0,0,0-.388.914,8.024,8.024,0,0,0-1.8-1.221c-.438-.247-1.01.082-1.4-.287a2.531,2.531,0,0,1-.994-1.608,2.608,2.608,0,0,1,.346-1.272,4.425,4.425,0,0,0,.368-1.575,2.273,2.273,0,0,0,1.516.95c-.259-.191-.565-.309-.809-.52a2.5,2.5,0,0,1-.874-1.42,20.951,20.951,0,0,1-.188-2.274,4.354,4.354,0,0,1,1,.682c.275.247.474.564.747.814a4.79,4.79,0,0,0-1.661-1.777.557.557,0,0,1-.244-.482,3.907,3.907,0,0,1,.727-2.254,7.342,7.342,0,0,1,1.067-1,2.472,2.472,0,0,0,1.24,1.347,6.81,6.81,0,0,0,1.613.48,6.185,6.185,0,0,1-2.189-1.186,1.608,1.608,0,0,1-.481-1.023,1.2,1.2,0,0,1,.626-.8c1.1-.7,2.239-1.328,3.332-2.036a3.958,3.958,0,0,1-.755,1.11c-.142.15-.334.327-.275.558.177.406.568.654.8,1.02a12.008,12.008,0,0,0,.671,1.287,1.447,1.447,0,0,0,1.336.61,2.6,2.6,0,0,1-1.185-.756c-.3-.416-.39-.949-.706-1.357-.189-.264-.452-.469-.627-.743-.1-.2.089-.362.211-.491.608-.587.834-1.506,1.593-1.947a1.917,1.917,0,0,1,.939-.259c.3-.107.582-.27.876-.4a5.345,5.345,0,0,0-.917.184,1.532,1.532,0,0,1,.943-.408,10.253,10.253,0,0,0,2.317-.355m-3.742,2.739q.379,1.375.756,2.751c-.13-.936-.313-1.866-.5-2.793q.138-.029.28-.056c.146.592.221,1.2.389,1.79a3.31,3.31,0,0,0,0-1.118,1.688,1.688,0,0,0-.419-1.1c-.313-.155-.625.225-.5.526m8.109-.26c-.327.736-.605,1.492-.9,2.24a1.837,1.837,0,0,0,.358-.753c.057.062.113.127.17.192.321-.651,1.056-1.2.859-2.007a.557.557,0,0,0-.482.329m1.979,1.682a7.92,7.92,0,0,0-.754,1.511l.163-.218a2.375,2.375,0,0,0,1.224-1.135c.122-.194.051-.528-.218-.536a1.041,1.041,0,0,0-.414.379m-3.827,1c.138-.027.274-.061.413-.094.089.146.081.426.3.43s.354.2.534.3c.326.112.692.044,1.014.182.115.094.208.212.316.314a.463.463,0,0,0-.343-.47c-.421-.079-1.013.044-1.219-.443-.286.064-.419-.21-.616-.352a.692.692,0,0,0-.4.13m-2.446.231a1.651,1.651,0,0,0-.594-.093c-.212.068-.37.239-.578.317a2.22,2.22,0,0,0-.649.115,1.189,1.189,0,0,0-.51.847,1.778,1.778,0,0,1,.485-.7,1.455,1.455,0,0,1,.666-.161c.259-.042.449-.256.7-.319.2.035.382.12.58.155.213.056.3-.227.5-.236.12.083.236.176.363.249a1.151,1.151,0,0,0-.27-.447c-.271-.055-.414.329-.691.272m8.252.789a3.633,3.633,0,0,0-1.363,1.134,3.613,3.613,0,0,1,1.567-1.072l.246.224a1.732,1.732,0,0,0-1.161.49,4.68,4.68,0,0,1,1.385-.365.472.472,0,0,0-.673-.411m-17.655.942a.8.8,0,0,0,.236.754,11.921,11.921,0,0,0,2.077,1.037c-.158-.2-.447-.244-.654-.384a2.291,2.291,0,0,0-.651-.716,6.5,6.5,0,0,0-1.008-.691m5.076.644c-.324-.006-.344.532-.689.407a9.614,9.614,0,0,1-1.11,1.771c-.281.376-.209.873-.375,1.293-.078.158-.187.3-.276.447a1.091,1.091,0,0,0,.433-.551,5.155,5.155,0,0,1,.193-.907,6.838,6.838,0,0,1,.679-.891,5.87,5.87,0,0,0,.548-.972c.356.13.29-.454.614-.45a.629.629,0,0,0,.711-.474,1.237,1.237,0,0,1-.728.328m12.253,1.341c0,.32.346.1.522.209a.984.984,0,0,0,1.106-.246.291.291,0,0,0-.212-.477,3.624,3.624,0,0,0-.945.464c-.117.092-.34.169-.382-.043a2.674,2.674,0,0,1,1.1-1.131,2,2,0,0,0-1.185,1.224m-14.831,1.982a11.282,11.282,0,0,1,.875-1.682,3.56,3.56,0,0,0,.531-.873,6.082,6.082,0,0,0-1.407,2.555m-3.707,4.523a1.876,1.876,0,0,0,1.239.4c.32.007.629.108.947.137a2.189,2.189,0,0,0-.794-.279,8.566,8.566,0,0,0-1-.765.464.464,0,0,0-.385-.071C490.109,111.174,490.158,111.494,490.318,111.639Z" transform="translate(-448.267 -95.9)" fill="#fff"/>
    <path id="Path_10499" data-name="Path 10499" d="M645.51,121.982c.029-.2.386-.114.271.085-.1.441-.489.728-.628,1.146l-.224.129C645.112,122.885,645.32,122.437,645.51,121.982Z" transform="translate(-588.508 -119.311)" fill="#fff"/>
    <path id="Path_10500" data-name="Path 10500" d="M386.013,385.149a3.514,3.514,0,0,1,1.056-1.839,1.024,1.024,0,0,0-.035.918,4.34,4.34,0,0,0,.932.833,12.346,12.346,0,0,1,3.141,2.946,3.5,3.5,0,0,1,.361,2.737,1.511,1.511,0,0,1-1.423.606c-1.1.065-2.141-.458-3.238-.317a2.209,2.209,0,0,0-1.593.873,7.509,7.509,0,0,0-.969,2.758c-1.818,8.842-3.427,17.737-4.448,26.711-.481,4.087-.86,8.186-1.174,12.29-.048.558.01,1.122-.077,1.678a3.881,3.881,0,0,0,.372,2.6c-.885-.1-1.769-.205-2.64-.385a5.62,5.62,0,0,1-1.467-.642,6.236,6.236,0,0,1-2.793-2.517,4.372,4.372,0,0,1-.145-3.193c.668-2.281,1.561-4.488,2.39-6.714a26.357,26.357,0,0,0,1.657-5.757c.731-5.636.666-11.335,1.19-16.989-.153.305-.208.827-.637.842a33.119,33.119,0,0,0-.862-6.147,30.825,30.825,0,0,0-1.872-5.865c1.629-.285,3.21-.779,4.807-1.2a12.105,12.105,0,0,1,1.788-.348,13.107,13.107,0,0,1,5.793-.032c.762.163,1.391.74,2.194.748a6.022,6.022,0,0,1-2.239-1.411c-.4-.4-.741-.855-1.145-1.25a5.948,5.948,0,0,0,1.076-1.933m-8.869,16.41a9.121,9.121,0,0,0,.193-1.884A14.079,14.079,0,0,0,377.144,401.559Z" transform="translate(-341.991 -355.079)" fill="#fff"/>
    <path id="Path_10501" data-name="Path 10501" d="M463.957,431.24a3.655,3.655,0,0,0,2-.24,10.814,10.814,0,0,1-.3,2.144c-.042.182-.253.241-.413.265-.764.112-1.516.293-2.276.427a2.61,2.61,0,0,1-1.323.09l-.008.047a1.723,1.723,0,0,0,.556.079c.816-.069,1.626-.193,2.439-.286a2.729,2.729,0,0,0,1.017-.269,3.842,3.842,0,0,0,.5-1.812,5.28,5.28,0,0,0,2.409,1.22c.692.11,1.4.137,2.084.284.848.182,1.677.449,2.53.607,1.533.29,3.089.424,4.631.653a8.03,8.03,0,0,1,1.854.42,17.2,17.2,0,0,0-1.314,3.479,9.271,9.271,0,0,0-1.818-.165,2.572,2.572,0,0,0-1.1.459,9.828,9.828,0,0,0-1.453.9.727.727,0,0,0-.223.6c.006.4.047.791.073,1.187a.755.755,0,0,0,.288.47,3.622,3.622,0,0,0-.1,1.207,2.56,2.56,0,0,0,.552.957,2.024,2.024,0,0,0-.138,1.141,4.379,4.379,0,0,0,.62,1.022,1.717,1.717,0,0,0,.081,1.318,1.877,1.877,0,0,0,1.17.894,2.371,2.371,0,0,1-.8,1.968,10.511,10.511,0,0,0-1.426,1.61,11.542,11.542,0,0,0-1.208,3.354c-.8,3.306-1.51,6.635-2.282,9.949a1.716,1.716,0,0,1-.449-1.023,18.039,18.039,0,0,1,.065-4.225,26.187,26.187,0,0,0-1.588,5.5,22.193,22.193,0,0,0-.106,5.016,19.016,19.016,0,0,1-.393,4.861,10.975,10.975,0,0,1-1.818,4.441,9.573,9.573,0,0,1-1.926,1.827,5.056,5.056,0,0,0,2.538-.561,7.129,7.129,0,0,0,2.107-1.3,3.187,3.187,0,0,1-.75,2.3,5.542,5.542,0,0,1-3.126,1.518,28.028,28.028,0,0,1-4.013.355,33.871,33.871,0,0,1-9.656-1.1,25.481,25.481,0,0,1-3.02-.942,3.413,3.413,0,0,1-1.732-1.287,3.882,3.882,0,0,1-.247-2.248c.2-3.573.513-7.141.89-10.7a291.846,291.846,0,0,1,4.8-30.562,3.964,3.964,0,0,1,1.028-2.224,2.517,2.517,0,0,1,2.031-.469,7.89,7.89,0,0,0,2.658.325,1.276,1.276,0,0,0,1.145-.51c.492-.845.622-1.965,1.491-2.545,1.024-.662,2.3-.445,3.452-.421m-9.327,6.055c-.325.085-.4.456-.541.714-.139.281-.207.781.157.92a1.138,1.138,0,0,0,1.254-.951c.08-.471-.466-.775-.87-.684m6.988.994c-.392.228-.665.877-.283,1.23.61.42,1.526-.429,1.175-1.07-.179-.308-.608-.247-.892-.16m-8.419,7.406a1.372,1.372,0,0,0-.493,1.418.625.625,0,0,0,1.018.168,1.129,1.129,0,0,0,.067-1.311c-.15-.14-.381-.349-.591-.275m6.475,1.418a.78.78,0,0,0,.359.984,1.026,1.026,0,0,0,1.2-.6c.1-.427-.346-.719-.7-.818l-.181-.161.271-.088a1.177,1.177,0,0,0-.944.681m-7.971,6.112a1.016,1.016,0,0,0-.339,1.347.82.82,0,0,0,1.208.018.9.9,0,0,0-.029-1.292.838.838,0,0,0-.84-.073m7.878,1.026a.836.836,0,0,0-.451,1.43.916.916,0,0,0,1.237-.62c.155-.442-.325-1.01-.786-.81m-8.824,6.876a7.58,7.58,0,0,1-.464.609.628.628,0,0,0,.4,1.033.955.955,0,0,0,.755-1.315.531.531,0,0,0-.7-.327m7.524.537c-.209.136-.2.437-.332.637a.594.594,0,0,0,.516.889,1.7,1.7,0,0,0,.752-.484.688.688,0,0,0,.167-.817.966.966,0,0,0-1.1-.225m-8.431,6.914c-.281.068-.187.412-.356.587a.623.623,0,0,0,.517.962,1.038,1.038,0,0,0,1.011-.921.884.884,0,0,0-1.172-.628m7.006,1.006a1.592,1.592,0,0,0-.276.915.569.569,0,0,0,.78.457,1.234,1.234,0,0,0,.815-.963.486.486,0,0,0-.4-.5c-.326-.086-.607.265-.922.089m-7.731,7.892-.214.064a.834.834,0,0,0,.223,1.228c.588.136,1.1-.462,1.123-1.011a.586.586,0,0,0-.642-.623c-.218.006-.362.188-.489.342m7.121,1.332c-.236.13-.558.187-.668.465a.73.73,0,0,0,.423.987,1.059,1.059,0,0,0,1.131-.74A.653.653,0,0,0,456.246,478.808Z" transform="translate(-409.419 -398.085)" fill="#fff"/>
    <path id="Path_10502" data-name="Path 10502" d="M254.668,485.03a10.456,10.456,0,0,1,2.135,3.488,17.747,17.747,0,0,1,.315,2.114,43.2,43.2,0,0,1,.209,7.944,82.1,82.1,0,0,1-2.509,13.563,4.726,4.726,0,0,1-.439,1.035,18.274,18.274,0,0,1-1.7,2.81,2.283,2.283,0,0,1-1.3.99c-.685-.143-1.048-.832-1.394-1.375a20.612,20.612,0,0,1-2.023-5.627c-.055.253-.038.588-.309.721-.4.062-.706-.286-.97-.538a21.17,21.17,0,0,1-2.724-4.6c.425,1.931.821,3.868,1.3,5.787-.469-.921-1.061-1.78-1.44-2.744a14.1,14.1,0,0,1-.731-2.467c-.447-1.931-1.093-3.807-1.723-5.684-.415-1.23-.862-2.453-1.166-3.717a3.8,3.8,0,0,1-.1-1.049.953.953,0,0,0,.822.026c.8-.3,1.581-.637,2.359-.986a4.272,4.272,0,0,0,2.045-1.635c.625,1.592,1.218,3.2,1.854,4.786a23.14,23.14,0,0,0,1.9,4,20.828,20.828,0,0,0,1.641,2.086,14.412,14.412,0,0,1,2.6,5.055c.157.51.263,1.033.422,1.543a13.294,13.294,0,0,0-3.267-7.345,22.625,22.625,0,0,0,1.438-6.3c.229-2.084.4-4.179.813-6.239.327-1.715.751-3.41,1.245-5.085a10.928,10.928,0,0,1,1.819,2.579A14.083,14.083,0,0,1,254.668,485.03Z" transform="translate(-223.367 -446.808)" fill="#fff"/>
    <path id="Path_10503" data-name="Path 10503" d="M825.488,565.47a5.438,5.438,0,0,1,.391.456,104.778,104.778,0,0,1,6.8,11.764,15.381,15.381,0,0,1,1.658,5.533,4.948,4.948,0,0,1-1.082,3.429,3.392,3.392,0,0,1-2.264,1.175,12.674,12.674,0,0,1-2.988-.089,5.8,5.8,0,0,1-2.992-1.855,4.288,4.288,0,0,1-.442-1,21.981,21.981,0,0,1-.854-3.322c.042.1.1.213.141.319a4.927,4.927,0,0,0,.272,1.306,6.111,6.111,0,0,0,2.24,3.381,10.877,10.877,0,0,1-.786-.9,7.4,7.4,0,0,1-1.059-2.757,14.625,14.625,0,0,0,2,3.292,3.736,3.736,0,0,0,1.805,1.32,2.791,2.791,0,0,1-1.035-.821,25.206,25.206,0,0,1-2.963-5.17c-.973-2.306-1.747-4.691-2.766-6.979a7.115,7.115,0,0,0-1.795-2.744,14.836,14.836,0,0,0,5.391-5.443A1.89,1.89,0,0,0,825.488,565.47Z" transform="translate(-746.102 -519.346)" fill="#fff"/>
    <path id="Path_10504" data-name="Path 10504" d="M753.79,605.3a4.477,4.477,0,0,1,.81-.176c.32.021.557.3.879.313.33.035.648-.117.978-.091a2.8,2.8,0,0,1,.836.391,2.863,2.863,0,0,0,2.085.363c.127.18.274.345.406.523.01.272-.243.557-.075.829a5.965,5.965,0,0,1,1.742,2.5c.25.51.477,1.03.7,1.551a.884.884,0,0,1-.4,1.172,1.741,1.741,0,0,1-1.279-.185,9.781,9.781,0,0,1-2.631-2.169,51.648,51.648,0,0,1-3.836-4.512A1.071,1.071,0,0,1,753.79,605.3Z" transform="translate(-686.602 -555.102)" fill="#fff"/>
    <path id="Path_10512" data-name="Path 10512" d="M669.58,139.35q.146-.186.293-.37c.039.05.118.149.158.2-.069.1-.136.2-.2.3Z" transform="translate(-610.737 -134.741)" fill="#9ef2ce"/>
    <path id="Path_10514" data-name="Path 10514" d="M666.08,147.07l.069.1-.179.1Z" transform="translate(-607.482 -142.036)" fill="#9ef2ce"/>
    <path id="Path_10517" data-name="Path 10517" d="M695.54,186.048l.458-.218c.045.109.3.252.149.374l-.217.09C695.8,186.217,695.668,186.133,695.54,186.048Z" transform="translate(-634.147 -176.989)" fill="#9ef2ce"/>
    <path id="Path_10537" data-name="Path 10537" d="M948.06,673.31a1.232,1.232,0,0,1,.362.763C948.3,673.819,948.174,673.567,948.06,673.31Z" transform="translate(-861.863 -616.586)" fill="#9ef2ce"/>
    <path id="Path_10540" data-name="Path 10540" d="M885.68,790.34q.324.178.651.354A.607.607,0,0,1,885.68,790.34Z" transform="translate(-805.611 -722.121)" fill="#9ef2ce"/>
    <path id="Path_10632" data-name="Path 10632" d="M566.808,119.927c-.126-.3.186-.682.5-.526a1.688,1.688,0,0,1,.419,1.1,3.311,3.311,0,0,1,0,1.118c-.168-.587-.243-1.2-.389-1.79q-.141.027-.28.056c.192.926.375,1.856.5,2.793Q567.188,121.3,566.808,119.927Z" transform="translate(-518.034 -117.052)" fill="#010202"/>
    <path id="Path_10633" data-name="Path 10633" d="M641.334,119.419a.557.557,0,0,1,.482-.329c.2.81-.537,1.356-.858,2.007-.057-.065-.113-.13-.17-.192a1.837,1.837,0,0,1-.358.753c.3-.747.577-1.5.9-2.24m.119.057c-.191.455-.4.9-.581,1.36l.224-.129c.138-.418.532-.705.628-1.146C641.839,119.362,641.482,119.278,641.453,119.476Z" transform="translate(-584.45 -116.805)" fill="#020202"/>
    <path id="Path_10634" data-name="Path 10634" d="M686.61,178.674a2,2,0,0,1,1.185-1.224,2.674,2.674,0,0,0-1.1,1.131c.042.212.265.136.382.043a3.626,3.626,0,0,1,.945-.464.291.291,0,0,1,.212.477.984.984,0,0,1-1.106.246c-.176-.112-.519.111-.522-.209m.877-.183c-.134.082-.263.169-.388.261.27.014.541.014.813.007l-.035-.022.217-.09c.155-.122-.1-.265-.149-.374Z" transform="translate(-626.094 -169.432)" fill="#020202"/>
    <path id="Path_10635" data-name="Path 10635" d="M607,266.464a1.772,1.772,0,0,1,1.789-1,6.477,6.477,0,0,0-1,.317A2.244,2.244,0,0,0,607,266.464Z" transform="translate(-554.304 -248.78)" fill="#020202"/>
    <path id="Path_10636" data-name="Path 10636" d="M674.8,282.148a1.193,1.193,0,0,1,1.294,1.076,2.9,2.9,0,0,0-.569-.809A1.789,1.789,0,0,0,674.8,282.148Z" transform="translate(-615.444 -263.833)" fill="#020202"/>
    <path id="Path_10637" data-name="Path 10637" d="M660.064,285.149a2.465,2.465,0,0,1,.257-1.189,6.25,6.25,0,0,0,.205,2.957,1.056,1.056,0,0,1,.019.9c-.019-.043-.056-.132-.075-.176a.245.245,0,0,0,.063-.324.238.238,0,0,0-.063.324l-.05-.043a.6.6,0,0,1-.451.259c.166-.154.386-.3.395-.549C660.43,286.575,660.061,285.882,660.064,285.149Z" transform="translate(-602.071 -265.48)" fill="#020202"/>
    <path id="Path_10638" data-name="Path 10638" d="M670.748,284.93a1.937,1.937,0,0,1,.665.867,3.054,3.054,0,0,0-1.473-.327,1.822,1.822,0,0,1,1.283.094A2.678,2.678,0,0,0,670.748,284.93Z" transform="translate(-611.062 -266.355)" fill="#020202"/>
    <path id="Path_10639" data-name="Path 10639" d="M573.8,295.05a4.81,4.81,0,0,1,.934.934,1.918,1.918,0,0,1,.1,1.34c-.116-.386-.015-.8-.152-1.188C574.546,295.662,574.042,295.457,573.8,295.05Z" transform="translate(-524.365 -275.481)" fill="#020202"/>
    <path id="Path_10640" data-name="Path 10640" d="M587.15,326.068a1.032,1.032,0,0,1,1.185-.941c-.25.167-.588.143-.809.36A1.516,1.516,0,0,0,587.15,326.068Z" transform="translate(-536.404 -302.586)" fill="#020202"/>
    <path id="Path_10641" data-name="Path 10641" d="M594.767,329.5a1.075,1.075,0,0,1,.568-1.275A2.629,2.629,0,0,0,594.767,329.5Z" transform="translate(-543.222 -305.402)" fill="#020202"/>
    <path id="Path_10642" data-name="Path 10642" d="M573.433,333.81a7.287,7.287,0,0,0,.931,2.293A2.85,2.85,0,0,1,573.433,333.81Z" transform="translate(-524.034 -310.434)" fill="#020202"/>
    <path id="Path_10643" data-name="Path 10643" d="M618.79,369.628a6.158,6.158,0,0,1,1.411.2c.36.052.717-.063,1.078-.039C620.5,370.231,619.589,369.814,618.79,369.628Z" transform="translate(-564.936 -342.726)" fill="#020202"/>
    <path id="Path_10644" data-name="Path 10644" d="M623.92,376.189a1.608,1.608,0,0,1,1.908.468,3.791,3.791,0,0,0-.821-.359A8.749,8.749,0,0,0,623.92,376.189Z" transform="translate(-569.562 -348.547)" fill="#020202"/>
    <path id="Path_10646" data-name="Path 10646" d="M872.665,562.35a2.667,2.667,0,0,1,.571.589c.476.625.962,1.244,1.417,1.885.17.251.338.5.508.754l.212.328c.164.257.331.515.495.775.092.15.185.3.279.456s.177.288.265.433c.359.605.715,1.212,1.084,1.812.139.256.277.514.428.764.074.131.146.263.22.4.139.258.279.517.418.776.35.635.661,1.288,1,1.929.114.257.241.509.362.763.053.126.111.252.169.378.1.219.2.435.3.654.267.62.521,1.246.746,1.883.094.293.19.587.28.883a12.29,12.29,0,0,1,.418,2.029c.02.215.031.432.038.649a6.374,6.374,0,0,1-.319,2.173c-.1.237-.2.474-.316.705a4.062,4.062,0,0,1-2.546,1.986c-.184.041-.368.078-.553.106a11.057,11.057,0,0,1-1.179.086c-.227,0-.452,0-.676-.007a9.932,9.932,0,0,1-1.253-.156l-.178-.035c-.262-.069-.516-.161-.77-.248q-.327-.175-.651-.354A10.332,10.332,0,0,1,872.1,583.6c.033-.177.067-.352.1-.527a5.8,5.8,0,0,0,2.992,1.856,12.674,12.674,0,0,0,2.988.089,3.392,3.392,0,0,0,2.264-1.175,4.948,4.948,0,0,0,1.083-3.429,15.385,15.385,0,0,0-1.658-5.533,104.759,104.759,0,0,0-6.8-11.764,5.405,5.405,0,0,0-.391-.456C872.673,562.555,872.664,562.449,872.665,562.35Z" transform="translate(-793.364 -516.526)" fill="#020202"/>
    <path id="Path_10698" data-name="Path 10698" d="M662.854,136.079a1.041,1.041,0,0,1,.414-.379c.269.008.34.342.218.536a2.374,2.374,0,0,1-1.224,1.135l-.163.218a7.922,7.922,0,0,1,.754-1.511m-.02.313a1.968,1.968,0,0,0-.245.424l-.11.206.179-.1a2.12,2.12,0,0,0,.424-.4c.067-.1.134-.2.2-.3-.04-.049-.119-.148-.158-.2Q662.98,136.206,662.835,136.392Z" transform="translate(-603.992 -131.783)" fill="#060201"/>
    <path id="Path_10722" data-name="Path 10722" d="M630.82,148.511a.692.692,0,0,1,.4-.13c.2.141.33.415.616.352.206.487.8.364,1.219.443a.463.463,0,0,1,.343.47c-.108-.1-.2-.22-.316-.314-.321-.138-.688-.07-1.014-.182-.181-.1-.3-.313-.534-.3s-.213-.284-.3-.43C631.094,148.45,630.958,148.485,630.82,148.511Z" transform="translate(-575.784 -143.216)" fill="#000102"/>
    <path id="Path_10723" data-name="Path 10723" d="M584.521,149.532c.276.057.419-.327.691-.272a1.152,1.152,0,0,1,.27.447c-.128-.074-.244-.167-.364-.249-.193.009-.284.292-.5.236-.2-.035-.383-.12-.58-.155-.251.063-.441.277-.7.319a1.455,1.455,0,0,0-.666.161,1.778,1.778,0,0,0-.485.7,1.189,1.189,0,0,1,.51-.847,2.222,2.222,0,0,1,.649-.115c.207-.079.365-.249.578-.317A1.651,1.651,0,0,1,584.521,149.532Z" transform="translate(-531.931 -144.007)" fill="#000102"/>
    <path id="Path_10724" data-name="Path 10724" d="M677.413,159.648a.472.472,0,0,1,.673.411,4.68,4.68,0,0,0-1.385.365,1.732,1.732,0,0,1,1.161-.49l-.246-.224a3.613,3.613,0,0,0-1.567,1.072A3.634,3.634,0,0,1,677.413,159.648Z" transform="translate(-616.571 -153.334)" fill="#000102"/>
    <path id="Path_10725" data-name="Path 10725" d="M510.08,169.7a6.5,6.5,0,0,1,1.008.692,2.29,2.29,0,0,1,.651.716c.207.14.5.183.654.384a11.922,11.922,0,0,1-2.077-1.037.8.8,0,0,1-.236-.754m.118.24a.864.864,0,0,0,.536.638,2.689,2.689,0,0,0,.717.331,8.517,8.517,0,0,0-.737-.575A2.591,2.591,0,0,0,510.2,169.94Z" transform="translate(-466.893 -162.444)" fill="#000102"/>
    <path id="Path_10726" data-name="Path 10726" d="M539.38,173.248a1.237,1.237,0,0,0,.728-.328.629.629,0,0,1-.711.474c-.324,0-.258.58-.614.45a5.876,5.876,0,0,1-.548.972,6.844,6.844,0,0,0-.679.891,5.157,5.157,0,0,0-.193.907,1.091,1.091,0,0,1-.433.551c.089-.15.2-.289.276-.447.166-.419.094-.916.375-1.293a9.615,9.615,0,0,0,1.11-1.771C539.036,173.78,539.056,173.242,539.38,173.248Z" transform="translate(-491.117 -165.347)" fill="#000102"/>
    <path id="Path_10727" data-name="Path 10727" d="M535.62,186.635a6.081,6.081,0,0,1,1.407-2.555,3.558,3.558,0,0,1-.531.873A11.289,11.289,0,0,0,535.62,186.635Z" transform="translate(-489.935 -175.411)" fill="#000102"/>
    <path id="Path_10728" data-name="Path 10728" d="M665.405,336.97c.058.421.205.908-.063,1.287a1.316,1.316,0,0,1-.413.387,4.265,4.265,0,0,0,.448-.8A8.164,8.164,0,0,1,665.405,336.97Z" transform="translate(-606.544 -313.284)" fill="#000102"/>
    <path id="Path_10729" data-name="Path 10729" d="M596.907,504.554c.284-.086.713-.148.892.16.352.64-.565,1.49-1.175,1.07C596.242,505.431,596.515,504.782,596.907,504.554Z" transform="translate(-544.782 -464.343)" fill="#000102"/>
    <path id="Path_10938" data-name="Path 10938" d="M536.784,232.781a13.079,13.079,0,0,1,5.269-.69,6.055,6.055,0,0,1,3.271,1.107,3.588,3.588,0,0,1,1.435,2.42,2.206,2.206,0,0,1-.472-.372,2.911,2.911,0,0,0-.8-.242,1.259,1.259,0,0,0-.423.5c0,.311.344.448.5.679a1.6,1.6,0,0,0-.862.222,3.025,3.025,0,0,1,1.2-.012c.485.133,1.106.207,1.319.742a15.933,15.933,0,0,0-.659,1.687c-.324,1.38-.2,2.85-.735,4.183-.481,1.161-1.161,2.224-1.745,3.334-.419.733-.773,1.5-1.23,2.216a2.239,2.239,0,0,1-2.172.738,11.361,11.361,0,0,1-4.548-1.875,8.515,8.515,0,0,1-2.611-2.009,4.4,4.4,0,0,1-.744-2.256,12.328,12.328,0,0,0-.089-1.387c-.163.125-.312.351-.548.271-.362-.068-.5-.452-.6-.756a7.665,7.665,0,0,1,.068-4.115,1.509,1.509,0,0,1,.381-.735.577.577,0,0,1,.761.007l.11-.21a.8.8,0,0,0-.645-.212l-.244.145c.1-.112.206-.223.31-.333.079.02.157.04.236.064.165.177.578.318.243.632.124-.049.249-.1.374-.144.012.077.026.154.043.232a.312.312,0,0,0-.342-.094,2.837,2.837,0,0,1,.677,1.706c.065-.058.131-.116.2-.173.182.192.369.379.56.564.154-.341.217-.712.338-1.065a7.349,7.349,0,0,1,1.039-2.087c.339-.454.114-1.053.317-1.551a2.2,2.2,0,0,1,.831-1.132m2.708.86a3.05,3.05,0,0,0-1.936,1.35c.295-.245.539-.594.946-.652a4.654,4.654,0,0,1,2.875.254c.4.233.781.489,1.168.74a1.045,1.045,0,0,0,.793.079.533.533,0,0,0,.075-.693,1.557,1.557,0,0,1-.229-.5c-.081.054-.159.108-.238.163l-.067-.172a.372.372,0,0,1-.128.464c-.552-.315-1.065-.693-1.614-1.013a2.089,2.089,0,0,0-1.645-.02m-.782,2.719a2.245,2.245,0,0,1,.785-.687,6.477,6.477,0,0,1,1-.317,1.772,1.772,0,0,0-1.789,1m1.249-.555-.57.235.214.038c-.008.134-.169.168-.25.249a1.145,1.145,0,0,0-.435.632l.183-.141a3.694,3.694,0,0,0,1.482.752c.323.069.593-.149.868-.281l-.179.059c.073-.169.323-.539.014-.612l-.108-.067.072-.016.016-.053.457-.034c-.082.055-.163.11-.246.162q.312-.1.224.2c.046-.072.094-.143.146-.211l.3.143a1.431,1.431,0,0,0-.8-.512l.207-.123c-.174-.012-.346-.041-.517-.064a2.26,2.26,0,0,0,.358-.174c.122.025.244.047.367.066a2.863,2.863,0,0,0-1.8-.247m-7.915.708c-.055.289-.295.486-.395.755.161-.159.314-.328.476-.487a1.877,1.877,0,0,1,.484,1.328,2.475,2.475,0,0,0-.637-.952c.066.12.135.239.2.358a2.5,2.5,0,0,0-.665,1.924c.1-.3.075-.622.185-.915a3.708,3.708,0,0,1,.551-.932,2.9,2.9,0,0,1,.178.581c-.211.132-.5.2-.593.468a1.049,1.049,0,0,0,.042.7,4.661,4.661,0,0,1,.078-.684.857.857,0,0,1,.46-.324c.05.415-.315.774-.181,1.189a2.118,2.118,0,0,1,.181,1.159c-.3-.267-.394-.683-.663-.976a4.173,4.173,0,0,0,.544,1.051c-.119.072-.234.148-.345.231a.558.558,0,0,0,.618-.335c.174-.521-.3-.991-.189-1.511a6.45,6.45,0,0,0,.325-1.2,1.366,1.366,0,0,0-.657-1.433m13.325.478a1.79,1.79,0,0,1,.725.266,2.9,2.9,0,0,1,.569.809,1.193,1.193,0,0,0-1.294-1.076m-1.362,1.353c0,.734.365,1.426.3,2.162-.009.253-.229.395-.395.549a.6.6,0,0,0,.451-.259l.05.043.075.176a1.056,1.056,0,0,0-.019-.9,6.25,6.25,0,0,1-.205-2.957,2.465,2.465,0,0,0-.257,1.189m1.693-1.093a2.68,2.68,0,0,1,.474.635,1.822,1.822,0,0,0-1.283-.094,3.054,3.054,0,0,1,1.473.327,1.939,1.939,0,0,0-.665-.867m-.674.927c-.149.092-.376.231-.287.442a1.171,1.171,0,0,0,1.59.677c.006-.3-.019-.606-.024-.909a1.444,1.444,0,0,0-1.28-.21m-9.578.067c.242.407.746.612.884,1.086.138.383.036.8.152,1.188a1.918,1.918,0,0,0-.1-1.34,4.807,4.807,0,0,0-.934-.934m4.359,1.944a2.639,2.639,0,0,1,1.668-.488l.094.159-.167,0a.82.82,0,0,0,.286.988c.383.226.742-.254,1.135-.124a2.812,2.812,0,0,0,.567.322,1.732,1.732,0,0,0-.552-.6c-.382-.179-.612.421-.985.241-.322-.164-.268-.565-.232-.862l.168-.184c-.148.217-.281.08-.384-.083a1.888,1.888,0,0,0-1.6.633m-3.048,1.969a1.515,1.515,0,0,1,.375-.581c.221-.217.559-.194.809-.361a1.032,1.032,0,0,0-1.185.941m.8.621a2.628,2.628,0,0,1,.568-1.275,1.075,1.075,0,0,0-.568,1.275m.378-.814c-.044.125-.085.25-.125.377l.16-.065a4.445,4.445,0,0,0,1.725,2.751,3.96,3.96,0,0,0,3.077.208c-.094-.221.053-.426.147-.618a4.307,4.307,0,0,1,1.236-1.38,6.356,6.356,0,0,0-3.385-1.16c-.945-.066-1.932.315-2.836-.114m-2.523.087a2.85,2.85,0,0,0,.931,2.293,7.285,7.285,0,0,1-.931-2.293m9.462.31a8.147,8.147,0,0,0-.028.878,4.27,4.27,0,0,1-.448.8,1.317,1.317,0,0,0,.413-.387c.268-.379.121-.865.063-1.287m-5.008,3.216c.8.186,1.707.6,2.49.157-.362-.024-.718.091-1.079.039a6.158,6.158,0,0,0-1.411-.2m.5.74a8.756,8.756,0,0,1,1.086.109,3.786,3.786,0,0,1,.821.359A1.608,1.608,0,0,0,540.372,246.319Z" transform="translate(-485.941 -218.684)" fill="#ffdbcb"/>
    <path id="Path_10939" data-name="Path 10939" d="M543.117,391.859a1.3,1.3,0,0,1,1.283.116c.527.34.869.893,1.381,1.252a10.932,10.932,0,0,0,1.735.92,4.263,4.263,0,0,0,1.8.439,1.174,1.174,0,0,0,1.1-1.14q.318.029.638.048a3.383,3.383,0,0,0-.487,2.156,6.615,6.615,0,0,0-3.483.281,3.4,3.4,0,0,0-1.343,1.823,4.08,4.08,0,0,0-.311-1.96,8.948,8.948,0,0,0-3.065-3.14A1.546,1.546,0,0,1,543.117,391.859Z" transform="translate(-496.022 -362.673)" fill="#ffdbcb"/>
    <path id="Path_10940" data-name="Path 10940" d="M734.052,449.693a.533.533,0,0,1,.829.2c.183.491-.139.977-.22,1.459l-.229-.168a7.188,7.188,0,0,1,.268-1.058,4.287,4.287,0,0,0-.456,1.068c-.01.221.213.313.39.362a3.337,3.337,0,0,0,.267,1.373c.315.68.485,1.419.842,2.081a13.574,13.574,0,0,0,1.581,2.068,5.515,5.515,0,0,1,1.125,2.467c.016-.067.048-.2.065-.267a1.755,1.755,0,0,0,.8.578,5.575,5.575,0,0,1-.689,1.747,14.529,14.529,0,0,1-2.781,3.339,2.155,2.155,0,0,1-1.67.686,7.592,7.592,0,0,1-1.931-.75c-.425-.148-.854.207-1.276.036-.27-.1-.52-.336-.829-.276-.438.049-.882.3-1.32.125a1.592,1.592,0,0,1-.877-1.305c-.008-.181,0-.361,0-.541a3.967,3.967,0,0,0,1.542-.091c-.518-.149-1.175.16-1.6-.253-.23-.35-.578-.729-.465-1.181.034-.2.089-.4.141-.6.631-.044,1.259-.118,1.893-.142a4.75,4.75,0,0,0-1.559-.082c-.385.037-.613-.331-.747-.634a2.755,2.755,0,0,1-.016-1.318,2.115,2.115,0,0,0,2.239-.913,2.459,2.459,0,0,1-1.787.711c-.306-.022-.7-.176-.725-.531a2.879,2.879,0,0,1,.015-1.342c.2-.33.6-.448.919-.631a3.8,3.8,0,0,1,1.864-.736c1.041.088,2.072.3,3.116.365a1.955,1.955,0,0,0,.243-.626c.136-1.118-.283-2.223-.127-3.341A2.8,2.8,0,0,1,734.052,449.693Z" transform="translate(-662.251 -414.837)" fill="#ffdbcb"/>
    <path id="Path_10941" data-name="Path 10941" d="M155.4,487.14c.691,0,1.383,0,2.075,0a5.828,5.828,0,0,1,1.666,1.724l.108-.166c.359.21.788.43.917.858a2.966,2.966,0,0,0,.691,1.167,17.428,17.428,0,0,0-1.821-3.565c.459-.025.918-.012,1.378-.015a12.143,12.143,0,0,1,1.4,2.538c.119.28.075.625.27.871.014-.176.02-.352.02-.526a2.278,2.278,0,0,1,1.119,1.519,1.575,1.575,0,0,0-.083-.639,4.825,4.825,0,0,0,1.674.78,3.391,3.391,0,0,1,1.206.359,3.657,3.657,0,0,1,.809,1.031,2.069,2.069,0,0,0-1.361-1.423,3.866,3.866,0,0,1-1.883-.687,5.477,5.477,0,0,1-.837-.67,3.014,3.014,0,0,0-.751-.588,11.4,11.4,0,0,0-.9-1.675,5.461,5.461,0,0,0,.847.424c.584.213,1.107.663,1.765.6a8.358,8.358,0,0,0,2.6-.213c.757-.291.648-1.357,1.369-1.7.584-.044,1.173-.011,1.758-.027a4.1,4.1,0,0,0-.66,1.746,15.4,15.4,0,0,0,0,2.172,6.462,6.462,0,0,1-.688,2.5c-1.268.656-2.292,1.757-3.688,2.173a6.355,6.355,0,0,1-1.394-1.63,7.988,7.988,0,0,0-1.946-2.207c.073-.034.145-.069.218-.1a3.937,3.937,0,0,1-2.115-1.2c-.4-.486-.964-.792-1.387-1.253C157.028,488.541,156.116,487.944,155.4,487.14Z" transform="translate(-146.989 -448.692)" fill="#ffdbcb"/>
    <path id="Path_10961" data-name="Path 10961" d="M572.131,240.91c.094-.054.19-.108.286-.16a1.708,1.708,0,0,1-.249.339c-.146.018-.293.043-.435.073l.275.144,0,.1c-.255-.016-.51-.029-.763-.05A1.888,1.888,0,0,1,572.131,240.91Z" transform="translate(-522.056 -226.515)" fill="#594747"/>
    <path id="Path_10962" data-name="Path 10962" d="M542.25,249.3a10.35,10.35,0,0,1,2.739-2.14,1.586,1.586,0,0,1,.761.391,9.52,9.52,0,0,1-1.07-.076,2.113,2.113,0,0,0,.938.329c-.013.08-.037.239-.05.319a2.322,2.322,0,0,1-.68-.1c-.127-.038-.252-.16-.382-.057-.109-.071-.215-.141-.324-.21a2.146,2.146,0,0,0,.992.824,2.218,2.218,0,0,1-.794-.239c.091.128.189.256.282.386a1.642,1.642,0,0,1-.336-.172c-.107-.082-.209-.167-.311-.25q.026.318.063.635c-.131-.159-.261-.319-.39-.478a2.828,2.828,0,0,1,.129.671c-.14-.167-.269-.341-.4-.514q.093.368.212.73a2.467,2.467,0,0,0-.615-.49c.063.123.128.245.195.366l-.21-.009a1.771,1.771,0,0,1,.374.583,6.105,6.105,0,0,0-.735-.682c.021.068.06.205.08.273Z" transform="translate(-495.914 -232.295)" fill="#99665e"/>
    <path id="Path_10963" data-name="Path 10963" d="M597.186,246.7a2.089,2.089,0,0,1,1.645.02c.549.319,1.062.7,1.614,1.013a.372.372,0,0,0,.128-.464l.067.172c.079-.055.157-.109.238-.163a1.558,1.558,0,0,0,.229.5.533.533,0,0,1-.075.693,1.045,1.045,0,0,1-.793-.079c-.387-.25-.771-.507-1.168-.74a4.654,4.654,0,0,0-2.875-.254c-.407.058-.651.408-.946.652a3.05,3.05,0,0,1,1.936-1.35m-.719.451a5.791,5.791,0,0,1,2.073.092,1.81,1.81,0,0,1-.458-.262,1.121,1.121,0,0,1,.7.162,5.482,5.482,0,0,0,1.939,1.065c.194-.029.043-.283.079-.411-.161,0-.334.056-.483-.025a15.738,15.738,0,0,1-1.366-.8,1.506,1.506,0,0,0-.988-.252A4.259,4.259,0,0,0,596.467,247.151Z" transform="translate(-543.708 -231.735)" fill="#000305"/>
    <path id="Path_10968" data-name="Path 10968" d="M607.64,248.668a4.259,4.259,0,0,1,1.5-.434,1.506,1.506,0,0,1,.988.252,15.744,15.744,0,0,0,1.366.8c.149.081.322.02.483.025-.035.128.116.381-.079.411a5.481,5.481,0,0,1-1.939-1.065,1.122,1.122,0,0,0-.7-.162,1.808,1.808,0,0,0,.458.262A5.791,5.791,0,0,0,607.64,248.668Z" transform="translate(-554.881 -233.252)" fill="#9a6a64"/>
    <path id="Path_10986" data-name="Path 10986" d="M496.614,250.653c-.16-.145-.209-.466.008-.581a.464.464,0,0,1,.385.071,8.572,8.572,0,0,1,1,.765,2.19,2.19,0,0,1,.794.279c-.318-.029-.627-.13-.947-.137a1.876,1.876,0,0,1-1.239-.4m.245.035a3.384,3.384,0,0,0,1.037.242,2.108,2.108,0,0,0-.549-.383c-.179-.122-.4-.384-.616-.175C496.566,250.46,496.8,250.607,496.858,250.688Z" transform="translate(-454.636 -234.906)" fill="#040000"/>
    <path id="Path_11004" data-name="Path 11004" d="M550.887,258.83c.1.084.2.169.311.25.006.057.017.172.022.229l-.17.028c.046.133.094.266.141.4l-.235-.108c-.027.116-.053.233-.079.35q-.147-.136-.291-.271a1.337,1.337,0,0,1-.31.7l-.032-.086a1.772,1.772,0,0,0-.374-.583l.21.009c-.067-.122-.132-.244-.194-.366a2.468,2.468,0,0,1,.615.49q-.119-.361-.212-.73c.131.173.26.347.4.514a2.824,2.824,0,0,0-.129-.671c.129.159.259.319.39.478q-.037-.317-.063-.636m-.615,1.093Z" transform="translate(-502.785 -242.819)" fill="#2b2523"/>
    <path id="Path_11011" data-name="Path 11011" d="M672.89,266.874c.161-.193.461-.187.692-.2a1.975,1.975,0,0,1,1.37,1.387,2.471,2.471,0,0,0-.658-.4,2.679,2.679,0,0,1-1.148-.46l.15-.161A.783.783,0,0,1,672.89,266.874Z" transform="translate(-613.722 -249.889)" fill="#97655e"/>
    <path id="Path_11030" data-name="Path 11030" d="M553.575,269.561Z" transform="translate(-506.088 -252.457)" fill="#5c5155"/>
    <path id="Path_11031" data-name="Path 11031" d="M619.72,269.873a2.864,2.864,0,0,1,1.8.247c-.124-.019-.246-.041-.367-.066a3.858,3.858,0,0,0-1.292-.069Z" transform="translate(-565.774 -252.744)" fill="#3d3437"/>
    <path id="Path_11032" data-name="Path 11032" d="M553.96,269.96Z" transform="translate(-506.474 -252.856)" fill="#4e4f4a"/>
    <path id="Path_11033" data-name="Path 11033" d="M609.591,270.445l.57-.235.145.112c-.167-.018-.272.031-.313.145.408.08.834.024,1.247.1.171.023.343.052.517.064l-.207.123a1.431,1.431,0,0,1,.8.512l-.3-.143c-.052.068-.1.139-.146.211q.088-.3-.224-.2c.083-.052.164-.107.246-.162l-.457.034-.174-.131c-.64-.2-1.493-.407-1.968.218a5.482,5.482,0,0,0,1.19.7c-.163-.334-.127-.84.282-.969a1.142,1.142,0,0,0-.263.863.723.723,0,0,0,.98-.083c-.188-.031-.512.07-.566-.2a.29.29,0,0,1,.432-.333l.108.067c.309.073.059.443-.014.612l.179-.059c-.275.132-.545.35-.868.281a3.694,3.694,0,0,1-1.482-.752l-.183.141a1.146,1.146,0,0,1,.435-.632c.081-.082.243-.116.25-.25Z" transform="translate(-556.216 -253.081)" fill="#020302"/>
    <path id="Path_11034" data-name="Path 11034" d="M618.01,271.271c.041-.114.146-.163.313-.145a3.859,3.859,0,0,1,1.292.069,2.263,2.263,0,0,1-.358.174C618.844,271.295,618.418,271.351,618.01,271.271Z" transform="translate(-564.232 -253.885)" fill="#fdeddd"/>
    <path id="Path_11035" data-name="Path 11035" d="M611.21,275.372c.475-.625,1.328-.415,1.969-.218-.167-.016-.332-.03-.5-.049-.409.129-.445.635-.282.969A5.485,5.485,0,0,1,611.21,275.372Z" transform="translate(-558.1 -257.36)" fill="#fdfefe"/>
    <path id="Path_11043" data-name="Path 11043" d="M623.721,276.48c.165.019.33.033.5.049l.174.131-.016.053-.072.016a.29.29,0,0,0-.432.333c.054.268.378.167.566.2a.723.723,0,0,1-.98.083A1.142,1.142,0,0,1,623.721,276.48Z" transform="translate(-569.14 -258.735)" fill="#6da0b5"/>
    <path id="Path_11057" data-name="Path 11057" d="M534.121,277.42a1.366,1.366,0,0,1,.657,1.433,6.44,6.44,0,0,1-.325,1.2c-.116.52.362.99.189,1.511a.559.559,0,0,1-.618.335c.111-.083.226-.159.345-.231a4.173,4.173,0,0,1-.544-1.051c.269.294.361.709.663.976a2.118,2.118,0,0,0-.181-1.159c-.135-.415.231-.773.181-1.189a.857.857,0,0,0-.46.324,4.662,4.662,0,0,0-.078.684,1.05,1.05,0,0,1-.042-.7c.088-.263.382-.336.593-.468a2.9,2.9,0,0,0-.178-.581,3.708,3.708,0,0,0-.551.932c-.11.294-.087.617-.185.915a2.5,2.5,0,0,1,.665-1.924c-.069-.119-.138-.238-.2-.358a2.473,2.473,0,0,1,.638.952,1.877,1.877,0,0,0-.484-1.328c-.162.159-.315.328-.476.487C533.826,277.906,534.066,277.709,534.121,277.42Z" transform="translate(-488.091 -259.583)" fill="#080205"/>
    <path id="Path_11062" data-name="Path 11062" d="M552.641,282.46c.131.024.153.094.069.214C552.578,282.65,552.555,282.578,552.641,282.46Z" transform="translate(-505.239 -264.128)" fill="#222526"/>
    <path id="Path_11087" data-name="Path 11087" d="M668.491,293.641a1.444,1.444,0,0,1,1.28.21c0,.3.029.605.024.909a1.171,1.171,0,0,1-1.59-.677c-.089-.211.138-.35.287-.442m-.27.366a4.131,4.131,0,0,0,.514.612.913.913,0,0,1,.233-.925,1.173,1.173,0,0,0-.746.313m.845.721a.438.438,0,0,0,.523-.279c-.43.23-.511-.4-.169-.513l.247.15c-.017-.261-.324-.275-.522-.305a.512.512,0,0,0-.079.947m.5-.149C669.59,294.9,669.86,294.4,669.569,294.579Z" transform="translate(-609.478 -274.139)" fill="#0c0307"/>
    <path id="Path_11096" data-name="Path 11096" d="M668.56,295.221a1.174,1.174,0,0,1,.746-.313.913.913,0,0,0-.233.925A4.126,4.126,0,0,1,668.56,295.221Z" transform="translate(-609.817 -275.353)" fill="#faf9f9"/>
    <path id="Path_11097" data-name="Path 11097" d="M674.549,296.747a.512.512,0,0,1,.078-.947c.2.03.5.044.522.306l-.246-.15c-.342.114-.261.743.169.513A.438.438,0,0,1,674.549,296.747Z" transform="translate(-614.961 -276.157)" fill="#72a3ba"/>
    <path id="Path_11108" data-name="Path 11108" d="M122.353,304.832a14.325,14.325,0,0,1,8.358-1.3,13.127,13.127,0,0,1,9.788,7.1c1.343,2.79,1.5,5.948,1.585,8.99-2.287-.107-4.576-.015-6.864-.009-4.419.011-8.837,0-13.255.045-.143-.013-.315.035-.427-.08a4.733,4.733,0,0,1-1.268-2.1,11.605,11.605,0,0,1-.2-5.731,9.5,9.5,0,0,1,3.34-5.737,9.357,9.357,0,0,0-5.047,5.575,8.863,8.863,0,0,1,2.423-5.385A8.112,8.112,0,0,1,122.353,304.832Z" transform="translate(-113.588 -282.999)" fill="#d3eef9"/>
    <path id="Path_11109" data-name="Path 11109" d="M682.28,303.569C682.572,303.395,682.3,303.9,682.28,303.569Z" transform="translate(-622.19 -283.129)" fill="#aba7ad"/>
    <path id="Path_11127" data-name="Path 11127" d="M618.18,308.856a1.888,1.888,0,0,1,1.6-.633c.1.163.236.3.384.083l-.168.184c-.036.3-.09.7.232.862.373.181.6-.419.985-.241a1.735,1.735,0,0,1,.552.6,2.809,2.809,0,0,1-.567-.322c-.393-.131-.751.35-1.135.124a.82.82,0,0,1-.286-.988l.167,0-.094-.159A2.639,2.639,0,0,0,618.18,308.856Z" transform="translate(-564.386 -287.344)" fill="#161b1e"/>
    <path id="Path_11148" data-name="Path 11148" d="M664.728,318.484a.238.238,0,0,1,.063-.324A.245.245,0,0,1,664.728,318.484Z" transform="translate(-606.328 -296.321)" fill="#fefefd"/>
    <path id="Path_11160" data-name="Path 11160" d="M597.985,332.92c.9.429,1.891.048,2.836.114a6.356,6.356,0,0,1,3.385,1.16,4.307,4.307,0,0,0-1.236,1.38c-.094.192-.242.4-.147.618a3.96,3.96,0,0,1-3.077-.208,4.445,4.445,0,0,1-1.725-2.751l-.16.065c.039-.127.081-.252.125-.377m.023.127c.2.471.389.949.627,1.4.842.09,1.69-.147,2.526.026.679.147,1.34.371,2.022.5a5.5,5.5,0,0,1,.814-.748,7.915,7.915,0,0,0-2.78-1c-1.066-.2-2.191.306-3.21-.189m1.219,2.351a2.142,2.142,0,0,0,.974.606,6.522,6.522,0,0,0,2.388.074l.192-.458a13.4,13.4,0,0,1-1.964-.124c-.294-.032-.584-.212-.88-.105A1.293,1.293,0,0,1,599.226,335.4Z" transform="translate(-546.062 -309.631)" fill="#000101"/>
    <path id="Path_11161" data-name="Path 11161" d="M495.813,656.547a.838.838,0,0,1,.84.073.9.9,0,0,1,.029,1.292.82.82,0,0,1-1.208-.018A1.016,1.016,0,0,1,495.813,656.547Z" transform="translate(-453.602 -601.4)" fill="#000101"/>
    <path id="Path_11165" data-name="Path 11165" d="M599.36,334.21c1.019.494,2.144-.014,3.21.189a7.915,7.915,0,0,1,2.78,1,5.492,5.492,0,0,0-.814.747c-.683-.133-1.344-.357-2.022-.5-.836-.173-1.685.065-2.526-.026C599.749,335.159,599.562,334.68,599.36,334.21Z" transform="translate(-547.414 -310.795)" fill="#fefefe"/>
    <path id="Path_11166" data-name="Path 11166" d="M773.841,475.308a9.519,9.519,0,0,1,.826-2.258c-.035,1.137.391,2.292.053,3.41-.458-.056-.912-.132-1.37-.172A4.847,4.847,0,0,0,773.841,475.308Z" transform="translate(-704.314 -435.997)" fill="#fefefe"/>
    <path id="Path_11191" data-name="Path 11191" d="M611.77,357.768a1.293,1.293,0,0,0,.71-.007c.3-.107.586.073.88.105a13.394,13.394,0,0,0,1.964.124l-.191.458a6.522,6.522,0,0,1-2.388-.074A2.142,2.142,0,0,1,611.77,357.768Z" transform="translate(-558.605 -332.002)" fill="#fdfdfd"/>
    <path id="Path_11332" data-name="Path 11332" d="M148.375,471.044c.1-.113.151-.331.338-.315q6.688.021,13.377,0c2.336.009,4.676.087,7.01-.03a3.551,3.551,0,0,0-.423.361,3.769,3.769,0,0,1,1.073.04c.3.124.118.506-.107.6a3.3,3.3,0,0,1-1.468.1c-6.638.033-13.276.108-19.914.159a1.079,1.079,0,0,1,.25-.679q9.684.04,19.368.047c.3-.032.649.024.883-.2a6.269,6.269,0,0,0-1.863-.128C160.724,471,154.549,471.047,148.375,471.044Z" transform="translate(-140.551 -433.885)" fill="#d4f0fb"/>
    <path id="Path_11460" data-name="Path 11460" d="M510.366,580.459c.21-.074.441.135.591.275a1.129,1.129,0,0,1-.067,1.311.625.625,0,0,1-1.018-.168A1.372,1.372,0,0,1,510.366,580.459Z" transform="translate(-466.659 -532.842)" fill="#010101"/>
    <path id="Path_11461" data-name="Path 11461" d="M550.145,822.862c.315.176.6-.176.922-.089a.486.486,0,0,1,.4.5,1.233,1.233,0,0,1-.815.963.569.569,0,0,1-.78-.457A1.591,1.591,0,0,1,550.145,822.862Z" transform="translate(-502.781 -751.355)" fill="#010101"/>
    <path id="Path_11472" data-name="Path 11472" d="M587.7,590.3Z" transform="translate(-536.9 -541.73)" fill="#e1e5e6"/>
    <path id="Path_11593" data-name="Path 11593" d="M484.953,737.287a.531.531,0,0,1,.7.327.955.955,0,0,1-.755,1.315.628.628,0,0,1-.4-1.033A7.594,7.594,0,0,0,484.953,737.287Z" transform="translate(-443.689 -674.238)" fill="#000100"/>
    <path id="Path_11599" data-name="Path 11599" d="M360.3,847.21Z" transform="translate(-331.836 -773.405)" fill="#7df0f3"/>
    <path id="Path_11613" data-name="Path 11613" d="M237.26,762.29Z" transform="translate(-220.882 -696.827)" fill="#5fdffa"/>
    <path id="Path_11614" data-name="Path 11614" d="M275.26,762.22Z" transform="translate(-255.149 -696.763)" fill="#6becff"/>
    <path id="Path_11648" data-name="Path 11648" d="M303.37,809.35Z" transform="translate(-280.498 -739.264)" fill="#5cdbfe"/>
    <path id="Path_11672" data-name="Path 11672" d="M360.29,828.28Z" transform="translate(-331.827 -756.335)" fill="#8bf1e6"/>
    <path id="Path_11696" data-name="Path 11696" d="M322.34,847.19Z" transform="translate(-297.605 -773.387)" fill="#63e0fe"/>
    <path id="Path_11697" data-name="Path 11697" d="M341.26,847.21Z" transform="translate(-314.666 -773.405)" fill="#6fe6fe"/>
    <path id="Path_11716" data-name="Path 11716" d="M341.33,866.23Z" transform="translate(-314.729 -790.557)" fill="#5dddfa"/>
    <path id="Path_11717" data-name="Path 11717" d="M360.3,866.25Z" transform="translate(-331.836 -790.575)" fill="#6ae1f9"/>
  </g>
</svg>
